{
.appVersion = "3151";
.formatVersion = 3;
DisplayStrings = (
O,
N,
"nnannfnngnn
nnfnnoofoo
nnannooaoo
him norstv
nnsnnoosoo
nntnnootoo
nnfnnoofoo
Heart beating
nnrnnooroo
Eames Chair
BURGER
burgers
RCCG
Banana
MINNIMA   
minnima
",
"CHAMBURGEFONSTIV
ADHESION

CHAMBURGEFONSTIV
ADHESION

hamburgefonstiv
adhesion

hamburgefonstiv
adhesion",
u,
o,
m,
r,
v,
e,
a,
x,
i,
C
);
axes = (
{
name = Morph;
tag = morf;
}
);
date = "2023-10-07 20:47:59 +0000";
familyName = "Nsibidi Libre";
fontMaster = (
{
axesValues = (
0
);
iconName = Condensed;
id = m01;
metricValues = (
{
over = 16;
pos = 726;
},
{
over = 16;
pos = 700;
},
{
over = 16;
pos = 500;
},
{
over = -16;
},
{
over = -16;
pos = -300;
}
);
name = "0";
userData = {
GSCornerRadius = 26;
GSRoughenHorizontal = 8;
GSRoughenSegmentLength = 8;
GSRoughenVertical = 8;
};
},
{
axesValues = (
10
);
iconName = SemiBold;
id = m002;
metricValues = (
{
over = 16;
pos = 726;
},
{
over = 16;
pos = 700;
},
{
over = 16;
pos = 500;
},
{
over = -16;
},
{
over = -16;
pos = -300;
}
);
name = "1";
userData = {
GSCornerRadius = 26;
GSRoughenHorizontal = 8;
GSRoughenSegmentLength = 8;
GSRoughenVertical = 8;
};
},
{
axesValues = (
20
);
iconName = Bold_Extended;
id = m003;
metricValues = (
{
over = 16;
pos = 726;
},
{
over = 16;
pos = 700;
},
{
over = 16;
pos = 500;
},
{
over = -16;
},
{
over = -16;
pos = -300;
}
);
name = "2";
userData = {
GSCornerRadius = 26;
GSRoughenHorizontal = 8;
GSRoughenSegmentLength = 8;
GSRoughenVertical = 8;
};
},
{
axesValues = (
30
);
iconName = Condensed;
id = m004;
metricValues = (
{
over = 16;
pos = 726;
},
{
over = 16;
pos = 700;
},
{
over = 16;
pos = 500;
},
{
over = -16;
},
{
over = -16;
pos = -300;
}
);
name = "3";
userData = {
GSCornerRadius = 25;
GSRoughenHorizontal = 8;
GSRoughenSegmentLength = 8;
GSRoughenVertical = 8;
};
}
);
glyphs = (
{
color = 1;
glyphname = A;
lastChange = "2023-11-27 02:09:11 +0000";
layers = (
{
layerId = m01;
shapes = (
{
closed = 1;
nodes = (
(32,32,ls),
(25,12,o),
(35,0,o),
(55,0,cs),
(63,0,ls),
(79,0,o),
(90,7,o),
(95,23,cs),
(281,561,ls),
(290,586,o),
(308,586,o),
(317,561,cs),
(508,23,ls),
(513,8,o),
(524,0,o),
(540,0,cs),
(549,0,ls),
(568,0,o),
(577,12,o),
(570,32,cs),
(339,677,ls),
(334,692,o),
(323,700,o),
(307,700,cs),
(290,700,ls),
(274,700,o),
(263,692,o),
(258,677,cs)
);
},
{
closed = 1;
nodes = (
(267,297,ls),
(267,279,o),
(277,269,o),
(295,269,cs),
(304,269,ls),
(322,269,o),
(332,279,o),
(332,297,cs),
(332,588,ls),
(332,606,o),
(322,616,o),
(304,616,cs),
(295,616,ls),
(277,616,o),
(267,606,o),
(267,588,cs)
);
},
{
closed = 1;
nodes = (
(253,301,ls),
(235,301,o),
(225,291,o),
(225,273,cs),
(225,264,ls),
(225,246,o),
(235,236,o),
(253,236,cs),
(348,236,ls),
(366,236,o),
(376,246,o),
(376,264,cs),
(376,273,ls),
(376,291,o),
(366,301,o),
(348,301,cs)
);
},
{
closed = 1;
nodes = (
(320,120,o),
(337,135,o),
(337,154,cs),
(337,175,o),
(320,192,o),
(301,192,cs),
(281,192,o),
(265,175,o),
(265,154,cs),
(265,135,o),
(281,120,o),
(301,120,cs)
);
},
{
closed = 1;
nodes = (
(253,700,ls),
(235,700,o),
(225,690,o),
(225,672,cs),
(225,663,ls),
(225,645,o),
(235,635,o),
(253,635,cs),
(348,635,ls),
(366,635,o),
(376,645,o),
(376,663,cs),
(376,672,ls),
(376,690,o),
(366,700,o),
(348,700,cs)
);
},
{
closed = 1;
nodes = (
(318,287,o),
(333,302,o),
(333,320,cs),
(333,337,o),
(318,352,o),
(301,352,cs),
(283,352,o),
(268,337,o),
(268,320,cs),
(268,302,o),
(283,287,o),
(301,287,cs)
);
}
);
width = 602;
},
{
layerId = m002;
shapes = (
{
closed = 1;
nodes = (
(32,32,ls),
(25,12,o),
(35,0,o),
(55,0,cs),
(63,0,ls),
(79,0,o),
(90,7,o),
(95,23,cs),
(281,561,ls),
(290,586,o),
(308,586,o),
(317,561,cs),
(508,23,ls),
(513,8,o),
(524,0,o),
(540,0,cs),
(549,0,ls),
(568,0,o),
(577,12,o),
(570,32,cs),
(339,677,ls),
(334,692,o),
(323,700,o),
(307,700,cs),
(290,700,ls),
(274,700,o),
(263,692,o),
(258,677,cs)
);
},
{
closed = 1;
nodes = (
(267,297,ls),
(267,279,o),
(277,269,o),
(295,269,cs),
(304,269,ls),
(322,269,o),
(332,279,o),
(332,297,cs),
(332,588,ls),
(332,606,o),
(322,616,o),
(304,616,cs),
(295,616,ls),
(277,616,o),
(267,606,o),
(267,588,cs)
);
},
{
closed = 1;
nodes = (
(253,301,ls),
(235,301,o),
(225,291,o),
(225,273,cs),
(225,264,ls),
(225,246,o),
(235,236,o),
(253,236,cs),
(348,236,ls),
(366,236,o),
(376,246,o),
(376,264,cs),
(376,273,ls),
(376,291,o),
(366,301,o),
(348,301,cs)
);
},
{
closed = 1;
nodes = (
(320,120,o),
(337,135,o),
(337,154,cs),
(337,175,o),
(320,192,o),
(301,192,cs),
(281,192,o),
(265,175,o),
(265,154,cs),
(265,135,o),
(281,120,o),
(301,120,cs)
);
},
{
closed = 1;
nodes = (
(253,700,ls),
(235,700,o),
(225,690,o),
(225,672,cs),
(225,663,ls),
(225,645,o),
(235,635,o),
(253,635,cs),
(348,635,ls),
(366,635,o),
(376,645,o),
(376,663,cs),
(376,672,ls),
(376,690,o),
(366,700,o),
(348,700,cs)
);
},
{
closed = 1;
nodes = (
(318,287,o),
(333,302,o),
(333,320,cs),
(333,337,o),
(318,352,o),
(301,352,cs),
(283,352,o),
(268,337,o),
(268,320,cs),
(268,302,o),
(283,287,o),
(301,287,cs)
);
}
);
width = 602;
},
{
layerId = m003;
shapes = (
{
closed = 1;
nodes = (
(533,51,o),
(538,66,o),
(533,81,cs),
(327,647,ls),
(322,662,o),
(309,666,o),
(292,660,cs),
(275,653,o),
(270,642,o),
(276,626,cs),
(482,60,ls),
(487,45,o),
(499,39,o),
(516,45,cs)
);
},
{
closed = 1;
nodes = (
(82,40,o),
(95,47,o),
(101,62,cs),
(306,617,ls),
(311,632,o),
(304,643,o),
(287,649,cs),
(271,655,o),
(259,650,o),
(253,634,cs),
(49,79,ls),
(43,64,o),
(48,52,o),
(65,46,cs)
);
},
{
closed = 1;
nodes = (
(129,260,o),
(140,249,o),
(154,249,cs),
(429,249,ls),
(443,249,o),
(454,260,o),
(454,274,cs),
(454,288,o),
(443,299,o),
(429,299,cs),
(154,299,ls),
(140,299,o),
(129,288,o),
(129,274,cs)
);
},
{
closed = 1;
nodes = (
(517,43,ls),
(528,54,o),
(529,67,o),
(518,79,cs),
(506,90,o),
(493,89,o),
(482,78,cs),
(448,44,ls),
(436,32,o),
(436,19,o),
(447,8,cs),
(458,-3,o),
(471,-3,o),
(483,9,cs)
);
},
{
closed = 1;
nodes = (
(535,9,ls),
(547,-3,o),
(560,-3,o),
(571,8,cs),
(582,19,o),
(582,32,o),
(570,44,cs),
(536,78,ls),
(525,89,o),
(512,90,o),
(500,79,cs),
(489,67,o),
(490,54,o),
(501,43,cs)
);
},
{
closed = 1;
nodes = (
(83,43,ls),
(94,54,o),
(95,67,o),
(84,79,cs),
(72,90,o),
(59,89,o),
(48,78,cs),
(14,44,ls),
(2,32,o),
(2,19,o),
(13,8,cs),
(24,-3,o),
(37,-3,o),
(49,9,cs)
);
},
{
closed = 1;
nodes = (
(101,9,ls),
(113,-3,o),
(126,-3,o),
(137,8,cs),
(148,19,o),
(148,32,o),
(136,44,cs),
(102,78,ls),
(91,89,o),
(78,90,o),
(66,79,cs),
(55,67,o),
(56,54,o),
(67,43,cs)
);
},
{
closed = 1;
nodes = (
(250,703,o),
(237,703,o),
(226,692,cs),
(215,681,o),
(215,668,o),
(227,656,cs),
(261,622,ls),
(272,611,o),
(285,610,o),
(297,621,cs),
(308,633,o),
(307,646,o),
(296,657,cs),
(262,691,ls)
);
},
{
closed = 1;
nodes = (
(279,646,o),
(278,633,o),
(290,621,cs),
(301,610,o),
(314,611,o),
(325,622,cs),
(359,656,ls),
(371,668,o),
(371,681,o),
(360,692,cs),
(349,703,o),
(336,703,o),
(324,691,cs),
(290,657,ls)
);
}
);
width = 614;
},
{
background = {
guides = (
{
pos = (515,384);
showMeasurement = 1;
}
);
shapes = (
{
closed = 1;
nodes = (
(323,339,o),
(333,351,o),
(333,367,cs),
(333,670,ls),
(333,686,o),
(323,694,o),
(305,694,cs),
(287,694,o),
(278,685,o),
(278,668,cs),
(278,365,ls),
(278,349,o),
(287,339,o),
(305,339,cs)
);
}
);
};
layerId = m004;
shapes = (
{
closed = 1;
nodes = (
(562,11,o),
(568,26,o),
(562,41,cs),
(338,658,ls),
(332,673,o),
(320,677,o),
(303,671,cs),
(286,664,o),
(281,653,o),
(287,637,cs),
(511,20,ls),
(517,5,o),
(528,-1,o),
(545,5,cs)
);
},
{
closed = 1;
nodes = (
(85,0,o),
(99,7,o),
(104,22,cs),
(329,639,ls),
(334,654,o),
(327,665,o),
(310,671,cs),
(294,677,o),
(282,672,o),
(276,656,cs),
(52,39,ls),
(47,24,o),
(51,12,o),
(68,6,cs)
);
},
{
closed = 1;
nodes = (
(144,260,o),
(155,249,o),
(169,249,cs),
(444,249,ls),
(458,249,o),
(469,260,o),
(469,274,cs),
(469,288,o),
(458,299,o),
(444,299,cs),
(169,299,ls),
(155,299,o),
(144,288,o),
(144,274,cs)
);
},
{
closed = 1;
nodes = (
(244,661,o),
(255,650,o),
(269,650,cs),
(344,650,ls),
(358,650,o),
(369,661,o),
(369,675,cs),
(369,689,o),
(358,700,o),
(344,700,cs),
(269,700,ls),
(255,700,o),
(244,689,o),
(244,675,cs)
);
}
);
width = 614;
}
);
unicode = 65;
},
{
color = 1;
glyphname = B;
lastChange = "2023-11-27 01:21:03 +0000";
layers = (
{
layerId = m01;
shapes = (
{
closed = 1;
nodes = (
(70,28,ls),
(70,10,o),
(80,0,o),
(98,0,cs),
(107,0,ls),
(125,0,o),
(135,10,o),
(135,28,cs),
(135,672,ls),
(135,690,o),
(125,700,o),
(107,700,cs),
(98,700,ls),
(80,700,o),
(70,690,o),
(70,672,cs)
);
},
{
closed = 1;
nodes = (
(135,634,l),
(316,634,ls),
(381,634,o),
(433,583,o),
(433,520,cs),
(433,455,o),
(381,393,o),
(316,393,cs),
(234,393,l),
(234,323,l),
(322,324,ls),
(394,325,o),
(453,267,o),
(453,197,cs),
(453,124,o),
(380,66,o),
(322,66,cs),
(251,66,o),
(156,65,o),
(135,65,c)
);
},
{
closed = 1;
nodes = (
(335,0,ls),
(437,0,o),
(519,96,o),
(519,211,cs),
(519,278,o),
(483,335,o),
(428,366,c),
(471,399,o),
(499,452,o),
(499,511,cs),
(499,611,o),
(417,700,o),
(315,700,cs),
(98,700,l),
(98,390,l),
(98,327,l),
(98,0,l)
);
},
{
closed = 1;
nodes = (
(234,212,ls),
(234,194,o),
(244,184,o),
(262,184,cs),
(271,184,ls),
(289,184,o),
(299,194,o),
(299,212,cs),
(299,503,ls),
(299,521,o),
(289,531,o),
(271,531,cs),
(262,531,ls),
(244,531,o),
(234,521,o),
(234,503,cs)
);
},
{
closed = 1;
nodes = (
(239,326,ls),
(257,326,o),
(267,336,o),
(267,354,cs),
(267,363,ls),
(267,381,o),
(257,391,o),
(239,391,cs),
(129,391,ls),
(111,391,o),
(101,381,o),
(101,363,cs),
(101,354,ls),
(101,336,o),
(111,326,o),
(129,326,cs)
);
},
{
closed = 1;
nodes = (
(237,407,ls),
(255,407,o),
(265,417,o),
(265,435,cs),
(265,444,ls),
(265,462,o),
(255,472,o),
(237,472,cs),
(127,472,ls),
(109,472,o),
(99,462,o),
(99,444,cs),
(99,435,ls),
(99,417,o),
(109,407,o),
(127,407,cs)
);
},
{
closed = 1;
nodes = (
(237,245,ls),
(255,245,o),
(265,255,o),
(265,273,cs),
(265,282,ls),
(265,300,o),
(255,310,o),
(237,310,cs),
(127,310,ls),
(109,310,o),
(99,300,o),
(99,282,cs),
(99,273,ls),
(99,255,o),
(109,245,o),
(127,245,cs)
);
},
{
closed = 1;
nodes = (
(218,561,ls),
(200,561,o),
(190,551,o),
(190,533,cs),
(190,524,ls),
(190,506,o),
(200,496,o),
(218,496,cs),
(315,496,ls),
(333,496,o),
(343,506,o),
(343,524,cs),
(343,533,ls),
(343,551,o),
(333,561,o),
(315,561,cs)
);
},
{
closed = 1;
nodes = (
(218,219,ls),
(200,219,o),
(190,209,o),
(190,191,cs),
(190,182,ls),
(190,164,o),
(200,154,o),
(218,154,cs),
(315,154,ls),
(333,154,o),
(343,164,o),
(343,182,cs),
(343,191,ls),
(343,209,o),
(333,219,o),
(315,219,cs)
);
}
);
width = 579;
},
{
layerId = m002;
shapes = (
{
closed = 1;
nodes = (
(70,28,ls),
(70,10,o),
(80,0,o),
(98,0,cs),
(107,0,ls),
(125,0,o),
(135,10,o),
(135,28,cs),
(135,672,ls),
(135,690,o),
(125,700,o),
(107,700,cs),
(98,700,ls),
(80,700,o),
(70,690,o),
(70,672,cs)
);
},
{
closed = 1;
nodes = (
(135,634,l),
(316,634,ls),
(381,634,o),
(433,583,o),
(433,520,cs),
(433,455,o),
(381,393,o),
(316,393,cs),
(234,393,l),
(234,323,l),
(322,324,ls),
(394,325,o),
(453,267,o),
(453,197,cs),
(453,124,o),
(380,66,o),
(322,66,cs),
(251,66,o),
(156,65,o),
(135,65,c)
);
},
{
closed = 1;
nodes = (
(335,0,ls),
(437,0,o),
(519,96,o),
(519,211,cs),
(519,278,o),
(483,335,o),
(428,366,c),
(471,399,o),
(499,452,o),
(499,511,cs),
(499,611,o),
(417,700,o),
(315,700,cs),
(98,700,l),
(98,390,l),
(98,327,l),
(98,0,l)
);
},
{
closed = 1;
nodes = (
(234,212,ls),
(234,194,o),
(244,184,o),
(262,184,cs),
(271,184,ls),
(289,184,o),
(299,194,o),
(299,212,cs),
(299,503,ls),
(299,521,o),
(289,531,o),
(271,531,cs),
(262,531,ls),
(244,531,o),
(234,521,o),
(234,503,cs)
);
},
{
closed = 1;
nodes = (
(239,326,ls),
(257,326,o),
(267,336,o),
(267,354,cs),
(267,363,ls),
(267,381,o),
(257,391,o),
(239,391,cs),
(129,391,ls),
(111,391,o),
(101,381,o),
(101,363,cs),
(101,354,ls),
(101,336,o),
(111,326,o),
(129,326,cs)
);
},
{
closed = 1;
nodes = (
(237,407,ls),
(255,407,o),
(265,417,o),
(265,435,cs),
(265,444,ls),
(265,462,o),
(255,472,o),
(237,472,cs),
(127,472,ls),
(109,472,o),
(99,462,o),
(99,444,cs),
(99,435,ls),
(99,417,o),
(109,407,o),
(127,407,cs)
);
},
{
closed = 1;
nodes = (
(237,245,ls),
(255,245,o),
(265,255,o),
(265,273,cs),
(265,282,ls),
(265,300,o),
(255,310,o),
(237,310,cs),
(127,310,ls),
(109,310,o),
(99,300,o),
(99,282,cs),
(99,273,ls),
(99,255,o),
(109,245,o),
(127,245,cs)
);
},
{
closed = 1;
nodes = (
(218,561,ls),
(200,561,o),
(190,551,o),
(190,533,cs),
(190,524,ls),
(190,506,o),
(200,496,o),
(218,496,cs),
(315,496,ls),
(333,496,o),
(343,506,o),
(343,524,cs),
(343,533,ls),
(343,551,o),
(333,561,o),
(315,561,cs)
);
},
{
closed = 1;
nodes = (
(218,219,ls),
(200,219,o),
(190,209,o),
(190,191,cs),
(190,182,ls),
(190,164,o),
(200,154,o),
(218,154,cs),
(315,154,ls),
(333,154,o),
(343,164,o),
(343,182,cs),
(343,191,ls),
(343,209,o),
(333,219,o),
(315,219,cs)
);
}
);
width = 579;
},
{
layerId = m003;
shapes = (
{
closed = 1;
nodes = (
(110,393,l),
(105,393,ls),
(91,393,o),
(100,382,o),
(100,368,cs),
(100,355,o),
(91,344,o),
(104,344,cs),
(110,344,l),
(110,28,ls),
(110,10,o),
(120,0,o),
(138,0,cs),
(405,0,ls),
(507,0,o),
(589,73,o),
(589,208,cs),
(589,295,o),
(536,367,o),
(468,382,c),
(504,410,o),
(539,447,o),
(539,526,cs),
(539,626,o),
(457,700,o),
(355,700,cs),
(138,700,ls),
(120,700,o),
(110,690,o),
(110,672,cs)
);
},
{
closed = 1;
nodes = (
(165,344,l),
(394,344,ls),
(471,344,o),
(534,283,o),
(534,209,cs),
(534,91,o),
(446,50,o),
(394,50,cs),
(165,50,l)
);
},
{
closed = 1;
nodes = (
(165,650,l),
(360,650,ls),
(429,650,o),
(485,595,o),
(485,528,cs),
(485,459,o),
(429,393,o),
(360,393,cs),
(165,393,l)
);
},
{
closed = 1;
nodes = (
(93,365,ls),
(104,354,o),
(117,353,o),
(129,364,cs),
(140,376,o),
(139,389,o),
(128,400,cs),
(94,434,ls),
(82,446,o),
(69,446,o),
(58,435,cs),
(47,424,o),
(47,411,o),
(59,399,cs)
);
},
{
closed = 1;
nodes = (
(59,337,ls),
(47,325,o),
(47,312,o),
(58,301,cs),
(69,290,o),
(82,290,o),
(94,302,cs),
(128,336,ls),
(139,347,o),
(140,360,o),
(129,372,cs),
(117,383,o),
(104,382,o),
(93,371,cs)
);
}
);
width = 579;
},
{
guides = (
{
angle = -90;
pos = (258,511);
showMeasurement = 1;
},
{
pos = (559,404);
showMeasurement = 1;
}
);
layerId = m004;
shapes = (
{
closed = 1;
nodes = (
(110,393,l),
(95,393,ls),
(81,393,o),
(70,382,o),
(70,368,cs),
(70,355,o),
(81,344,o),
(94,344,cs),
(110,344,l),
(110,28,ls),
(110,10,o),
(120,0,o),
(138,0,cs),
(405,0,ls),
(507,0,o),
(589,73,o),
(589,208,cs),
(589,295,o),
(536,367,o),
(468,382,c),
(504,410,o),
(539,447,o),
(539,526,cs),
(539,626,o),
(457,700,o),
(355,700,cs),
(138,700,ls),
(120,700,o),
(110,690,o),
(110,672,cs)
);
},
{
closed = 1;
nodes = (
(165,344,l),
(394,344,ls),
(471,344,o),
(534,283,o),
(534,209,cs),
(534,91,o),
(446,50,o),
(394,50,cs),
(165,50,l)
);
},
{
closed = 1;
nodes = (
(165,650,l),
(360,650,ls),
(429,650,o),
(485,595,o),
(485,528,cs),
(485,459,o),
(429,393,o),
(360,393,cs),
(165,393,l)
);
}
);
width = 649;
}
);
unicode = 66;
},
{
color = 1;
glyphname = C;
lastChange = "2023-11-27 02:10:57 +0000";
layers = (
{
layerId = m01;
shapes = (
{
closed = 1;
nodes = (
(446,1,o),
(541,67,o),
(581,161,cs),
(588,178,o),
(581,190,o),
(564,196,cs),
(549,201,ls),
(532,207,o),
(521,201,o),
(513,185,cs),
(478,117,o),
(412,66,o),
(337,66,cs),
(225,66,o),
(121,157,o),
(121,360,cs),
(121,557,o),
(225,643,o),
(337,643,cs),
(414,643,o),
(482,589,o),
(516,519,cs),
(523,503,o),
(536,497,o),
(552,502,cs),
(567,507,ls),
(584,513,o),
(592,526,o),
(584,543,cs),
(544,640,o),
(448,708,o),
(337,708,cs),
(189,708,o),
(56,622,o),
(56,362,cs),
(56,94,o),
(189,1,o),
(337,1,cs)
);
},
{
closed = 1;
nodes = (
(36,425,ls),
(18,425,o),
(8,415,o),
(8,397,cs),
(8,388,ls),
(8,370,o),
(18,360,o),
(36,360,cs),
(166,360,ls),
(184,360,o),
(194,370,o),
(194,388,cs),
(194,397,ls),
(194,415,o),
(184,425,o),
(166,425,cs)
);
},
{
closed = 1;
nodes = (
(36,344,ls),
(18,344,o),
(8,334,o),
(8,316,cs),
(8,307,ls),
(8,289,o),
(18,279,o),
(36,279,cs),
(166,279,ls),
(184,279,o),
(194,289,o),
(194,307,cs),
(194,316,ls),
(194,334,o),
(184,344,o),
(166,344,cs)
);
},
{
closed = 1;
nodes = (
(359,318,o),
(376,333,o),
(376,352,cs),
(376,373,o),
(359,390,o),
(340,390,cs),
(320,390,o),
(304,373,o),
(304,352,cs),
(304,333,o),
(320,318,o),
(340,318,cs)
);
}
);
width = 603;
},
{
layerId = m002;
shapes = (
{
closed = 1;
nodes = (
(446,1,o),
(541,67,o),
(581,161,cs),
(588,178,o),
(581,190,o),
(564,196,cs),
(549,201,ls),
(532,207,o),
(521,201,o),
(513,185,cs),
(478,117,o),
(412,66,o),
(337,66,cs),
(225,66,o),
(121,157,o),
(121,360,cs),
(121,557,o),
(225,643,o),
(337,643,cs),
(414,643,o),
(482,589,o),
(516,519,cs),
(523,503,o),
(536,497,o),
(552,502,cs),
(567,507,ls),
(584,513,o),
(592,526,o),
(584,543,cs),
(544,640,o),
(448,708,o),
(337,708,cs),
(189,708,o),
(56,622,o),
(56,362,cs),
(56,94,o),
(189,1,o),
(337,1,cs)
);
},
{
closed = 1;
nodes = (
(36,425,ls),
(18,425,o),
(8,415,o),
(8,397,cs),
(8,388,ls),
(8,370,o),
(18,360,o),
(36,360,cs),
(166,360,ls),
(184,360,o),
(194,370,o),
(194,388,cs),
(194,397,ls),
(194,415,o),
(184,425,o),
(166,425,cs)
);
},
{
closed = 1;
nodes = (
(36,344,ls),
(18,344,o),
(8,334,o),
(8,316,cs),
(8,307,ls),
(8,289,o),
(18,279,o),
(36,279,cs),
(166,279,ls),
(184,279,o),
(194,289,o),
(194,307,cs),
(194,316,ls),
(194,334,o),
(184,344,o),
(166,344,cs)
);
},
{
closed = 1;
nodes = (
(359,318,o),
(376,333,o),
(376,352,cs),
(376,373,o),
(359,390,o),
(340,390,cs),
(320,390,o),
(304,373,o),
(304,352,cs),
(304,333,o),
(320,318,o),
(340,318,cs)
);
}
);
width = 603;
},
{
layerId = m003;
shapes = (
{
closed = 1;
nodes = (
(670,593,o),
(673,600,o),
(673,608,cs),
(673,616,o),
(669,625,o),
(660,632,cs),
(593,685,o),
(507,710,o),
(421,710,cs),
(243,710,o),
(60,605,o),
(60,351,cs),
(60,135,o),
(232,-10,o),
(421,-10,cs),
(517,-10,o),
(609,28,o),
(675,94,cs),
(682,101,o),
(686,109,o),
(686,116,cs),
(686,124,o),
(683,131,o),
(677,135,cs),
(672,139,o),
(666,141,o),
(659,141,cs),
(651,141,o),
(643,138,o),
(636,131,cs),
(579,74,o),
(501,40,o),
(421,40,cs),
(265,40,o),
(115,167,o),
(115,351,cs),
(115,567,o),
(273,660,o),
(421,660,cs),
(493,660,o),
(568,637,o),
(625,589,cs),
(632,583,o),
(639,581,o),
(647,581,cs),
(653,581,o),
(659,584,o),
(664,588,cs)
);
}
);
width = 746;
},
{
layerId = m004;
shapes = (
{
closed = 1;
nodes = (
(670,593,o),
(673,600,o),
(673,608,cs),
(673,616,o),
(669,625,o),
(660,632,cs),
(593,685,o),
(507,710,o),
(421,710,cs),
(243,710,o),
(60,605,o),
(60,351,cs),
(60,135,o),
(232,-10,o),
(421,-10,cs),
(517,-10,o),
(609,28,o),
(675,94,cs),
(682,101,o),
(686,109,o),
(686,116,cs),
(686,124,o),
(683,131,o),
(677,135,cs),
(672,139,o),
(666,141,o),
(659,141,cs),
(651,141,o),
(643,138,o),
(636,131,cs),
(579,74,o),
(501,40,o),
(421,40,cs),
(265,40,o),
(115,167,o),
(115,351,cs),
(115,567,o),
(273,660,o),
(421,660,cs),
(493,660,o),
(568,637,o),
(625,589,cs),
(632,583,o),
(639,581,o),
(647,581,cs),
(653,581,o),
(659,584,o),
(664,588,cs)
);
}
);
width = 746;
}
);
metricLeft = O;
metricRight = O;
unicode = 67;
},
{
color = 1;
glyphname = D;
lastChange = "2023-11-27 02:04:39 +0000";
layers = (
{
layerId = m01;
shapes = (
{
closed = 1;
nodes = (
(143,635,l),
(335,635,ls),
(464,635,o),
(577,554,o),
(577,351,cs),
(577,178,o),
(472,65,o),
(335,65,c),
(173,65,l),
(173,0,l),
(335,0,ls),
(510,0,o),
(642,135,o),
(642,351,cs),
(642,605,o),
(500,700,o),
(335,700,cs),
(143,700,l)
);
},
{
closed = 1;
nodes = (
(108,61,ls),
(108,43,o),
(118,33,o),
(136,33,cs),
(145,33,ls),
(163,33,o),
(173,43,o),
(173,61,cs),
(173,672,ls),
(173,690,o),
(163,700,o),
(145,700,cs),
(136,700,ls),
(118,700,o),
(108,690,o),
(108,672,cs)
);
},
{
closed = 1;
nodes = (
(93,65,ls),
(75,65,o),
(65,55,o),
(65,37,cs),
(65,28,ls),
(65,10,o),
(75,0,o),
(93,0,cs),
(188,0,ls),
(206,0,o),
(216,10,o),
(216,28,cs),
(216,37,ls),
(216,55,o),
(206,65,o),
(188,65,cs)
);
},
{
closed = 1;
nodes = (
(93,700,ls),
(75,700,o),
(65,690,o),
(65,672,cs),
(65,663,ls),
(65,645,o),
(75,635,o),
(93,635,cs),
(188,635,ls),
(206,635,o),
(216,645,o),
(216,663,cs),
(216,672,ls),
(216,690,o),
(206,700,o),
(188,700,cs)
);
},
{
closed = 1;
nodes = (
(108,252,ls),
(108,234,o),
(118,224,o),
(136,224,cs),
(145,224,ls),
(163,224,o),
(173,234,o),
(173,252,cs),
(173,463,ls),
(173,481,o),
(163,491,o),
(145,491,cs),
(136,491,ls),
(118,491,o),
(108,481,o),
(108,463,cs)
);
},
{
closed = 1;
nodes = (
(92,441,ls),
(74,441,o),
(64,431,o),
(64,413,cs),
(64,404,ls),
(64,386,o),
(74,376,o),
(92,376,cs),
(189,376,ls),
(207,376,o),
(217,386,o),
(217,404,cs),
(217,413,ls),
(217,431,o),
(207,441,o),
(189,441,cs)
);
},
{
closed = 1;
nodes = (
(92,339,ls),
(74,339,o),
(64,329,o),
(64,311,cs),
(64,302,ls),
(64,284,o),
(74,274,o),
(92,274,cs),
(189,274,ls),
(207,274,o),
(217,284,o),
(217,302,cs),
(217,311,ls),
(217,329,o),
(207,339,o),
(189,339,cs)
);
}
);
width = 666;
},
{
layerId = m002;
shapes = (
{
closed = 1;
nodes = (
(143,635,l),
(335,635,ls),
(464,635,o),
(577,554,o),
(577,351,cs),
(577,178,o),
(472,65,o),
(335,65,c),
(173,65,l),
(173,0,l),
(335,0,ls),
(510,0,o),
(642,135,o),
(642,351,cs),
(642,605,o),
(500,700,o),
(335,700,cs),
(143,700,l)
);
},
{
closed = 1;
nodes = (
(108,61,ls),
(108,43,o),
(118,33,o),
(136,33,cs),
(145,33,ls),
(163,33,o),
(173,43,o),
(173,61,cs),
(173,672,ls),
(173,690,o),
(163,700,o),
(145,700,cs),
(136,700,ls),
(118,700,o),
(108,690,o),
(108,672,cs)
);
},
{
closed = 1;
nodes = (
(93,65,ls),
(75,65,o),
(65,55,o),
(65,37,cs),
(65,28,ls),
(65,10,o),
(75,0,o),
(93,0,cs),
(188,0,ls),
(206,0,o),
(216,10,o),
(216,28,cs),
(216,37,ls),
(216,55,o),
(206,65,o),
(188,65,cs)
);
},
{
closed = 1;
nodes = (
(93,700,ls),
(75,700,o),
(65,690,o),
(65,672,cs),
(65,663,ls),
(65,645,o),
(75,635,o),
(93,635,cs),
(188,635,ls),
(206,635,o),
(216,645,o),
(216,663,cs),
(216,672,ls),
(216,690,o),
(206,700,o),
(188,700,cs)
);
},
{
closed = 1;
nodes = (
(108,252,ls),
(108,234,o),
(118,224,o),
(136,224,cs),
(145,224,ls),
(163,224,o),
(173,234,o),
(173,252,cs),
(173,463,ls),
(173,481,o),
(163,491,o),
(145,491,cs),
(136,491,ls),
(118,491,o),
(108,481,o),
(108,463,cs)
);
},
{
closed = 1;
nodes = (
(92,441,ls),
(74,441,o),
(64,431,o),
(64,413,cs),
(64,404,ls),
(64,386,o),
(74,376,o),
(92,376,cs),
(189,376,ls),
(207,376,o),
(217,386,o),
(217,404,cs),
(217,413,ls),
(217,431,o),
(207,441,o),
(189,441,cs)
);
},
{
closed = 1;
nodes = (
(92,339,ls),
(74,339,o),
(64,329,o),
(64,311,cs),
(64,302,ls),
(64,284,o),
(74,274,o),
(92,274,cs),
(189,274,ls),
(207,274,o),
(217,284,o),
(217,302,cs),
(217,311,ls),
(217,329,o),
(207,339,o),
(189,339,cs)
);
}
);
width = 666;
},
{
layerId = m003;
shapes = (
{
closed = 1;
nodes = (
(80,661,o),
(92,650,o),
(106,650,cs),
(248,650,ls),
(425,650,o),
(600,558,o),
(600,351,cs),
(600,154,o),
(485,50,o),
(248,50,cs),
(105,50,ls),
(91,50,o),
(80,39,o),
(80,25,cs),
(80,11,o),
(91,0,o),
(105,0,cs),
(248,0,ls),
(513,0,o),
(655,115,o),
(655,351,cs),
(655,605,o),
(453,700,o),
(248,700,cs),
(105,700,ls),
(91,700,o),
(80,689,o),
(80,675,cs)
);
},
{
closed = 1;
nodes = (
(163,0,o),
(173,12,o),
(173,28,cs),
(173,676,ls),
(173,692,o),
(163,700,o),
(145,700,cs),
(127,700,o),
(118,691,o),
(118,674,cs),
(118,26,ls),
(118,10,o),
(127,0,o),
(145,0,cs)
);
}
);
width = 715;
},
{
background = {
shapes = (
{
closed = 1;
nodes = (
(484,-10,o),
(655,135,o),
(655,351,cs),
(655,605,o),
(473,710,o),
(296,710,cs),
(118,710,o),
(-65,605,o),
(-65,351,cs),
(-65,135,o),
(107,-10,o),
(296,-10,cs)
);
},
{
closed = 1;
nodes = (
(140,40,o),
(-10,167,o),
(-10,351,cs),
(-10,567,o),
(148,660,o),
(296,660,cs),
(443,660,o),
(600,567,o),
(600,351,cs),
(600,167,o),
(451,40,o),
(296,40,cs)
);
}
);
};
guides = (
{
pos = (307,360);
showMeasurement = 1;
},
{
angle = 270;
pos = (307,360);
showMeasurement = 1;
}
);
layerId = m004;
shapes = (
{
closed = 1;
nodes = (
(80,661,o),
(92,650,o),
(106,650,cs),
(248,650,ls),
(425,650,o),
(600,558,o),
(600,351,cs),
(600,154,o),
(485,50,o),
(248,50,cs),
(105,50,ls),
(91,50,o),
(80,39,o),
(80,25,cs),
(80,11,o),
(91,0,o),
(105,0,cs),
(248,0,ls),
(513,0,o),
(655,115,o),
(655,351,cs),
(655,605,o),
(453,700,o),
(248,700,cs),
(105,700,ls),
(91,700,o),
(80,689,o),
(80,675,cs)
);
},
{
closed = 1;
nodes = (
(163,0,o),
(173,12,o),
(173,28,cs),
(173,676,ls),
(173,692,o),
(163,700,o),
(145,700,cs),
(127,700,o),
(118,691,o),
(118,674,cs),
(118,26,ls),
(118,10,o),
(127,0,o),
(145,0,cs)
);
}
);
width = 715;
}
);
metricLeft = H;
metricRight = O;
unicode = 68;
},
{
color = 1;
glyphname = E;
lastChange = "2023-11-27 01:59:20 +0000";
layers = (
{
layerId = m01;
shapes = (
{
closed = 1;
nodes = (
(60,382,ls),
(42,382,o),
(32,373,o),
(32,355,cs),
(32,346,ls),
(32,328,o),
(42,317,o),
(60,317,cs),
(468,317,ls),
(486,317,o),
(496,327,o),
(496,345,cs),
(496,354,ls),
(496,372,o),
(486,382,o),
(468,382,cs)
);
},
{
closed = 1;
nodes = (
(256,301,ls),
(256,283,o),
(266,273,o),
(284,273,cs),
(293,273,ls),
(311,273,o),
(321,283,o),
(321,301,cs),
(321,398,ls),
(321,416,o),
(311,426,o),
(293,426,cs),
(284,426,ls),
(266,426,o),
(256,416,o),
(256,398,cs)
);
},
{
closed = 1;
nodes = (
(358,301,ls),
(358,283,o),
(368,273,o),
(386,273,cs),
(395,273,ls),
(413,273,o),
(423,283,o),
(423,301,cs),
(423,398,ls),
(423,416,o),
(413,426,o),
(395,426,cs),
(386,426,ls),
(368,426,o),
(358,416,o),
(358,398,cs)
);
},
{
closed = 1;
nodes = (
(443,0,o),
(423,65,o),
(366,65,cs),
(254,65,o),
(150,156,o),
(150,359,cs),
(150,556,o),
(254,642,o),
(366,642,cs),
(405,642,o),
(421,707,o),
(366,707,cs),
(218,707,o),
(85,621,o),
(85,361,cs),
(85,93,o),
(218,0,o),
(366,0,cs)
);
},
{
closed = 1;
nodes = (
(463,0,ls),
(481,0,o),
(491,10,o),
(491,28,cs),
(491,37,ls),
(491,55,o),
(481,65,o),
(463,65,cs),
(366,65,ls),
(348,65,o),
(338,55,o),
(338,37,cs),
(338,28,ls),
(338,10,o),
(348,0,o),
(366,0,cs)
);
},
{
closed = 1;
nodes = (
(463,642,ls),
(481,642,o),
(491,652,o),
(491,670,cs),
(491,679,ls),
(491,697,o),
(481,707,o),
(463,707,cs),
(366,707,ls),
(348,707,o),
(338,697,o),
(338,679,cs),
(338,670,ls),
(338,652,o),
(348,642,o),
(366,642,cs)
);
},
{
closed = 1;
nodes = (
(426,582,ls),
(426,564,o),
(436,554,o),
(454,554,cs),
(463,554,ls),
(481,554,o),
(491,564,o),
(491,582,cs),
(491,679,ls),
(491,697,o),
(481,707,o),
(463,707,cs),
(454,707,ls),
(436,707,o),
(426,697,o),
(426,679,cs)
);
},
{
closed = 1;
nodes = (
(426,28,ls),
(426,10,o),
(436,0,o),
(454,0,cs),
(463,0,ls),
(481,0,o),
(491,10,o),
(491,28,cs),
(491,125,ls),
(491,143,o),
(481,153,o),
(463,153,cs),
(454,153,ls),
(436,153,o),
(426,143,o),
(426,125,cs)
);
}
);
width = 556;
},
{
layerId = m002;
shapes = (
{
closed = 1;
nodes = (
(60,382,ls),
(42,382,o),
(32,373,o),
(32,355,cs),
(32,346,ls),
(32,328,o),
(42,317,o),
(60,317,cs),
(468,317,ls),
(486,317,o),
(496,327,o),
(496,345,cs),
(496,354,ls),
(496,372,o),
(486,382,o),
(468,382,cs)
);
},
{
closed = 1;
nodes = (
(256,301,ls),
(256,283,o),
(266,273,o),
(284,273,cs),
(293,273,ls),
(311,273,o),
(321,283,o),
(321,301,cs),
(321,398,ls),
(321,416,o),
(311,426,o),
(293,426,cs),
(284,426,ls),
(266,426,o),
(256,416,o),
(256,398,cs)
);
},
{
closed = 1;
nodes = (
(358,301,ls),
(358,283,o),
(368,273,o),
(386,273,cs),
(395,273,ls),
(413,273,o),
(423,283,o),
(423,301,cs),
(423,398,ls),
(423,416,o),
(413,426,o),
(395,426,cs),
(386,426,ls),
(368,426,o),
(358,416,o),
(358,398,cs)
);
},
{
closed = 1;
nodes = (
(443,0,o),
(423,65,o),
(366,65,cs),
(254,65,o),
(150,156,o),
(150,359,cs),
(150,556,o),
(254,642,o),
(366,642,cs),
(405,642,o),
(421,707,o),
(366,707,cs),
(218,707,o),
(85,621,o),
(85,361,cs),
(85,93,o),
(218,0,o),
(366,0,cs)
);
},
{
closed = 1;
nodes = (
(463,0,ls),
(481,0,o),
(491,10,o),
(491,28,cs),
(491,37,ls),
(491,55,o),
(481,65,o),
(463,65,cs),
(366,65,ls),
(348,65,o),
(338,55,o),
(338,37,cs),
(338,28,ls),
(338,10,o),
(348,0,o),
(366,0,cs)
);
},
{
closed = 1;
nodes = (
(463,642,ls),
(481,642,o),
(491,652,o),
(491,670,cs),
(491,679,ls),
(491,697,o),
(481,707,o),
(463,707,cs),
(366,707,ls),
(348,707,o),
(338,697,o),
(338,679,cs),
(338,670,ls),
(338,652,o),
(348,642,o),
(366,642,cs)
);
},
{
closed = 1;
nodes = (
(426,582,ls),
(426,564,o),
(436,554,o),
(454,554,cs),
(463,554,ls),
(481,554,o),
(491,564,o),
(491,582,cs),
(491,679,ls),
(491,697,o),
(481,707,o),
(463,707,cs),
(454,707,ls),
(436,707,o),
(426,697,o),
(426,679,cs)
);
},
{
closed = 1;
nodes = (
(426,28,ls),
(426,10,o),
(436,0,o),
(454,0,cs),
(463,0,ls),
(481,0,o),
(491,10,o),
(491,28,cs),
(491,125,ls),
(491,143,o),
(481,153,o),
(463,153,cs),
(454,153,ls),
(436,153,o),
(426,143,o),
(426,125,cs)
);
}
);
width = 556;
},
{
layerId = m003;
shapes = (
{
closed = 1;
nodes = (
(263,6,o),
(271,6,o),
(279,6,cs),
(351,6,o),
(427,32,o),
(469,72,cs),
(475,78,o),
(478,86,o),
(479,94,cs),
(480,104,o),
(476,115,o),
(469,119,cs),
(463,124,o),
(458,125,o),
(453,126,cs),
(443,127,o),
(432,120,o),
(426,112,c),
(392,80,o),
(337,62,o),
(282,62,cs),
(275,62,o),
(267,62,o),
(260,63,c),
(158,79,o),
(115,134,o),
(115,206,cs),
(115,256,o),
(173,381,o),
(330,381,c),
(330,436,l),
(121,436,o),
(60,282,o),
(60,205,cs),
(60,107,o),
(119,27,o),
(255,7,c)
);
},
{
closed = 1;
nodes = (
(362,426,o),
(350,436,o),
(334,436,cs),
(296,436,ls),
(280,436,o),
(272,426,o),
(272,408,cs),
(272,390,o),
(281,381,o),
(298,381,cs),
(336,381,ls),
(352,381,o),
(362,390,o),
(362,408,cs)
);
},
{
closed = 1;
nodes = (
(269,655,o),
(275,655,o),
(280,655,cs),
(328,655,o),
(375,627,o),
(410,593,cs),
(418,585,o),
(426,581,o),
(435,580,cs),
(441,580,o),
(447,582,o),
(453,586,cs),
(461,591,o),
(464,600,o),
(464,609,cs),
(464,618,o),
(461,627,o),
(455,633,cs),
(413,672,o),
(348,707,o),
(275,707,cs),
(265,707,o),
(255,707,o),
(227,704,cs),
(155,697,o),
(87,637,o),
(87,555,cs),
(87,469,o),
(130,382,o),
(328,382,c),
(328,436,l),
(167,436,o),
(138,496,o),
(138,555,cs),
(138,611,o),
(196,648,o),
(248,653,cs)
);
},
{
closed = 1;
nodes = (
(364,411,ls),
(353,422,o),
(340,423,o),
(328,412,cs),
(317,400,o),
(318,387,o),
(329,376,cs),
(363,342,ls),
(375,330,o),
(388,330,o),
(399,341,cs),
(410,352,o),
(410,365,o),
(398,377,cs)
);
},
{
closed = 1;
nodes = (
(398,439,ls),
(410,451,o),
(410,464,o),
(399,475,cs),
(388,486,o),
(375,486,o),
(363,474,cs),
(329,440,ls),
(318,429,o),
(317,416,o),
(328,404,cs),
(340,393,o),
(353,394,o),
(364,405,cs)
);
}
);
width = 556;
},
{
guides = (
{
angle = -90;
pos = (309,304);
showMeasurement = 1;
}
);
layerId = m004;
shapes = (
{
closed = 1;
nodes = (
(263,6,o),
(271,6,o),
(279,6,cs),
(351,6,o),
(427,32,o),
(469,72,cs),
(475,78,o),
(478,86,o),
(479,94,cs),
(480,104,o),
(476,115,o),
(469,119,cs),
(463,124,o),
(458,125,o),
(453,126,cs),
(443,127,o),
(432,120,o),
(426,112,c),
(392,80,o),
(337,62,o),
(282,62,cs),
(275,62,o),
(267,62,o),
(260,63,c),
(158,79,o),
(115,134,o),
(115,206,cs),
(115,256,o),
(173,381,o),
(330,381,c),
(330,436,l),
(121,436,o),
(60,282,o),
(60,205,cs),
(60,107,o),
(119,27,o),
(255,7,c)
);
},
{
closed = 1;
nodes = (
(387,426,o),
(375,436,o),
(359,436,cs),
(296,436,ls),
(280,436,o),
(272,426,o),
(272,408,cs),
(272,390,o),
(281,381,o),
(298,381,cs),
(361,381,ls),
(377,381,o),
(387,390,o),
(387,408,cs)
);
},
{
closed = 1;
nodes = (
(269,655,o),
(275,655,o),
(280,655,cs),
(328,655,o),
(375,627,o),
(410,593,cs),
(418,585,o),
(426,581,o),
(435,580,cs),
(441,580,o),
(447,582,o),
(453,586,cs),
(461,591,o),
(464,600,o),
(464,609,cs),
(464,618,o),
(461,627,o),
(455,633,cs),
(413,672,o),
(348,707,o),
(275,707,cs),
(265,707,o),
(255,707,o),
(227,704,cs),
(155,697,o),
(87,637,o),
(87,555,cs),
(87,469,o),
(130,382,o),
(328,382,c),
(328,436,l),
(167,436,o),
(138,496,o),
(138,555,cs),
(138,611,o),
(196,648,o),
(248,653,cs)
);
}
);
width = 529;
}
);
unicode = 69;
},
{
color = 1;
glyphname = F;
lastChange = "2023-11-27 01:42:48 +0000";
layers = (
{
layerId = m01;
width = 600;
},
{
layerId = m002;
width = 600;
},
{
layerId = m003;
shapes = (
{
closed = 1;
nodes = (
(176,43,ls),
(187,54,o),
(188,67,o),
(177,79,cs),
(165,90,o),
(152,89,o),
(141,78,cs),
(107,44,l),
(95,32,o),
(95,19,o),
(106,8,cs),
(117,-3,o),
(130,-3,o),
(142,9,cs)
);
},
{
closed = 1;
nodes = (
(194,9,ls),
(206,-3,o),
(219,-3,o),
(230,8,c),
(241,19,o),
(241,32,o),
(229,44,cs),
(195,78,ls),
(184,89,o),
(171,90,o),
(159,79,cs),
(148,67,o),
(149,54,o),
(160,43,cs)
);
},
{
closed = 1;
nodes = (
(415,335,ls),
(441,335,o),
(451,344,o),
(451,360,cs),
(451,376,o),
(441,385,o),
(425,385,cs),
(127,385,ls),
(111,385,o),
(101,376,o),
(101,360,cs),
(101,344,o),
(110,335,o),
(127,335,cs)
);
},
{
closed = 1;
nodes = (
(186,46,o),
(196,58,o),
(196,74,c),
(196,680,l),
(196,696,o),
(186,704,o),
(168,704,c),
(150,704,o),
(141,695,o),
(141,678,c),
(141,459,o),
(141,291,o),
(141,72,c),
(141,56,o),
(150,46,o),
(168,46,c)
);
},
{
closed = 1;
nodes = (
(464,654,ls),
(490,654,o),
(500,663,o),
(500,679,cs),
(500,695,o),
(490,704,o),
(474,704,cs),
(106,704,ls),
(90,704,o),
(80,695,o),
(80,679,cs),
(80,663,o),
(89,654,o),
(106,654,cs)
);
}
);
width = 600;
},
{
background = {
shapes = (
{
closed = 1;
nodes = (
(397,335,l),
(397,385,l),
(217,385,ls),
(146,385,o),
(92,459,o),
(92,528,cs),
(92,595,o),
(148,654,o),
(217,654,cs),
(397,654,l),
(397,700,l),
(222,700,ls),
(118,700,o),
(37,626,o),
(37,526,cs),
(37,432,o),
(115,335,o),
(202,335,cs)
);
}
);
};
layerId = m004;
shapes = (
{
closed = 1;
nodes = (
(415,335,ls),
(441,335,o),
(451,344,o),
(451,360,cs),
(451,376,o),
(441,385,o),
(425,385,cs),
(127,385,ls),
(111,385,o),
(101,376,o),
(101,360,cs),
(101,344,o),
(110,335,o),
(127,335,cs)
);
},
{
closed = 1;
nodes = (
(186,-4,o),
(196,8,o),
(196,24,c),
(196,680,l),
(196,696,o),
(186,704,o),
(168,704,c),
(150,704,o),
(141,695,o),
(141,678,c),
(141,459,o),
(141,241,o),
(141,22,c),
(141,6,o),
(150,-4,o),
(168,-4,c)
);
},
{
closed = 1;
nodes = (
(464,654,ls),
(490,654,o),
(500,663,o),
(500,679,cs),
(500,695,o),
(490,704,o),
(474,704,cs),
(106,704,ls),
(90,704,o),
(80,695,o),
(80,679,cs),
(80,663,o),
(89,654,o),
(106,654,cs)
);
}
);
width = 550;
}
);
metricLeft = H;
metricRight = E;
unicode = 70;
},
{
color = 1;
glyphname = G;
lastChange = "2023-11-27 02:11:57 +0000";
layers = (
{
layerId = m01;
width = 600;
},
{
layerId = m002;
width = 600;
},
{
layerId = m003;
shapes = (
{
closed = 1;
nodes = (
(650,593,o),
(653,600,o),
(653,608,cs),
(653,616,o),
(649,609,o),
(640,616,cs),
(573,669,o),
(477,710,o),
(391,710,cs),
(233,710,o),
(60,605,o),
(60,351,cs),
(60,135,o),
(212,-10,o),
(381,-10,cs),
(537,-10,o),
(618,86,o),
(655,94,cs),
(664,96,o),
(666,109,o),
(666,116,cs),
(666,124,o),
(663,131,o),
(657,135,cs),
(652,139,o),
(646,141,o),
(639,141,cs),
(631,141,o),
(623,138,o),
(616,131,cs),
(559,74,o),
(461,40,o),
(381,40,cs),
(245,40,o),
(115,167,o),
(115,351,cs),
(115,567,o),
(263,660,o),
(391,660,cs),
(463,660,o),
(548,637,o),
(605,589,cs),
(612,583,o),
(619,581,o),
(627,581,cs),
(633,581,o),
(639,584,o),
(644,588,cs)
);
},
{
closed = 1;
nodes = (
(557,323,o),
(568,312,o),
(582,312,cs),
(692,312,ls),
(706,312,o),
(717,323,o),
(717,337,cs),
(717,351,o),
(706,362,o),
(692,362,cs),
(582,362,ls),
(568,362,o),
(557,351,o),
(557,337,cs)
);
},
{
closed = 1;
nodes = (
(657,1,o),
(667,13,o),
(667,29,cs),
(667,332,ls),
(667,348,o),
(657,356,o),
(639,356,cs),
(621,356,o),
(612,347,o),
(612,330,cs),
(612,27,ls),
(612,11,o),
(621,1,o),
(639,1,cs)
);
},
{
closed = 1;
nodes = (
(645,544,o),
(656,556,o),
(656,569,cs),
(655,644,ls),
(655,658,o),
(644,670,o),
(630,670,cs),
(617,670,o),
(605,659,o),
(605,645,cs),
(605,570,ls),
(605,556,o),
(617,544,o),
(631,544,cs)
);
}
);
width = 767;
},
{
guides = (
{
angle = -90;
pos = (363,304);
showMeasurement = 1;
},
{
pos = (477,337);
showMeasurement = 1;
}
);
layerId = m004;
shapes = (
{
closed = 1;
nodes = (
(650,593,o),
(653,600,o),
(653,608,cs),
(653,616,o),
(649,609,o),
(640,616,cs),
(573,669,o),
(477,710,o),
(391,710,cs),
(233,710,o),
(60,605,o),
(60,351,cs),
(60,135,o),
(212,-10,o),
(381,-10,cs),
(537,-10,o),
(618,86,o),
(655,94,cs),
(664,96,o),
(666,109,o),
(666,116,cs),
(666,124,o),
(663,131,o),
(657,135,cs),
(652,139,o),
(646,141,o),
(639,141,cs),
(631,141,o),
(623,138,o),
(616,131,cs),
(559,74,o),
(461,40,o),
(381,40,cs),
(245,40,o),
(115,167,o),
(115,351,cs),
(115,567,o),
(263,660,o),
(391,660,cs),
(463,660,o),
(548,637,o),
(605,589,cs),
(612,583,o),
(619,581,o),
(627,581,cs),
(633,581,o),
(639,584,o),
(644,588,cs)
);
},
{
closed = 1;
nodes = (
(557,323,o),
(568,312,o),
(582,312,cs),
(692,312,ls),
(706,312,o),
(717,323,o),
(717,337,cs),
(717,351,o),
(706,362,o),
(692,362,cs),
(582,362,ls),
(568,362,o),
(557,351,o),
(557,337,cs)
);
},
{
closed = 1;
nodes = (
(657,1,o),
(667,13,o),
(667,29,cs),
(667,332,ls),
(667,348,o),
(657,356,o),
(639,356,cs),
(621,356,o),
(612,347,o),
(612,330,cs),
(612,27,ls),
(612,11,o),
(621,1,o),
(639,1,cs)
);
},
{
closed = 1;
nodes = (
(645,544,o),
(656,556,o),
(656,569,cs),
(655,644,ls),
(655,658,o),
(644,670,o),
(630,670,cs),
(617,670,o),
(605,659,o),
(605,645,cs),
(605,570,ls),
(605,556,o),
(617,544,o),
(631,544,cs)
);
}
);
width = 767;
}
);
unicode = 71;
},
{
color = 5;
glyphname = H;
lastChange = "2023-11-27 02:08:56 +0000";
layers = (
{
guides = (
{
pos = (507,670);
},
{
pos = (185,466);
},
{
pos = (508,583);
},
{
pos = (508,553);
},
{
angle = -90;
pos = (369,360);
showMeasurement = 1;
},
{
pos = (206,30);
},
{
pos = (529,147);
},
{
pos = (529,117);
}
);
layerId = m01;
shapes = (
{
closed = 1;
nodes = (
(603,-4,o),
(613,8,o),
(613,24,cs),
(613,680,ls),
(613,696,o),
(603,704,o),
(585,704,cs),
(567,704,o),
(558,695,o),
(558,678,cs),
(558,459,o),
(558,241,o),
(558,22,cs),
(558,6,o),
(567,-4,o),
(585,-4,cs)
);
},
{
closed = 1;
nodes = (
(154,67,ls),
(170,67,o),
(180,76,o),
(180,92,cs),
(180,108,o),
(170,117,o),
(154,117,cs),
(106,117,ls),
(90,117,o),
(80,108,o),
(80,92,cs),
(80,76,o),
(90,67,o),
(106,67,cs)
);
},
{
closed = 1;
nodes = (
(204,67,ls),
(220,67,o),
(230,76,o),
(230,92,cs),
(230,108,o),
(220,117,o),
(204,117,cs),
(156,117,ls),
(140,117,o),
(130,108,o),
(130,92,cs),
(130,76,o),
(140,67,o),
(156,67,cs)
);
},
{
closed = 1;
nodes = (
(154,147,ls),
(170,147,o),
(180,156,o),
(180,172,cs),
(180,188,o),
(170,197,o),
(154,197,cs),
(106,197,ls),
(90,197,o),
(80,188,o),
(80,172,cs),
(80,156,o),
(90,147,o),
(106,147,cs)
);
},
{
closed = 1;
nodes = (
(204,147,ls),
(220,147,o),
(230,156,o),
(230,172,cs),
(230,188,o),
(220,197,o),
(204,197,cs),
(156,197,ls),
(140,197,o),
(130,188,o),
(130,172,cs),
(130,156,o),
(140,147,o),
(156,147,cs)
);
},
{
closed = 1;
nodes = (
(173,-4,o),
(183,6,o),
(183,22,cs),
(183,241,o),
(183,459,o),
(183,678,cs),
(183,694,o),
(173,704,o),
(155,704,cs),
(137,704,o),
(128,695,o),
(128,678,cs),
(128,22,ls),
(128,6,o),
(137,-4,o),
(155,-4,cs)
);
},
{
closed = 1;
nodes = (
(584,67,ls),
(600,67,o),
(610,76,o),
(610,92,cs),
(610,108,o),
(600,117,o),
(584,117,cs),
(536,117,ls),
(520,117,o),
(510,108,o),
(510,92,cs),
(510,76,o),
(520,67,o),
(536,67,cs)
);
},
{
closed = 1;
nodes = (
(330,335,ls),
(346,335,o),
(356,344,o),
(356,360,cs),
(356,376,o),
(346,385,o),
(330,385,cs),
(156,385,ls),
(140,385,o),
(130,376,o),
(130,360,cs),
(130,344,o),
(139,335,o),
(156,335,cs)
);
},
{
closed = 1;
nodes = (
(634,67,ls),
(650,67,o),
(660,76,o),
(660,92,cs),
(660,108,o),
(650,117,o),
(634,117,cs),
(586,117,ls),
(570,117,o),
(560,108,o),
(560,92,cs),
(560,76,o),
(570,67,o),
(586,67,cs)
);
},
{
closed = 1;
nodes = (
(584,147,ls),
(600,147,o),
(610,156,o),
(610,172,cs),
(610,188,o),
(600,197,o),
(584,197,cs),
(536,197,ls),
(520,197,o),
(510,188,o),
(510,172,cs),
(510,156,o),
(520,147,o),
(536,147,cs)
);
},
{
closed = 1;
nodes = (
(346,285,o),
(356,295,o),
(356,311,cs),
(356,409,ls),
(356,425,o),
(346,435,o),
(328,435,cs),
(310,435,o),
(301,425,o),
(301,409,cs),
(301,311,ls),
(301,295,o),
(310,285,o),
(328,285,cs)
);
},
{
closed = 1;
nodes = (
(634,147,ls),
(650,147,o),
(660,156,o),
(660,172,cs),
(660,188,o),
(650,197,o),
(634,197,cs),
(586,197,ls),
(570,197,o),
(560,188,o),
(560,172,cs),
(560,156,o),
(570,147,o),
(586,147,cs)
);
},
{
closed = 1;
nodes = (
(154,503,ls),
(170,503,o),
(180,512,o),
(180,528,cs),
(180,544,o),
(170,553,o),
(154,553,cs),
(106,553,ls),
(90,553,o),
(80,544,o),
(80,528,cs),
(80,512,o),
(90,503,o),
(106,503,cs)
);
},
{
closed = 1;
nodes = (
(431,285,o),
(441,295,o),
(441,311,cs),
(441,409,ls),
(441,425,o),
(431,435,o),
(413,435,cs),
(395,435,o),
(386,425,o),
(386,409,cs),
(386,311,ls),
(386,295,o),
(395,285,o),
(413,285,cs)
);
},
{
closed = 1;
nodes = (
(204,503,ls),
(220,503,o),
(230,512,o),
(230,528,cs),
(230,544,o),
(220,553,o),
(204,553,cs),
(156,553,ls),
(140,553,o),
(130,544,o),
(130,528,cs),
(130,512,o),
(140,503,o),
(156,503,cs)
);
},
{
closed = 1;
nodes = (
(154,583,ls),
(170,583,o),
(180,592,o),
(180,608,cs),
(180,624,o),
(170,633,o),
(154,633,cs),
(106,633,ls),
(90,633,o),
(80,624,o),
(80,608,cs),
(80,592,o),
(90,583,o),
(106,583,cs)
);
},
{
closed = 1;
nodes = (
(584,335,ls),
(600,335,o),
(610,344,o),
(610,360,cs),
(610,376,o),
(600,385,o),
(584,385,cs),
(412,385,ls),
(396,385,o),
(386,376,o),
(386,360,cs),
(386,344,o),
(396,335,o),
(412,335,cs)
);
},
{
closed = 1;
nodes = (
(204,583,ls),
(220,583,o),
(230,592,o),
(230,608,cs),
(230,624,o),
(220,633,o),
(204,633,cs),
(156,633,ls),
(140,633,o),
(130,624,o),
(130,608,cs),
(130,592,o),
(140,583,o),
(156,583,cs)
);
},
{
closed = 1;
nodes = (
(584,503,ls),
(600,503,o),
(610,512,o),
(610,528,cs),
(610,544,o),
(600,553,o),
(584,553,cs),
(536,553,ls),
(520,553,o),
(510,544,o),
(510,528,cs),
(510,512,o),
(520,503,o),
(536,503,cs)
);
},
{
closed = 1;
nodes = (
(634,503,ls),
(650,503,o),
(660,512,o),
(660,528,cs),
(660,544,o),
(650,553,o),
(634,553,cs),
(586,553,ls),
(570,553,o),
(560,544,o),
(560,528,cs),
(560,512,o),
(570,503,o),
(586,503,cs)
);
},
{
closed = 1;
nodes = (
(584,583,ls),
(600,583,o),
(610,592,o),
(610,608,cs),
(610,624,o),
(600,633,o),
(584,633,cs),
(536,633,ls),
(520,633,o),
(510,624,o),
(510,608,cs),
(510,592,o),
(520,583,o),
(536,583,cs)
);
},
{
closed = 1;
nodes = (
(634,583,ls),
(650,583,o),
(660,592,o),
(660,608,cs),
(660,624,o),
(650,633,o),
(634,633,cs),
(586,633,ls),
(570,633,o),
(560,624,o),
(560,608,cs),
(560,592,o),
(570,583,o),
(586,583,cs)
);
}
);
width = 740;
},
{
guides = (
{
pos = (507,670);
},
{
pos = (185,466);
},
{
pos = (508,583);
},
{
pos = (508,553);
},
{
pos = (375,360);
showMeasurement = 1;
},
{
pos = (206,30);
},
{
pos = (529,147);
},
{
pos = (529,117);
}
);
layerId = m002;
shapes = (
{
closed = 1;
nodes = (
(603,-4,o),
(613,8,o),
(613,24,c),
(613,680,l),
(613,696,o),
(603,704,o),
(585,704,c),
(567,704,o),
(558,695,o),
(558,678,c),
(558,459,o),
(558,241,o),
(558,22,c),
(558,6,o),
(567,-4,o),
(585,-4,c)
);
},
{
closed = 1;
nodes = (
(124,39,ls),
(136,27,o),
(149,27,o),
(160,38,cs),
(172,49,o),
(171,63,o),
(160,74,cs),
(126,108,ls),
(114,120,o),
(101,120,o),
(90,109,cs),
(78,98,o),
(79,84,o),
(90,73,cs)
);
},
{
closed = 1;
nodes = (
(223,73,ls),
(234,84,o),
(235,98,o),
(223,109,cs),
(212,120,o),
(199,120,o),
(187,108,cs),
(153,74,ls),
(142,63,o),
(141,49,o),
(153,38,cs),
(164,27,o),
(177,27,o),
(189,39,cs)
);
},
{
closed = 1;
nodes = (
(123,156,ls),
(135,144,o),
(148,144,o),
(159,155,cs),
(171,166,o),
(170,180,o),
(159,191,cs),
(125,225,ls),
(113,237,o),
(100,237,o),
(89,226,cs),
(77,215,o),
(78,201,o),
(89,190,cs)
);
},
{
closed = 1;
nodes = (
(223,190,ls),
(234,201,o),
(235,215,o),
(223,226,cs),
(212,237,o),
(199,237,o),
(187,225,cs),
(153,191,ls),
(142,180,o),
(141,166,o),
(153,155,cs),
(164,144,o),
(177,144,o),
(189,156,cs)
);
},
{
closed = 1;
nodes = (
(173,-4,o),
(183,6,o),
(183,22,cs),
(183,241,o),
(183,459,o),
(183,678,cs),
(183,694,o),
(173,704,o),
(155,704,cs),
(137,704,o),
(128,695,o),
(128,678,cs),
(128,22,ls),
(128,6,o),
(137,-4,o),
(155,-4,cs)
);
},
{
closed = 1;
nodes = (
(559,39,l),
(571,27,o),
(584,27,o),
(595,38,c),
(607,49,o),
(607,62,o),
(595,74,c),
(561,108,l),
(548,121,o),
(536,120,o),
(525,109,c),
(513,98,o),
(513,85,o),
(525,73,c)
);
},
{
closed = 1;
nodes = (
(330,335,ls),
(346,335,o),
(356,344,o),
(356,360,cs),
(356,376,o),
(346,385,o),
(330,385,cs),
(156,385,ls),
(140,385,o),
(130,376,o),
(130,360,cs),
(130,344,o),
(139,335,o),
(156,335,cs)
);
},
{
closed = 1;
nodes = (
(645,73,l),
(657,85,o),
(657,98,o),
(645,109,c),
(634,120,o),
(622,121,o),
(609,108,c),
(575,74,l),
(563,62,o),
(563,49,o),
(575,38,c),
(586,27,o),
(599,27,o),
(611,39,c)
);
},
{
closed = 1;
nodes = (
(559,156,l),
(571,144,o),
(584,144,o),
(595,155,c),
(607,166,o),
(607,179,o),
(595,191,c),
(561,225,l),
(548,238,o),
(536,237,o),
(525,226,c),
(513,215,o),
(513,202,o),
(525,190,c)
);
},
{
closed = 1;
nodes = (
(346,285,o),
(356,295,o),
(356,311,cs),
(356,409,ls),
(356,425,o),
(346,435,o),
(328,435,cs),
(310,435,o),
(301,425,o),
(301,409,cs),
(301,311,ls),
(301,295,o),
(310,285,o),
(328,285,cs)
);
},
{
closed = 1;
nodes = (
(645,190,l),
(657,202,o),
(657,215,o),
(645,226,c),
(634,237,o),
(622,238,o),
(609,225,c),
(575,191,l),
(563,179,o),
(563,166,o),
(575,155,c),
(586,144,o),
(599,144,o),
(611,156,c)
);
},
{
closed = 1;
nodes = (
(159,509,ls),
(170,520,o),
(171,534,o),
(160,545,cs),
(149,556,o),
(135,555,o),
(124,544,cs),
(90,510,ls),
(79,499,o),
(78,485,o),
(89,474,cs),
(100,463,o),
(114,464,o),
(125,475,cs)
);
},
{
closed = 1;
nodes = (
(431,285,o),
(441,295,o),
(441,311,c),
(441,409,l),
(441,425,o),
(431,435,o),
(413,435,c),
(395,435,o),
(386,425,o),
(386,409,c),
(386,311,l),
(386,295,o),
(395,285,o),
(413,285,c)
);
},
{
closed = 1;
nodes = (
(187,475,ls),
(198,464,o),
(212,463,o),
(223,474,cs),
(234,485,o),
(233,499,o),
(222,510,cs),
(188,544,ls),
(177,555,o),
(163,556,o),
(152,545,cs),
(141,534,o),
(142,520,o),
(153,509,cs)
);
},
{
closed = 1;
nodes = (
(159,626,ls),
(170,637,o),
(171,651,o),
(160,662,cs),
(149,673,o),
(135,672,o),
(124,661,cs),
(90,627,ls),
(79,616,o),
(78,602,o),
(89,591,cs),
(100,580,o),
(114,581,o),
(125,592,cs)
);
},
{
closed = 1;
nodes = (
(584,335,l),
(600,335,o),
(610,344,o),
(610,360,c),
(610,376,o),
(600,385,o),
(584,385,c),
(412,385,l),
(396,385,o),
(386,376,o),
(386,360,cs),
(386,344,o),
(396,335,o),
(412,335,c)
);
},
{
closed = 1;
nodes = (
(187,592,ls),
(198,581,o),
(212,580,o),
(223,591,cs),
(234,602,o),
(233,616,o),
(222,627,cs),
(188,661,ls),
(177,672,o),
(163,673,o),
(152,662,cs),
(141,651,o),
(142,637,o),
(153,626,cs)
);
},
{
closed = 1;
nodes = (
(588,509,l),
(600,521,o),
(600,533,o),
(589,545,c),
(578,556,o),
(564,555,o),
(553,544,c),
(519,510,l),
(508,499,o),
(507,485,o),
(518,474,c),
(530,463,o),
(542,463,o),
(554,475,c)
);
},
{
closed = 1;
nodes = (
(616,475,l),
(628,463,o),
(640,463,o),
(652,474,c),
(663,485,o),
(662,499,o),
(651,510,c),
(617,544,l),
(606,555,o),
(592,556,o),
(581,545,c),
(570,533,o),
(570,521,o),
(582,509,c)
);
},
{
closed = 1;
nodes = (
(588,626,l),
(600,638,o),
(600,650,o),
(589,662,c),
(578,673,o),
(564,672,o),
(553,661,c),
(519,627,l),
(508,616,o),
(507,602,o),
(518,591,c),
(530,580,o),
(542,580,o),
(554,592,c)
);
},
{
closed = 1;
nodes = (
(616,592,l),
(628,580,o),
(640,580,o),
(652,591,c),
(663,602,o),
(662,616,o),
(651,627,c),
(617,661,l),
(606,672,o),
(592,673,o),
(581,662,c),
(570,650,o),
(570,638,o),
(582,626,c)
);
}
);
width = 740;
},
{
guides = (
{
pos = (507,670);
},
{
pos = (185,466);
},
{
pos = (508,583);
},
{
pos = (508,553);
},
{
pos = (524,360);
showMeasurement = 1;
},
{
pos = (206,30);
},
{
pos = (529,147);
},
{
pos = (529,117);
}
);
layerId = m003;
shapes = (
{
closed = 1;
nodes = (
(150,43,ls),
(161,54,o),
(162,67,o),
(151,79,cs),
(139,90,o),
(126,89,o),
(115,78,cs),
(81,44,ls),
(69,32,o),
(69,19,o),
(80,8,cs),
(91,-3,o),
(104,-3,o),
(116,9,cs)
);
},
{
closed = 1;
nodes = (
(168,9,ls),
(180,-3,o),
(193,-3,o),
(204,8,cs),
(215,19,o),
(215,32,o),
(203,44,cs),
(169,78,ls),
(158,89,o),
(145,90,o),
(133,79,cs),
(122,67,o),
(123,54,o),
(134,43,cs)
);
},
{
closed = 1;
nodes = (
(651,43,ls),
(662,54,o),
(663,67,o),
(652,79,cs),
(640,90,o),
(627,89,o),
(616,78,cs),
(582,44,ls),
(570,32,o),
(570,19,o),
(581,8,cs),
(592,-3,o),
(605,-3,o),
(617,9,cs)
);
},
{
closed = 1;
nodes = (
(669,9,ls),
(681,-3,o),
(694,-3,o),
(705,8,cs),
(716,19,o),
(716,32,o),
(704,44,cs),
(670,78,ls),
(659,89,o),
(646,90,o),
(634,79,cs),
(623,67,o),
(624,54,o),
(635,43,cs)
);
},
{
closed = 1;
nodes = (
(115,622,ls),
(127,610,o),
(139,610,o),
(151,621,cs),
(162,632,o),
(161,646,o),
(150,657,cs),
(116,691,ls),
(105,702,o),
(91,703,o),
(80,692,cs),
(69,680,o),
(69,668,o),
(81,656,cs)
);
},
{
closed = 1;
nodes = (
(203,656,ls),
(215,668,o),
(215,680,o),
(204,692,cs),
(193,703,o),
(179,702,o),
(168,691,cs),
(134,657,ls),
(123,646,o),
(122,632,o),
(133,621,cs),
(145,610,o),
(157,610,o),
(169,622,cs)
);
},
{
closed = 1;
nodes = (
(616,622,ls),
(628,610,o),
(640,610,o),
(652,621,cs),
(663,632,o),
(662,646,o),
(651,657,cs),
(617,691,ls),
(606,702,o),
(592,703,o),
(581,692,cs),
(570,680,o),
(570,668,o),
(582,656,cs)
);
},
{
closed = 1;
nodes = (
(704,656,ls),
(716,668,o),
(716,680,o),
(705,692,cs),
(694,703,o),
(680,702,o),
(669,691,cs),
(635,657,ls),
(624,646,o),
(623,632,o),
(634,621,cs),
(646,610,o),
(658,610,o),
(670,622,cs)
);
},
{
closed = 1;
nodes = (
(670,335,ls),
(696,335,o),
(706,344,o),
(706,360,cs),
(706,376,o),
(696,385,o),
(680,385,cs),
(106,385,ls),
(90,385,o),
(80,376,o),
(80,360,cs),
(80,344,o),
(89,335,o),
(106,335,cs)
);
},
{
closed = 1;
nodes = (
(656,46,o),
(666,58,o),
(666,74,c),
(666,630,l),
(666,646,o),
(656,654,o),
(638,654,c),
(620,654,o),
(611,645,o),
(611,628,c),
(611,409,o),
(611,291,o),
(611,72,c),
(611,56,o),
(620,46,o),
(638,46,c)
);
},
{
closed = 1;
nodes = (
(165,46,o),
(175,58,o),
(175,74,c),
(175,630,l),
(175,646,o),
(165,654,o),
(147,654,c),
(129,654,o),
(120,645,o),
(120,628,c),
(120,409,o),
(120,291,o),
(120,72,c),
(120,56,o),
(129,46,o),
(147,46,c)
);
}
);
width = 740;
},
{
background = {
shapes = (
{
closed = 1;
nodes = (
(132,-1,o),
(143,7,o),
(145,19,cs),
(164,124,o),
(175,239,o),
(175,363,cs),
(175,478,o),
(168,583,o),
(155,677,cs),
(153,690,o),
(143,699,o),
(130,699,cs),
(129,699,ls),
(111,699,o),
(98,685,o),
(101,667,cs),
(114,576,o),
(120,476,o),
(120,363,cs),
(120,244,o),
(111,133,o),
(92,33,cs),
(88,14,o),
(101,-1,o),
(120,-1,cs)
);
},
{
closed = 1;
nodes = (
(682,0,o),
(695,15,o),
(691,35,cs),
(673,133,o),
(665,246,o),
(665,363,cs),
(665,475,o),
(671,570,o),
(684,660,cs),
(687,678,o),
(674,692,o),
(656,692,cs),
(655,692,ls),
(642,692,o),
(632,683,o),
(630,670,cs),
(617,577,o),
(610,478,o),
(610,363,cs),
(610,242,o),
(620,124,o),
(638,20,cs),
(640,8,o),
(651,0,o),
(663,0,cs)
);
}
);
};
guides = (
{
angle = -90;
pos = (391,394);
showMeasurement = 1;
},
{
pos = (511,689);
showMeasurement = 1;
},
{
pos = (494,363);
showMeasurement = 1;
}
);
layerId = m004;
shapes = (
{
closed = 1;
nodes = (
(670,335,ls),
(696,335,o),
(706,344,o),
(706,360,cs),
(706,376,o),
(696,385,o),
(680,385,cs),
(106,385,ls),
(90,385,o),
(80,376,o),
(80,360,cs),
(80,344,o),
(89,335,o),
(106,335,cs)
);
},
{
closed = 1;
nodes = (
(656,-4,o),
(666,8,o),
(666,24,c),
(666,680,l),
(666,696,o),
(656,704,o),
(638,704,c),
(620,704,o),
(611,695,o),
(611,678,c),
(611,459,o),
(611,241,o),
(611,22,c),
(611,6,o),
(620,-4,o),
(638,-4,c)
);
},
{
closed = 1;
nodes = (
(165,-4,o),
(175,8,o),
(175,24,c),
(175,680,l),
(175,696,o),
(165,704,o),
(147,704,c),
(129,704,o),
(120,695,o),
(120,678,c),
(120,459,o),
(120,241,o),
(120,22,c),
(120,6,o),
(129,-4,o),
(147,-4,c)
);
}
);
width = 786;
}
);
unicode = 72;
},
{
color = 1;
glyphname = I;
lastChange = "2023-11-27 02:06:06 +0000";
layers = (
{
layerId = m01;
width = 600;
},
{
layerId = m002;
width = 600;
},
{
layerId = m003;
shapes = (
{
closed = 1;
nodes = (
(185,6,o),
(195,16,o),
(195,32,cs),
(195,674,ls),
(195,690,o),
(185,700,o),
(167,700,cs),
(149,700,o),
(140,691,o),
(140,674,cs),
(140,32,ls),
(140,16,o),
(149,6,o),
(167,6,cs)
);
},
{
closed = 1;
nodes = (
(249,650,ls),
(265,650,o),
(275,659,o),
(275,675,cs),
(275,691,o),
(265,700,o),
(249,700,cs),
(86,700,ls),
(70,700,o),
(60,691,o),
(60,675,cs),
(60,659,o),
(70,650,o),
(86,650,cs)
);
},
{
closed = 1;
nodes = (
(249,0,ls),
(265,0,o),
(275,9,o),
(275,25,cs),
(275,41,o),
(265,50,o),
(249,50,cs),
(86,50,ls),
(70,50,o),
(60,41,o),
(60,25,cs),
(60,9,o),
(70,0,o),
(86,0,cs)
);
}
);
width = 335;
},
{
layerId = m004;
shapes = (
{
closed = 1;
nodes = (
(185,6,o),
(195,16,o),
(195,32,cs),
(195,674,ls),
(195,690,o),
(185,700,o),
(167,700,cs),
(149,700,o),
(140,691,o),
(140,674,cs),
(140,32,ls),
(140,16,o),
(149,6,o),
(167,6,cs)
);
},
{
closed = 1;
nodes = (
(249,650,ls),
(265,650,o),
(275,659,o),
(275,675,cs),
(275,691,o),
(265,700,o),
(249,700,cs),
(86,700,ls),
(70,700,o),
(60,691,o),
(60,675,cs),
(60,659,o),
(70,650,o),
(86,650,cs)
);
},
{
closed = 1;
nodes = (
(249,0,ls),
(265,0,o),
(275,9,o),
(275,25,cs),
(275,41,o),
(265,50,o),
(249,50,cs),
(86,50,ls),
(70,50,o),
(60,41,o),
(60,25,cs),
(60,9,o),
(70,0,o),
(86,0,cs)
);
}
);
width = 335;
}
);
unicode = 73;
},
{
color = 1;
glyphname = M;
lastChange = "2023-11-27 01:45:45 +0000";
layers = (
{
layerId = m01;
width = 779;
},
{
layerId = m002;
width = 779;
},
{
layerId = m003;
shapes = (
{
closed = 1;
nodes = (
(115,40,o),
(125,52,o),
(125,68,cs),
(125,428,ls),
(125,585,o),
(179,653,o),
(256,653,cs),
(326,653,o),
(391,585,o),
(391,428,c),
(446,428,l),
(446,637,o),
(352,708,o),
(255,708,cs),
(151,708,o),
(70,628,o),
(70,436,cs),
(70,66,ls),
(70,50,o),
(79,40,o),
(97,40,cs)
);
},
{
closed = 1;
nodes = (
(761,40,o),
(771,52,o),
(771,68,cs),
(771,438,ls),
(771,652,o),
(691,710,o),
(595,710,cs),
(499,710,o),
(408,628,o),
(408,430,c),
(446,430,l),
(446,591,o),
(526,659,o),
(595,659,cs),
(665,659,o),
(716,601,o),
(716,430,cs),
(716,66,ls),
(716,50,o),
(725,40,o),
(743,40,cs)
);
},
{
closed = 1;
nodes = (
(436,40,o),
(446,52,o),
(446,68,cs),
(446,462,ls),
(446,478,o),
(436,486,o),
(418,486,cs),
(400,486,o),
(391,477,o),
(391,460,cs),
(391,66,ls),
(391,50,o),
(400,40,o),
(418,40,cs)
);
},
{
closed = 1;
nodes = (
(756,43,ls),
(767,54,o),
(768,67,o),
(757,79,cs),
(745,90,o),
(732,89,o),
(721,78,cs),
(687,44,ls),
(675,32,o),
(675,19,o),
(686,8,cs),
(697,-3,o),
(710,-3,o),
(722,9,cs)
);
},
{
closed = 1;
nodes = (
(774,9,ls),
(786,-3,o),
(799,-3,o),
(810,8,cs),
(821,19,o),
(821,32,o),
(809,44,cs),
(775,78,ls),
(764,89,o),
(751,90,o),
(739,79,cs),
(728,67,o),
(729,54,o),
(740,43,cs)
);
},
{
closed = 1;
nodes = (
(421,43,ls),
(432,54,o),
(433,67,o),
(422,79,cs),
(410,90,o),
(397,89,o),
(386,78,cs),
(352,44,ls),
(340,32,o),
(340,19,o),
(351,8,cs),
(362,-3,o),
(375,-3,o),
(387,9,cs)
);
},
{
closed = 1;
nodes = (
(449,9,ls),
(461,-3,o),
(474,-3,o),
(485,8,cs),
(496,19,o),
(496,32,o),
(484,44,cs),
(450,78,ls),
(439,89,o),
(426,90,o),
(414,79,cs),
(403,67,o),
(404,54,o),
(415,43,cs)
);
},
{
closed = 1;
nodes = (
(100,43,ls),
(111,54,o),
(112,67,o),
(101,79,cs),
(89,90,o),
(76,89,o),
(65,78,cs),
(31,44,l),
(19,32,o),
(19,19,o),
(30,8,cs),
(41,-3,o),
(54,-3,o),
(66,9,cs)
);
},
{
closed = 1;
nodes = (
(118,9,ls),
(130,-3,o),
(143,-3,o),
(154,8,c),
(165,19,o),
(165,32,o),
(153,44,cs),
(119,78,ls),
(108,89,o),
(95,90,o),
(83,79,cs),
(72,67,o),
(73,54,o),
(84,43,cs)
);
}
);
width = 841;
},
{
guides = (
{
angle = -90;
pos = (404,394);
showMeasurement = 1;
},
{
pos = (533,384);
showMeasurement = 1;
}
);
layerId = m004;
shapes = (
{
closed = 1;
nodes = (
(115,0,o),
(125,12,o),
(125,28,c),
(125,428,ls),
(125,585,o),
(179,653,o),
(256,653,cs),
(326,653,o),
(391,585,o),
(391,428,c),
(446,428,l),
(446,637,o),
(352,708,o),
(255,708,cs),
(151,708,o),
(70,628,o),
(70,436,cs),
(70,26,l),
(70,10,o),
(79,0,o),
(97,0,c)
);
},
{
closed = 1;
nodes = (
(761,0,o),
(771,12,o),
(771,28,c),
(771,438,ls),
(771,652,o),
(691,710,o),
(595,710,cs),
(499,710,o),
(408,628,o),
(408,430,c),
(446,430,l),
(446,591,o),
(526,659,o),
(595,659,cs),
(665,659,o),
(716,601,o),
(716,430,cs),
(716,26,l),
(716,10,o),
(725,0,o),
(743,0,c)
);
},
{
closed = 1;
nodes = (
(436,0,o),
(446,12,o),
(446,28,c),
(446,462,ls),
(446,478,o),
(436,486,o),
(418,486,cs),
(400,486,o),
(391,477,o),
(391,460,cs),
(391,26,l),
(391,10,o),
(400,0,o),
(418,0,c)
);
}
);
width = 841;
}
);
unicode = 77;
},
{
color = 5;
glyphname = N;
lastChange = "2023-11-27 02:08:40 +0000";
layers = (
{
layerId = m01;
shapes = (
{
closed = 1;
nodes = (
(341,369,o),
(340,383,o),
(329,394,cs),
(125,598,ls),
(114,609,o),
(100,610,o),
(89,599,cs),
(77,587,o),
(77,575,o),
(89,563,cs),
(293,359,ls),
(305,347,o),
(318,347,o),
(329,358,cs)
);
},
{
closed = 1;
nodes = (
(153,0,ls),
(168,0,o),
(180,11,o),
(180,25,cs),
(180,39,o),
(168,50,o),
(153,50,cs),
(57,50,ls),
(42,50,o),
(30,39,o),
(30,25,cs),
(30,11,o),
(42,0,o),
(57,0,cs)
);
},
{
closed = 1;
nodes = (
(123,24,o),
(133,35,o),
(133,50,cs),
(133,650,ls),
(133,666,o),
(123,676,o),
(105,676,cs),
(87,676,o),
(78,668,o),
(78,651,cs),
(78,51,ls),
(78,34,o),
(87,25,o),
(105,25,cs)
);
},
{
closed = 1;
nodes = (
(623,0,ls),
(638,0,o),
(650,11,o),
(650,25,cs),
(650,39,o),
(638,50,o),
(623,50,cs),
(527,50,ls),
(512,50,o),
(500,39,o),
(500,25,cs),
(500,11,o),
(512,0,o),
(527,0,cs)
);
},
{
closed = 1;
nodes = (
(270,311,o),
(284,312,o),
(295,323,cs),
(364,393,ls),
(375,404,o),
(376,417,o),
(365,429,cs),
(354,440,o),
(340,439,o),
(329,428,cs),
(259,359,ls),
(247,348,o),
(247,334,o),
(259,323,cs)
);
},
{
closed = 1;
nodes = (
(327,255,o),
(339,256,o),
(351,267,cs),
(421,336,ls),
(432,347,o),
(433,361,o),
(421,372,cs),
(410,383,o),
(397,383,o),
(385,371,cs),
(316,302,ls),
(305,291,o),
(304,277,o),
(315,266,cs)
);
},
{
closed = 1;
nodes = (
(603,117,o),
(602,131,o),
(591,142,cs),
(387,336,ls),
(375,348,o),
(362,348,o),
(351,337,cs),
(339,325,o),
(339,313,o),
(351,301,cs),
(555,107,ls),
(567,95,o),
(580,95,o),
(591,106,cs)
);
},
{
closed = 1;
nodes = (
(153,650,ls),
(168,650,o),
(180,661,o),
(180,675,cs),
(180,689,o),
(168,700,o),
(153,700,cs),
(57,700,ls),
(42,700,o),
(30,689,o),
(30,675,cs),
(30,661,o),
(42,650,o),
(57,650,cs)
);
},
{
closed = 1;
nodes = (
(593,24,o),
(603,35,o),
(603,50,cs),
(603,650,ls),
(603,666,o),
(593,676,o),
(575,676,cs),
(557,676,o),
(548,668,o),
(548,651,cs),
(548,51,ls),
(548,34,o),
(557,25,o),
(575,25,cs)
);
},
{
closed = 1;
nodes = (
(623,650,ls),
(638,650,o),
(650,661,o),
(650,675,cs),
(650,689,o),
(638,700,o),
(623,700,cs),
(527,700,ls),
(512,700,o),
(500,689,o),
(500,675,cs),
(500,661,o),
(512,650,o),
(527,650,cs)
);
}
);
width = 680;
},
{
layerId = m002;
shapes = (
{
closed = 1;
nodes = (
(381,329,o),
(380,343,o),
(369,354,cs),
(125,598,ls),
(114,609,o),
(100,610,o),
(89,599,cs),
(77,587,o),
(77,575,o),
(89,563,cs),
(333,319,ls),
(345,307,o),
(358,307,o),
(369,318,cs)
);
},
{
closed = 1;
nodes = (
(153,0,ls),
(168,0,o),
(180,11,o),
(180,25,cs),
(180,39,o),
(168,50,o),
(153,50,cs),
(57,50,ls),
(42,50,o),
(30,39,o),
(30,25,cs),
(30,11,o),
(42,0,o),
(57,0,cs)
);
},
{
closed = 1;
nodes = (
(123,24,o),
(133,35,o),
(133,50,cs),
(133,650,ls),
(133,666,o),
(123,676,o),
(105,676,cs),
(87,676,o),
(78,668,o),
(78,651,cs),
(78,51,ls),
(78,34,o),
(87,25,o),
(105,25,cs)
);
},
{
closed = 1;
nodes = (
(623,0,ls),
(638,0,o),
(650,11,o),
(650,25,cs),
(650,39,o),
(638,50,o),
(623,50,cs),
(527,50,ls),
(512,50,o),
(500,39,o),
(500,25,cs),
(500,11,o),
(512,0,o),
(527,0,cs)
);
},
{
closed = 1;
nodes = (
(270,311,o),
(284,312,o),
(295,323,cs),
(364,393,ls),
(375,404,o),
(376,417,o),
(365,429,cs),
(354,440,o),
(340,439,o),
(329,428,cs),
(259,359,ls),
(247,348,o),
(247,334,o),
(259,323,cs)
);
},
{
closed = 1;
nodes = (
(327,255,o),
(339,256,o),
(351,267,cs),
(421,336,ls),
(432,347,o),
(433,361,o),
(421,372,cs),
(410,383,o),
(397,383,o),
(385,371,cs),
(316,302,ls),
(305,291,o),
(304,277,o),
(315,266,cs)
);
},
{
closed = 1;
nodes = (
(603,117,o),
(602,131,o),
(591,142,cs),
(347,376,ls),
(335,388,o),
(322,388,o),
(311,377,cs),
(299,365,o),
(299,353,o),
(311,341,cs),
(555,107,ls),
(567,95,o),
(580,95,o),
(591,106,cs)
);
},
{
closed = 1;
nodes = (
(153,650,ls),
(168,650,o),
(180,661,o),
(180,675,cs),
(180,689,o),
(168,700,o),
(153,700,cs),
(57,700,ls),
(42,700,o),
(30,689,o),
(30,675,cs),
(30,661,o),
(42,650,o),
(57,650,cs)
);
},
{
closed = 1;
nodes = (
(593,24,o),
(603,35,o),
(603,50,cs),
(603,650,ls),
(603,666,o),
(593,676,o),
(575,676,cs),
(557,676,o),
(548,668,o),
(548,651,cs),
(548,51,ls),
(548,34,o),
(557,25,o),
(575,25,cs)
);
},
{
closed = 1;
nodes = (
(623,650,ls),
(638,650,o),
(650,661,o),
(650,675,cs),
(650,689,o),
(638,700,o),
(623,700,cs),
(527,700,ls),
(512,700,o),
(500,689,o),
(500,675,cs),
(500,661,o),
(512,650,o),
(527,650,cs)
);
}
);
width = 680;
},
{
layerId = m003;
shapes = (
{
closed = 1;
nodes = (
(611,40,o),
(621,52,o),
(621,68,cs),
(621,438,ls),
(621,652,o),
(452,710,o),
(355,710,cs),
(239,710,o),
(83,628,o),
(83,430,c),
(131,430,l),
(131,591,o),
(275,659,o),
(364,659,cs),
(446,659,o),
(566,601,o),
(566,430,cs),
(566,66,ls),
(566,50,o),
(575,40,o),
(593,40,cs)
);
},
{
closed = 1;
nodes = (
(121,40,o),
(131,52,o),
(131,68,cs),
(131,676,ls),
(131,692,o),
(121,700,o),
(103,700,cs),
(85,700,o),
(76,691,o),
(76,674,cs),
(76,66,ls),
(76,50,o),
(85,40,o),
(103,40,cs)
);
},
{
closed = 1;
nodes = (
(25,32,o),
(25,20,o),
(36,8,cs),
(47,-3,o),
(61,-2,o),
(72,9,cs),
(106,43,ls),
(117,54,o),
(118,68,o),
(107,79,cs),
(95,90,o),
(83,90,o),
(71,78,cs),
(37,44,ls)
);
},
{
closed = 1;
nodes = (
(113,90,o),
(101,90,o),
(89,79,cs),
(78,68,o),
(79,54,o),
(90,43,cs),
(124,9,ls),
(135,-2,o),
(149,-3,o),
(160,8,cs),
(171,20,o),
(171,32,o),
(159,44,cs),
(125,78,ls)
);
},
{
closed = 1;
nodes = (
(525,32,o),
(525,20,o),
(536,8,cs),
(547,-3,o),
(561,-2,o),
(572,9,cs),
(606,43,ls),
(617,54,o),
(618,68,o),
(607,79,cs),
(595,90,o),
(583,90,o),
(571,78,cs),
(537,44,ls)
);
},
{
closed = 1;
nodes = (
(613,90,o),
(601,90,o),
(589,79,cs),
(578,68,o),
(579,54,o),
(590,43,cs),
(624,9,ls),
(635,-2,o),
(649,-3,o),
(660,8,cs),
(671,20,o),
(671,32,o),
(659,44,cs),
(625,78,ls)
);
}
);
width = 680;
},
{
background = {
shapes = (
{
closed = 1;
nodes = (
(618,21,o),
(615,33,o),
(606,46,cs),
(126,690,ls),
(117,702,o),
(101,702,o),
(90,691,cs),
(78,679,o),
(81,668,o),
(90,655,cs),
(570,11,ls),
(580,-3,o),
(595,-1,o),
(606,10,cs)
);
},
{
closed = 1;
nodes = (
(120,0,o),
(130,12,o),
(130,28,c),
(130,676,l),
(130,692,o),
(120,700,o),
(102,700,c),
(84,700,o),
(75,691,o),
(75,674,c),
(75,455,o),
(75,245,o),
(75,26,c),
(75,10,o),
(84,0,o),
(102,0,c)
);
},
{
closed = 1;
nodes = (
(612,0,o),
(622,12,o),
(622,28,c),
(622,676,l),
(622,692,o),
(612,700,o),
(594,700,c),
(576,700,o),
(567,691,o),
(567,674,c),
(567,455,o),
(567,245,o),
(567,26,c),
(567,10,o),
(576,0,o),
(594,0,c)
);
}
);
};
layerId = m004;
shapes = (
{
closed = 1;
nodes = (
(611,0,o),
(621,12,o),
(621,28,cs),
(621,438,ls),
(621,652,o),
(452,710,o),
(355,710,cs),
(239,710,o),
(83,628,o),
(83,430,c),
(131,430,l),
(131,591,o),
(275,659,o),
(364,659,cs),
(446,659,o),
(566,601,o),
(566,430,cs),
(566,26,ls),
(566,10,o),
(575,0,o),
(593,0,cs)
);
},
{
closed = 1;
nodes = (
(121,0,o),
(131,12,o),
(131,28,cs),
(131,676,ls),
(131,692,o),
(121,700,o),
(103,700,cs),
(85,700,o),
(76,691,o),
(76,674,cs),
(76,26,ls),
(76,10,o),
(85,0,o),
(103,0,cs)
);
}
);
width = 697;
}
);
unicode = 78;
},
{
color = 5;
glyphname = O;
lastChange = "2023-11-26 20:16:54 +0000";
layers = (
{
guides = (
{
pos = (423,351);
showMeasurement = 1;
},
{
angle = 270;
pos = (422,350);
showMeasurement = 1;
}
);
layerId = m01;
shapes = (
{
closed = 1;
nodes = (
(609,-10,o),
(780,135,o),
(780,351,cs),
(780,605,o),
(598,710,o),
(421,710,cs),
(243,710,o),
(60,605,o),
(60,351,cs),
(60,135,o),
(232,-10,o),
(421,-10,cs)
);
},
{
closed = 1;
nodes = (
(265,40,o),
(115,167,o),
(115,351,cs),
(115,567,o),
(273,660,o),
(421,660,cs),
(568,660,o),
(725,567,o),
(725,351,cs),
(725,167,o),
(576,40,o),
(421,40,cs)
);
},
{
closed = 1;
nodes = (
(396,275,o),
(405,285,o),
(405,301,cs),
(405,399,ls),
(405,415,o),
(396,425,o),
(380,425,cs),
(364,425,o),
(355,415,o),
(355,399,cs),
(355,301,ls),
(355,285,o),
(364,275,o),
(380,275,cs)
);
},
{
closed = 1;
nodes = (
(476,275,o),
(485,285,o),
(485,301,cs),
(485,399,ls),
(485,415,o),
(476,425,o),
(460,425,cs),
(444,425,o),
(435,415,o),
(435,399,cs),
(435,301,ls),
(435,285,o),
(444,275,o),
(460,275,cs)
);
},
{
closed = 1;
nodes = (
(509,325,ls),
(525,325,o),
(535,334,o),
(535,350,cs),
(535,366,o),
(525,375,o),
(509,375,cs),
(461,375,ls),
(445,375,o),
(435,366,o),
(435,350,cs),
(435,334,o),
(444,325,o),
(461,325,cs)
);
},
{
closed = 1;
nodes = (
(379,325,ls),
(395,325,o),
(405,334,o),
(405,350,cs),
(405,366,o),
(395,375,o),
(379,375,cs),
(331,375,ls),
(315,375,o),
(305,366,o),
(305,350,cs),
(305,334,o),
(314,325,o),
(331,325,cs)
);
}
);
width = 840;
},
{
guides = (
{
pos = (438,350);
showMeasurement = 1;
},
{
angle = 270;
pos = (422,350);
showMeasurement = 1;
}
);
layerId = m002;
shapes = (
{
closed = 1;
nodes = (
(609,-10,o),
(780,135,o),
(780,351,cs),
(780,605,o),
(598,710,o),
(421,710,cs),
(243,710,o),
(60,605,o),
(60,351,cs),
(60,135,o),
(232,-10,o),
(421,-10,cs)
);
},
{
closed = 1;
nodes = (
(265,40,o),
(115,167,o),
(115,351,cs),
(115,567,o),
(273,660,o),
(421,660,cs),
(568,660,o),
(725,567,o),
(725,351,cs),
(725,167,o),
(576,40,o),
(421,40,cs)
);
},
{
closed = 1;
nodes = (
(436,275,o),
(445,285,o),
(445,301,cs),
(445,399,ls),
(445,415,o),
(436,425,o),
(420,425,cs),
(404,425,o),
(395,415,o),
(395,399,cs),
(395,301,ls),
(395,285,o),
(404,275,o),
(420,275,cs)
);
},
{
closed = 1;
nodes = (
(436,275,o),
(445,285,o),
(445,301,cs),
(445,399,ls),
(445,415,o),
(436,425,o),
(420,425,cs),
(404,425,o),
(395,415,o),
(395,399,cs),
(395,301,ls),
(395,285,o),
(404,275,o),
(420,275,cs)
);
},
{
closed = 1;
nodes = (
(469,325,ls),
(485,325,o),
(495,334,o),
(495,350,cs),
(495,366,o),
(485,375,o),
(469,375,cs),
(421,375,ls),
(405,375,o),
(395,366,o),
(395,350,cs),
(395,334,o),
(404,325,o),
(421,325,cs)
);
},
{
closed = 1;
nodes = (
(419,325,ls),
(435,325,o),
(445,334,o),
(445,350,cs),
(445,366,o),
(435,375,o),
(419,375,cs),
(371,375,ls),
(355,375,o),
(345,366,o),
(345,350,cs),
(345,334,o),
(354,325,o),
(371,325,cs)
);
}
);
width = 840;
},
{
guides = (
{
pos = (422,350);
showMeasurement = 1;
},
{
angle = 270;
pos = (422,350);
showMeasurement = 1;
}
);
layerId = m003;
shapes = (
{
closed = 1;
nodes = (
(609,-10,o),
(780,135,o),
(780,351,cs),
(780,605,o),
(598,710,o),
(421,710,cs),
(243,710,o),
(60,605,o),
(60,351,cs),
(60,135,o),
(232,-10,o),
(421,-10,cs)
);
},
{
closed = 1;
nodes = (
(265,40,o),
(115,167,o),
(115,351,cs),
(115,567,o),
(273,660,o),
(421,660,cs),
(568,660,o),
(725,567,o),
(725,351,cs),
(725,167,o),
(576,40,o),
(421,40,cs)
);
},
{
closed = 1;
nodes = (
(378,286,o),
(392,286,o),
(403,298,cs),
(472,367,ls),
(484,378,o),
(484,392,o),
(473,403,cs),
(462,414,o),
(448,414,o),
(437,402,cs),
(368,333,ls),
(356,322,o),
(356,308,o),
(367,297,cs)
);
},
{
closed = 1;
nodes = (
(378,286,o),
(392,286,o),
(403,298,cs),
(472,367,ls),
(484,378,o),
(484,392,o),
(473,403,cs),
(462,414,o),
(448,414,o),
(437,402,cs),
(368,333,ls),
(356,322,o),
(356,308,o),
(367,297,cs)
);
},
{
closed = 1;
nodes = (
(437,298,ls),
(448,286,o),
(462,286,o),
(473,297,cs),
(484,308,o),
(484,322,o),
(472,333,cs),
(438,367,ls),
(427,378,o),
(414,379,o),
(402,368,cs),
(391,356,o),
(391,344,o),
(403,332,cs)
);
},
{
closed = 1;
nodes = (
(402,333,ls),
(413,322,o),
(426,321,o),
(438,332,cs),
(449,344,o),
(448,357,o),
(437,368,cs),
(403,402,ls),
(392,414,o),
(378,414,o),
(367,403,cs),
(356,392,o),
(356,379,o),
(368,367,cs)
);
}
);
width = 840;
},
{
guides = (
{
pos = (423,351);
showMeasurement = 1;
},
{
angle = 270;
pos = (422,350);
showMeasurement = 1;
}
);
layerId = m004;
shapes = (
{
closed = 1;
nodes = (
(609,-10,o),
(780,135,o),
(780,351,cs),
(780,605,o),
(598,710,o),
(421,710,cs),
(243,710,o),
(60,605,o),
(60,351,cs),
(60,135,o),
(232,-10,o),
(421,-10,cs)
);
},
{
closed = 1;
nodes = (
(265,40,o),
(115,167,o),
(115,351,cs),
(115,567,o),
(273,660,o),
(421,660,cs),
(568,660,o),
(725,567,o),
(725,351,cs),
(725,167,o),
(576,40,o),
(421,40,cs)
);
}
);
width = 840;
}
);
unicode = 79;
},
{
color = 1;
glyphname = R;
lastChange = "2023-11-27 02:10:05 +0000";
layers = (
{
layerId = m01;
width = 600;
},
{
layerId = m002;
width = 600;
},
{
layerId = m003;
shapes = (
{
closed = 1;
nodes = (
(549,41,o),
(562,52,o),
(556,80,cs),
(528,215,ls),
(512,291,o),
(472,332,o),
(434,356,c),
(494,378,o),
(549,432,o),
(549,526,cs),
(549,626,o),
(466,700,o),
(364,700,cs),
(147,700,ls),
(129,700,o),
(119,690,o),
(119,672,cs),
(119,393,l),
(104,393,ls),
(90,393,o),
(79,382,o),
(79,368,cs),
(79,355,o),
(90,344,o),
(103,344,cs),
(305,344,ls),
(381,344,o),
(449,319,o),
(473,209,cs),
(504,67,ls),
(507,51,o),
(513,41,o),
(531,41,cs)
);
},
{
closed = 1;
nodes = (
(174,650,l),
(369,650,ls),
(438,650,o),
(494,595,o),
(494,528,cs),
(494,459,o),
(438,393,o),
(369,393,cs),
(174,393,l)
);
},
{
closed = 1;
nodes = (
(164,40,o),
(174,52,o),
(174,68,cs),
(174,676,ls),
(174,692,o),
(164,700,o),
(146,700,cs),
(128,700,o),
(119,691,o),
(119,674,cs),
(119,66,ls),
(119,50,o),
(128,40,o),
(146,40,cs)
);
},
{
closed = 1;
nodes = (
(154,43,ls),
(165,54,o),
(166,67,o),
(155,79,cs),
(143,90,o),
(130,89,o),
(119,78,cs),
(85,44,l),
(73,32,o),
(73,19,o),
(84,8,cs),
(95,-3,o),
(108,-3,o),
(120,9,cs)
);
},
{
closed = 1;
nodes = (
(162,9,ls),
(174,-3,o),
(187,-3,o),
(198,8,c),
(209,19,o),
(209,32,o),
(197,44,cs),
(163,78,ls),
(152,89,o),
(139,90,o),
(127,79,cs),
(116,67,o),
(117,54,o),
(128,43,cs)
);
},
{
closed = 1;
nodes = (
(546,48,ls),
(557,59,o),
(558,72,o),
(547,84,cs),
(535,95,o),
(522,94,o),
(511,83,cs),
(477,49,l),
(465,37,o),
(465,24,o),
(476,13,cs),
(487,2,o),
(500,2,o),
(512,14,cs)
);
},
{
closed = 1;
nodes = (
(554,14,ls),
(566,2,o),
(579,2,o),
(590,13,c),
(601,24,o),
(601,37,o),
(589,49,cs),
(555,83,ls),
(544,94,o),
(531,95,o),
(520,84,cs),
(508,72,o),
(509,59,o),
(520,48,cs)
);
}
);
width = 626;
},
{
guides = (
{
angle = -90;
pos = (356,485);
showMeasurement = 1;
},
{
pos = (621,526);
showMeasurement = 1;
}
);
layerId = m004;
shapes = (
{
closed = 1;
nodes = (
(555,0,o),
(568,11,o),
(562,39,cs),
(525,215,ls),
(509,291,o),
(469,332,o),
(431,356,c),
(491,378,o),
(546,432,o),
(546,526,cs),
(546,626,o),
(463,700,o),
(361,700,cs),
(144,700,ls),
(126,700,o),
(116,690,o),
(116,672,cs),
(116,393,l),
(101,393,ls),
(87,393,o),
(76,382,o),
(76,368,cs),
(76,355,o),
(87,344,o),
(100,344,cs),
(302,344,ls),
(378,344,o),
(446,317,o),
(470,209,cs),
(510,26,ls),
(513,10,o),
(519,0,o),
(537,0,cs)
);
},
{
closed = 1;
nodes = (
(171,650,l),
(366,650,ls),
(435,650,o),
(491,595,o),
(491,528,cs),
(491,459,o),
(435,393,o),
(366,393,cs),
(171,393,l)
);
},
{
closed = 1;
nodes = (
(161,0,o),
(171,12,o),
(171,28,cs),
(171,676,ls),
(171,692,o),
(161,700,o),
(143,700,cs),
(125,700,o),
(116,691,o),
(116,674,cs),
(116,26,ls),
(116,10,o),
(125,0,o),
(143,0,cs)
);
}
);
width = 623;
}
);
unicode = 82;
},
{
color = 1;
glyphname = S;
lastChange = "2023-11-27 02:05:40 +0000";
layers = (
{
layerId = m01;
width = 600;
},
{
layerId = m002;
width = 600;
},
{
layerId = m003;
shapes = (
{
closed = 1;
nodes = (
(417,-10,o),
(527,62,o),
(527,190,cs),
(527,430,o),
(140,370,o),
(140,530,cs),
(140,606,o),
(208,654,o),
(297,655,cs),
(365,656,o),
(417,612,o),
(435,574,cs),
(443,557,o),
(451,546,o),
(469,545,cs),
(471,545,o),
(474,545,o),
(477,546,cs),
(487,548,o),
(494,554,o),
(494,569,cs),
(494,573,o),
(493,578,o),
(492,582,cs),
(473,657,o),
(384,710,o),
(297,710,cs),
(177,710,o),
(89,639,o),
(89,528,cs),
(89,317,o),
(477,377,o),
(477,190,cs),
(477,102,o),
(391,45,o),
(294,45,cs),
(213,45,o),
(140,85,o),
(122,163,cs),
(117,184,o),
(109,195,o),
(90,195,cs),
(74,195,o),
(65,187,o),
(65,171,cs),
(65,167,o),
(65,163,o),
(66,159,cs),
(89,23,o),
(202,-10,o),
(289,-10,cs)
);
}
);
width = 592;
},
{
guides = (
{
angle = -90;
pos = (297,271);
showMeasurement = 1;
},
{
pos = (361,515);
showMeasurement = 1;
},
{
pos = (361,188);
showMeasurement = 1;
}
);
layerId = m004;
shapes = (
{
closed = 1;
nodes = (
(417,-10,o),
(527,62,o),
(527,190,cs),
(527,430,o),
(140,370,o),
(140,530,cs),
(140,606,o),
(208,654,o),
(297,655,cs),
(365,656,o),
(417,612,o),
(435,574,cs),
(443,557,o),
(451,546,o),
(469,545,cs),
(471,545,o),
(474,545,o),
(477,546,cs),
(487,548,o),
(494,554,o),
(494,569,cs),
(494,573,o),
(493,578,o),
(492,582,cs),
(473,657,o),
(384,710,o),
(297,710,cs),
(177,710,o),
(89,639,o),
(89,528,cs),
(89,317,o),
(477,377,o),
(477,190,cs),
(477,102,o),
(391,45,o),
(294,45,cs),
(213,45,o),
(140,85,o),
(122,163,cs),
(117,184,o),
(109,195,o),
(90,195,cs),
(74,195,o),
(65,187,o),
(65,171,cs),
(65,167,o),
(65,163,o),
(66,159,cs),
(89,23,o),
(202,-10,o),
(289,-10,cs)
);
}
);
width = 592;
}
);
unicode = 83;
},
{
color = 1;
glyphname = T;
lastChange = "2023-11-27 00:03:57 +0000";
layers = (
{
layerId = m01;
width = 600;
},
{
layerId = m002;
width = 600;
},
{
layerId = m003;
width = 600;
},
{
layerId = m004;
shapes = (
{
closed = 1;
nodes = (
(348,-4,o),
(358,8,o),
(358,24,c),
(358,680,l),
(358,696,o),
(348,704,o),
(330,704,c),
(312,704,o),
(303,695,o),
(303,678,c),
(303,459,o),
(303,241,o),
(303,22,c),
(303,6,o),
(312,-4,o),
(330,-4,c)
);
},
{
closed = 1;
nodes = (
(564,654,ls),
(590,654,o),
(600,663,o),
(600,679,cs),
(600,695,o),
(590,704,o),
(574,704,cs),
(86,704,ls),
(70,704,o),
(60,695,o),
(60,679,cs),
(60,663,o),
(69,654,o),
(86,654,cs)
);
}
);
width = 660;
}
);
unicode = 84;
},
{
color = 1;
glyphname = U;
lastChange = "2023-11-27 02:09:35 +0000";
layers = (
{
layerId = m01;
width = 600;
},
{
layerId = m002;
width = 600;
},
{
layerId = m003;
shapes = (
{
closed = 1;
nodes = (
(614,625,ls),
(614,641,o),
(604,649,o),
(586,649,cs),
(568,649,o),
(559,640,o),
(559,623,cs),
(559,350,ls),
(559,166,o),
(477,40,o),
(342,40,cs),
(206,40,o),
(122,167,o),
(122,351,cs),
(122,625,ls),
(122,641,o),
(112,649,o),
(94,649,cs),
(76,649,o),
(67,640,o),
(67,623,c),
(67,334,ls),
(67,108,o),
(177,-10,o),
(342,-10,cs),
(507,-10,o),
(614,118,o),
(614,337,cs)
);
},
{
closed = 1;
nodes = (
(62,622,ls),
(74,610,o),
(86,610,o),
(98,621,cs),
(109,632,o),
(108,646,o),
(97,657,cs),
(63,691,ls),
(52,702,o),
(38,703,o),
(27,692,cs),
(16,680,o),
(16,668,o),
(28,656,cs)
);
},
{
closed = 1;
nodes = (
(150,656,ls),
(162,668,o),
(162,680,o),
(151,692,cs),
(140,703,o),
(126,702,o),
(115,691,cs),
(81,657,ls),
(70,646,o),
(69,632,o),
(80,621,cs),
(92,610,o),
(104,610,o),
(116,622,cs)
);
},
{
closed = 1;
nodes = (
(564,622,ls),
(576,610,o),
(588,610,o),
(600,621,cs),
(611,632,o),
(610,646,o),
(599,657,cs),
(565,691,ls),
(554,702,o),
(540,703,o),
(529,692,cs),
(518,680,o),
(518,668,o),
(530,656,cs)
);
},
{
closed = 1;
nodes = (
(652,656,ls),
(664,668,o),
(664,680,o),
(653,692,cs),
(642,703,o),
(628,702,o),
(617,691,cs),
(583,657,ls),
(572,646,o),
(571,632,o),
(582,621,cs),
(594,610,o),
(606,610,o),
(618,622,cs)
);
}
);
width = 680;
},
{
guides = (
{
angle = -90;
pos = (342,517);
showMeasurement = 1;
},
{
pos = (485,404);
showMeasurement = 1;
}
);
layerId = m004;
shapes = (
{
closed = 1;
nodes = (
(614,676,ls),
(614,692,o),
(604,700,o),
(586,700,cs),
(568,700,o),
(559,691,o),
(559,674,cs),
(559,350,ls),
(559,166,o),
(477,40,o),
(342,40,cs),
(206,40,o),
(122,167,o),
(122,351,cs),
(122,676,ls),
(122,692,o),
(112,700,o),
(94,700,cs),
(76,700,o),
(67,691,o),
(67,674,c),
(67,334,ls),
(67,108,o),
(177,-10,o),
(342,-10,cs),
(507,-10,o),
(614,118,o),
(614,337,cs)
);
}
);
width = 681;
}
);
unicode = 85;
},
{
color = 1;
glyphname = V;
lastChange = "2023-11-27 00:08:45 +0000";
layers = (
{
layerId = m01;
width = 600;
},
{
layerId = m002;
width = 600;
},
{
layerId = m003;
width = 600;
},
{
layerId = m004;
shapes = (
{
closed = 1;
nodes = (
(289,26,ls),
(296,6,o),
(313,0,o),
(335,0,cs),
(359,0,o),
(370,6,o),
(377,26,cs),
(607,664,ls),
(613,680,o),
(608,692,o),
(593,698,cs),
(578,703,o),
(566,697,o),
(560,681,cs),
(340,73,ls),
(339,69,o),
(337,68,o),
(335,68,cs),
(333,68,o),
(331,70,o),
(330,73,cs),
(103,691,ls),
(98,706,o),
(85,712,o),
(68,706,cs),
(51,700,o),
(46,688,o),
(52,672,cs)
);
}
);
width = 659;
}
);
metricLeft = A;
metricRight = A;
unicode = 86;
},
{
color = 5;
glyphname = a;
lastChange = "2023-11-17 00:18:32 +0000";
layers = (
{
layerId = m01;
shapes = (
{
closed = 1;
nodes = (
(302,-10,o),
(377,19,o),
(426,97,c),
(426,173,l),
(385,98,o),
(304,42,o),
(218,42,cs),
(152,42,o),
(105,87,o),
(105,149,cs),
(105,220,o),
(177,265,o),
(268,265,cs),
(388,265,o),
(425,229,o),
(443,204,c),
(443,265,l),
(413,295,o),
(367,314,o),
(268,317,cs),
(146,321,o),
(50,249,o),
(50,149,cs),
(50,55,o),
(118,-10,o),
(218,-10,cs)
);
},
{
closed = 1;
nodes = (
(283,90,o),
(297,89,o),
(308,101,cs),
(319,112,o),
(319,125,o),
(307,137,cs),
(232,212,ls),
(220,224,o),
(207,224,o),
(196,213,cs),
(184,202,o),
(185,188,o),
(196,177,cs),
(272,101,ls)
);
},
{
closed = 1;
nodes = (
(206,89,o),
(220,90,o),
(231,101,cs),
(307,177,ls),
(318,188,o),
(319,202,o),
(307,213,cs),
(296,224,o),
(283,224,o),
(271,212,cs),
(196,137,ls),
(184,125,o),
(184,112,o),
(195,101,cs)
);
},
{
closed = 1;
nodes = (
(446,-4,o),
(456,6,o),
(456,22,cs),
(456,250,ls),
(456,266,o),
(446,276,o),
(428,276,cs),
(410,276,o),
(401,267,o),
(401,250,cs),
(401,22,ls),
(401,6,o),
(410,-4,o),
(428,-4,cs)
);
},
{
closed = 1;
nodes = (
(456,250,l),
(456,431,o),
(374,510,o),
(256,510,cs),
(176,510,o),
(130,486,o),
(91,450,cs),
(77,438,o),
(79,419,o),
(95,414,cs),
(98,413,ls),
(115,407,o),
(122,405,o),
(135,415,cs),
(161,434,o),
(191,458,o),
(256,458,cs),
(349,458,o),
(401,393,o),
(401,250,c)
);
}
);
width = 516;
},
{
layerId = m002;
shapes = (
{
closed = 1;
nodes = (
(302,-10,o),
(377,19,o),
(426,97,c),
(426,173,l),
(385,98,o),
(304,42,o),
(218,42,cs),
(152,42,o),
(105,87,o),
(105,149,cs),
(105,220,o),
(177,265,o),
(268,265,cs),
(388,265,o),
(425,229,o),
(443,204,c),
(443,265,l),
(413,295,o),
(367,314,o),
(268,317,cs),
(146,321,o),
(50,249,o),
(50,149,cs),
(50,55,o),
(118,-10,o),
(218,-10,cs)
);
},
{
closed = 1;
nodes = (
(321,132,o),
(332,141,o),
(331,157,cs),
(331,173,o),
(322,182,o),
(305,182,cs),
(199,182,ls),
(182,182,o),
(172,173,o),
(172,157,cs),
(172,141,o),
(182,132,o),
(198,132,cs),
(305,132,ls)
);
},
{
closed = 1;
nodes = (
(267,136,o),
(276,146,o),
(276,162,cs),
(276,269,ls),
(276,285,o),
(267,295,o),
(251,295,cs),
(235,295,o),
(226,286,o),
(226,269,cs),
(226,163,ls),
(226,146,o),
(235,136,o),
(251,136,cs)
);
},
{
closed = 1;
nodes = (
(446,-4,o),
(456,6,o),
(456,22,cs),
(456,250,ls),
(456,266,o),
(446,276,o),
(428,276,cs),
(410,276,o),
(401,267,o),
(401,250,cs),
(401,22,ls),
(401,6,o),
(410,-4,o),
(428,-4,cs)
);
},
{
closed = 1;
nodes = (
(456,250,l),
(456,431,o),
(374,510,o),
(256,510,cs),
(176,510,o),
(130,486,o),
(91,450,cs),
(77,438,o),
(79,419,o),
(95,414,cs),
(98,413,ls),
(115,407,o),
(122,405,o),
(135,415,cs),
(161,434,o),
(191,458,o),
(256,458,cs),
(349,458,o),
(401,393,o),
(401,250,c)
);
}
);
width = 516;
},
{
layerId = m003;
shapes = (
{
closed = 1;
nodes = (
(302,-10,o),
(377,19,o),
(426,97,c),
(426,173,l),
(385,98,o),
(304,42,o),
(218,42,cs),
(152,42,o),
(105,87,o),
(105,149,cs),
(105,220,o),
(177,265,o),
(268,265,cs),
(388,265,o),
(425,229,o),
(443,204,c),
(443,265,l),
(413,295,o),
(367,314,o),
(268,317,cs),
(146,321,o),
(50,249,o),
(50,149,cs),
(50,55,o),
(118,-10,o),
(218,-10,cs)
);
},
{
closed = 1;
nodes = (
(238,89,o),
(247,79,o),
(263,79,cs),
(279,79,o),
(288,88,o),
(288,105,cs),
(288,211,ls),
(288,228,o),
(279,238,o),
(263,238,cs),
(247,238,o),
(238,228,o),
(238,212,cs),
(238,105,ls)
);
},
{
closed = 1;
nodes = (
(242,143,o),
(252,134,o),
(268,134,cs),
(395,134,ls),
(411,134,o),
(421,143,o),
(421,159,cs),
(421,175,o),
(412,184,o),
(395,184,cs),
(269,184,ls),
(252,184,o),
(242,175,o),
(242,159,cs)
);
},
{
closed = 1;
nodes = (
(446,-4,o),
(456,6,o),
(456,22,cs),
(456,250,ls),
(456,266,o),
(446,276,o),
(428,276,cs),
(410,276,o),
(401,267,o),
(401,250,cs),
(401,22,ls),
(401,6,o),
(410,-4,o),
(428,-4,cs)
);
},
{
closed = 1;
nodes = (
(456,250,l),
(456,431,o),
(374,510,o),
(256,510,cs),
(176,510,o),
(130,486,o),
(91,450,cs),
(77,438,o),
(79,419,o),
(95,414,cs),
(98,413,ls),
(115,407,o),
(122,405,o),
(135,415,cs),
(161,434,o),
(191,458,o),
(256,458,cs),
(349,458,o),
(401,393,o),
(401,250,c)
);
}
);
width = 516;
},
{
background = {
shapes = (
{
closed = 1;
nodes = (
(302,-10,o),
(377,23,o),
(426,101,c),
(426,173,l),
(385,98,o),
(304,40,o),
(218,40,cs),
(152,40,o),
(105,87,o),
(105,149,cs),
(105,220,o),
(177,267,o),
(268,267,cs),
(388,267,o),
(425,209,o),
(443,184,c),
(443,245,l),
(413,275,o),
(367,314,o),
(268,317,cs),
(146,321,o),
(50,249,o),
(50,149,cs),
(50,55,o),
(118,-10,o),
(218,-10,cs)
);
}
);
};
guides = (
{
angle = 270;
pos = (391,214);
showMeasurement = 1;
},
{
angle = 180;
pos = (199,149);
showMeasurement = 1;
}
);
layerId = m004;
shapes = (
{
closed = 1;
nodes = (
(446,-4,o),
(456,6,o),
(456,22,cs),
(456,250,ls),
(456,266,o),
(446,276,o),
(428,276,cs),
(410,276,o),
(401,267,o),
(401,250,cs),
(401,22,ls),
(401,6,o),
(410,-4,o),
(428,-4,cs)
);
},
{
closed = 1;
nodes = (
(302,-10,o),
(377,24,o),
(426,102,c),
(426,161,l),
(385,86,o),
(304,42,o),
(218,42,cs),
(152,42,o),
(105,87,o),
(105,149,cs),
(105,220,o),
(177,265,o),
(268,265,cs),
(388,265,o),
(425,234,o),
(443,209,c),
(443,265,l),
(413,295,o),
(367,314,o),
(268,317,cs),
(265,317,o),
(261,317,o),
(258,317,cs),
(141,317,o),
(50,246,o),
(50,149,cs),
(50,55,o),
(118,-10,o),
(218,-10,cs)
);
},
{
closed = 1;
nodes = (
(206,458,o),
(256,458,cs),
(349,458,o),
(401,393,o),
(401,250,c),
(456,250,l),
(456,431,o),
(374,510,o),
(256,510,cs),
(188,510,o),
(145,493,o),
(90,445,cs),
(85,440,o),
(82,435,o),
(82,429,cs),
(82,424,o),
(84,418,o),
(88,413,cs),
(94,405,o),
(102,401,o),
(110,401,cs),
(118,401,o),
(125,404,o),
(131,410,cs),
(160,440,o)
);
}
);
width = 516;
}
);
metricRight = n;
unicode = 97;
},
{
color = 5;
glyphname = b;
lastChange = "2023-11-23 10:02:36 +0000";
layers = (
{
guides = (
{
pos = (323,250);
showMeasurement = 1;
}
);
layerId = m01;
shapes = (
{
closed = 1;
nodes = (
(448,-9,o),
(562,89,o),
(562,245,cs),
(562,430,o),
(441,505,o),
(321,505,cs),
(202,505,o),
(80,430,o),
(80,245,cs),
(80,89,o),
(194,-9,o),
(321,-9,cs)
);
},
{
closed = 1;
nodes = (
(282,229,ls),
(298,229,o),
(308,238,o),
(308,256,cs),
(308,274,o),
(298,284,o),
(282,284,cs),
(234,284,ls),
(218,284,o),
(208,274,o),
(208,256,cs),
(208,238,o),
(217,229,o),
(234,229,cs)
);
},
{
closed = 1;
nodes = (
(125,-4,o),
(135,6,o),
(135,22,cs),
(135,714,ls),
(135,730,o),
(125,740,o),
(107,740,cs),
(89,740,o),
(80,731,o),
(80,714,cs),
(80,22,ls),
(80,6,o),
(89,-4,o),
(107,-4,cs)
);
},
{
closed = 1;
nodes = (
(299,181,o),
(308,191,o),
(308,207,cs),
(308,305,ls),
(308,321,o),
(299,331,o),
(283,331,cs),
(267,331,o),
(258,321,o),
(258,305,cs),
(258,207,ls),
(258,191,o),
(267,181,o),
(283,181,cs)
);
},
{
closed = 1;
nodes = (
(224,41,o),
(135,122,o),
(135,246,cs),
(135,392,o),
(229,455,o),
(321,455,cs),
(414,455,o),
(507,392,o),
(507,246,cs),
(507,122,o),
(418,41,o),
(321,41,cs)
);
},
{
closed = 1;
nodes = (
(379,181,o),
(388,191,o),
(388,207,cs),
(388,305,ls),
(388,321,o),
(379,331,o),
(363,331,cs),
(347,331,o),
(338,321,o),
(338,305,cs),
(338,207,ls),
(338,191,o),
(347,181,o),
(363,181,cs)
);
},
{
closed = 1;
nodes = (
(412,229,ls),
(428,229,o),
(438,238,o),
(438,256,cs),
(438,274,o),
(428,284,o),
(412,284,cs),
(364,284,ls),
(348,284,o),
(338,274,o),
(338,256,cs),
(338,238,o),
(347,229,o),
(364,229,cs)
);
}
);
width = 612;
},
{
layerId = m002;
shapes = (
{
closed = 1;
nodes = (
(448,-9,o),
(562,89,o),
(562,245,cs),
(562,430,o),
(441,505,o),
(321,505,cs),
(202,505,o),
(80,430,o),
(80,245,cs),
(80,89,o),
(194,-9,o),
(321,-9,cs)
);
},
{
closed = 1;
nodes = (
(332,229,ls),
(348,229,o),
(358,238,o),
(358,256,cs),
(358,274,o),
(348,284,o),
(332,284,cs),
(234,284,ls),
(218,284,o),
(208,274,o),
(208,256,cs),
(208,238,o),
(217,229,o),
(234,229,cs)
);
},
{
closed = 1;
nodes = (
(125,-4,o),
(135,6,o),
(135,22,cs),
(135,714,ls),
(135,730,o),
(125,740,o),
(107,740,cs),
(89,740,o),
(80,731,o),
(80,714,cs),
(80,22,ls),
(80,6,o),
(89,-4,o),
(107,-4,cs)
);
},
{
closed = 1;
nodes = (
(299,181,o),
(308,191,o),
(308,207,cs),
(308,305,ls),
(308,321,o),
(299,331,o),
(283,331,cs),
(267,331,o),
(258,321,o),
(258,305,cs),
(258,207,ls),
(258,191,o),
(267,181,o),
(283,181,cs)
);
},
{
closed = 1;
nodes = (
(224,41,o),
(135,122,o),
(135,246,cs),
(135,392,o),
(229,455,o),
(321,455,cs),
(414,455,o),
(507,392,o),
(507,246,cs),
(507,122,o),
(418,41,o),
(321,41,cs)
);
},
{
closed = 1;
nodes = (
(379,181,o),
(388,191,o),
(388,207,cs),
(388,305,ls),
(388,321,o),
(379,331,o),
(363,331,cs),
(347,331,o),
(338,321,o),
(338,305,cs),
(338,207,ls),
(338,191,o),
(347,181,o),
(363,181,cs)
);
},
{
closed = 1;
nodes = (
(412,229,ls),
(428,229,o),
(438,238,o),
(438,256,cs),
(438,274,o),
(428,284,o),
(412,284,cs),
(314,284,ls),
(298,284,o),
(288,274,o),
(288,256,cs),
(288,238,o),
(297,229,o),
(314,229,cs)
);
}
);
width = 612;
},
{
layerId = m003;
shapes = (
{
closed = 1;
nodes = (
(448,-9,o),
(562,89,o),
(562,245,cs),
(562,430,o),
(441,505,o),
(321,505,cs),
(202,505,o),
(80,430,o),
(80,245,cs),
(80,89,o),
(194,-9,o),
(321,-9,cs)
);
},
{
closed = 1;
nodes = (
(322,229,ls),
(338,229,o),
(348,238,o),
(348,256,cs),
(348,274,o),
(338,284,o),
(322,284,cs),
(274,284,ls),
(258,284,o),
(248,274,o),
(248,256,cs),
(248,238,o),
(257,229,o),
(274,229,cs)
);
},
{
closed = 1;
nodes = (
(125,-4,o),
(135,6,o),
(135,22,cs),
(135,714,ls),
(135,730,o),
(125,740,o),
(107,740,cs),
(89,740,o),
(80,731,o),
(80,714,cs),
(80,22,ls),
(80,6,o),
(89,-4,o),
(107,-4,cs)
);
},
{
closed = 1;
nodes = (
(339,181,o),
(348,191,o),
(348,207,cs),
(348,305,ls),
(348,321,o),
(339,331,o),
(323,331,cs),
(307,331,o),
(298,321,o),
(298,305,cs),
(298,207,ls),
(298,191,o),
(307,181,o),
(323,181,cs)
);
},
{
closed = 1;
nodes = (
(224,41,o),
(135,122,o),
(135,246,cs),
(135,392,o),
(229,455,o),
(321,455,cs),
(414,455,o),
(507,392,o),
(507,246,cs),
(507,122,o),
(418,41,o),
(321,41,cs)
);
},
{
closed = 1;
nodes = (
(339,181,o),
(348,191,o),
(348,207,cs),
(348,305,ls),
(348,321,o),
(339,331,o),
(323,331,cs),
(307,331,o),
(298,321,o),
(298,305,cs),
(298,207,ls),
(298,191,o),
(307,181,o),
(323,181,cs)
);
},
{
closed = 1;
nodes = (
(372,229,ls),
(388,229,o),
(398,238,o),
(398,256,cs),
(398,274,o),
(388,284,o),
(372,284,cs),
(324,284,ls),
(308,284,o),
(298,274,o),
(298,256,cs),
(298,238,o),
(307,229,o),
(324,229,cs)
);
}
);
width = 612;
},
{
background = {
shapes = (
{
closed = 1;
nodes = (
(106,-1,o),
(117,8,o),
(118,20,cs),
(131,126,o),
(136,241,o),
(130,365,cs),
(124,480,o),
(110,612,o),
(92,706,cs),
(89,719,o),
(79,727,o),
(65,726,cs),
(47,725,o),
(35,711,o),
(39,693,cs),
(56,603,o),
(69,475,o),
(75,362,cs),
(81,243,o),
(78,132,o),
(64,31,cs),
(61,12,o),
(75,-2,o),
(94,-1,cs)
);
}
);
};
guides = (
{
pos = (321,250);
showMeasurement = 1;
}
);
layerId = m004;
shapes = (
{
closed = 1;
nodes = (
(446,-9,o),
(560,89,o),
(560,245,cs),
(560,430,o),
(439,505,o),
(319,505,cs),
(200,505,o),
(98,430,o),
(98,245,cs),
(98,89,o),
(192,-9,o),
(319,-9,cs)
);
},
{
closed = 1;
nodes = (
(222,41,o),
(133,122,o),
(133,246,cs),
(133,392,o),
(227,455,o),
(319,455,cs),
(412,455,o),
(505,392,o),
(505,246,cs),
(505,122,o),
(416,41,o),
(319,41,cs)
);
},
{
closed = 1;
nodes = (
(123,-4,o),
(133,6,o),
(133,22,cs),
(133,700,ls),
(133,716,o),
(123,726,o),
(105,726,cs),
(87,726,o),
(78,717,o),
(78,700,cs),
(78,22,ls),
(78,6,o),
(87,-4,o),
(105,-4,cs)
);
}
);
width = 610;
}
);
metricLeft = h;
metricRight = o;
unicode = 98;
},
{
color = 1;
glyphname = d;
lastChange = "2023-11-23 09:57:09 +0000";
layers = (
{
layerId = m01;
width = 600;
},
{
layerId = m002;
width = 600;
},
{
layerId = m003;
width = 600;
},
{
background = {
shapes = (
{
closed = 1;
nodes = (
(494,-1,o),
(505,8,o),
(506,20,cs),
(519,126,o),
(524,241,o),
(518,365,cs),
(512,480,o),
(498,612,o),
(480,706,cs),
(477,719,o),
(467,727,o),
(453,726,cs),
(435,725,o),
(423,711,o),
(427,692,cs),
(444,603,o),
(457,475,o),
(463,362,cs),
(469,243,o),
(466,132,o),
(452,31,cs),
(449,12,o),
(463,-2,o),
(482,-1,cs)
);
}
);
};
layerId = m004;
shapes = (
{
closed = 1;
nodes = (
(406,-9,o),
(500,89,o),
(500,245,cs),
(500,430,o),
(399,505,o),
(279,505,cs),
(160,505,o),
(38,430,o),
(38,245,cs),
(38,89,o),
(152,-9,o),
(279,-9,cs)
);
},
{
closed = 1;
nodes = (
(182,41,o),
(93,122,o),
(93,246,cs),
(93,392,o),
(187,455,o),
(279,455,cs),
(372,455,o),
(465,392,o),
(465,246,cs),
(465,122,o),
(376,41,o),
(279,41,cs)
);
},
{
closed = 1;
nodes = (
(511,-4,o),
(521,6,o),
(521,22,cs),
(521,700,ls),
(521,716,o),
(511,726,o),
(493,726,cs),
(475,726,o),
(466,717,o),
(466,700,cs),
(466,22,ls),
(466,6,o),
(475,-4,o),
(493,-4,cs)
);
}
);
width = 600;
},
{
associatedMasterId = m004;
background = {
shapes = (
{
closed = 1;
nodes = (
(451,671,o),
(476,553,o),
(476,412,cs),
(476,240,o),
(449,155,o),
(431,121,cs),
(428,116,o),
(423,115,o),
(420,121,cs),
(398,154,o),
(385,239,o),
(385,412,cs),
(385,553,o),
(393,671,o),
(427,671,cs)
);
},
{
closed = 1;
nodes = (
(268,45,o),
(249,51,o),
(231,65,cs),
(206,84,o),
(189,86,o),
(176,70,cs),
(167,59,o),
(172,44,o),
(183,34,cs),
(189,29,ls),
(212,10,o),
(262,-5,o),
(306,-5,cs),
(346,-5,o),
(400,13,o),
(435,40,c),
(450,30,o),
(466,22,o),
(482,16,cs),
(521,3,o),
(531,15,o),
(533,31,cs),
(534,42,o),
(527,53,o),
(515,58,cs),
(510,60,o),
(482,72,o),
(471,79,c),
(499,120,o),
(531,212,o),
(531,412,cs),
(531,561,o),
(499,726,o),
(427,726,cs),
(342,726,o),
(330,561,o),
(330,412,cs),
(330,212,o),
(354,111,o),
(390,71,c),
(368,54,o),
(340,45,o),
(306,45,cs)
);
},
{
closed = 1;
nodes = (
(418,-8,o),
(532,90,o),
(532,246,cs),
(532,431,o),
(411,506,o),
(291,506,cs),
(172,506,o),
(50,431,o),
(50,246,cs),
(50,90,o),
(164,-8,o),
(291,-8,cs)
);
},
{
closed = 1;
nodes = (
(194,42,o),
(105,123,o),
(105,247,cs),
(105,393,o),
(199,456,o),
(291,456,cs),
(384,456,o),
(477,393,o),
(477,247,cs),
(477,123,o),
(388,42,o),
(291,42,cs)
);
}
);
};
layerId = "BF667803-0283-4E25-8463-576A583C71ED";
name = "17 Nov 23 at 2:09AM";
shapes = (
{
closed = 1;
nodes = (
(406,-9,o),
(520,89,o),
(520,245,cs),
(520,430,o),
(399,505,o),
(279,505,cs),
(160,505,o),
(38,430,o),
(38,245,cs),
(38,89,o),
(152,-9,o),
(279,-9,cs)
);
},
{
closed = 1;
nodes = (
(182,41,o),
(93,122,o),
(93,246,cs),
(93,392,o),
(187,455,o),
(279,455,cs),
(372,455,o),
(465,392,o),
(465,246,cs),
(465,122,o),
(376,41,o),
(279,41,cs)
);
},
{
closed = 1;
nodes = (
(494,-1,o),
(505,8,o),
(506,20,cs),
(519,126,o),
(524,241,o),
(518,365,cs),
(512,480,o),
(498,612,o),
(480,706,cs),
(477,719,o),
(467,727,o),
(453,726,cs),
(435,725,o),
(423,711,o),
(427,693,cs),
(444,603,o),
(457,475,o),
(463,362,cs),
(469,243,o),
(466,132,o),
(452,31,cs),
(449,12,o),
(463,-2,o),
(482,-1,cs)
);
}
);
width = 600;
}
);
unicode = 100;
},
{
color = 5;
glyphname = e;
lastChange = "2023-11-23 11:02:19 +0000";
layers = (
{
layerId = m01;
shapes = (
{
closed = 1;
nodes = (
(461,115,ls),
(447,122,o),
(432,121,o),
(425,111,cs),
(393,75,o),
(336,53,o),
(280,53,cs),
(184,53,o),
(107,141,o),
(105,254,cs),
(106,367,o),
(179,455,o),
(270,455,cs),
(374,455,o),
(445,379,o),
(454,246,cs),
(455,230,o),
(466,220,o),
(480,220,cs),
(483,220,ls),
(499,220,o),
(510,232,o),
(509,247,cs),
(498,415,o),
(410,505,o),
(270,505,cs),
(149,505,o),
(53,395,o),
(50,254,cs),
(48,113,o),
(149,3,o),
(280,3,cs),
(352,3,o),
(429,35,o),
(467,78,cs),
(479,92,o),
(477,107,o),
(463,114,cs)
);
},
{
closed = 1;
nodes = (
(158,229,o),
(168,220,o),
(184,220,cs),
(483,220,ls),
(499,220,o),
(509,229,o),
(509,245,cs),
(509,261,o),
(499,270,o),
(483,270,cs),
(184,270,ls),
(168,270,o),
(158,261,o),
(158,245,c)
);
},
{
closed = 1;
nodes = (
(228,377,o),
(218,367,o),
(218,351,cs),
(218,247,ls),
(218,231,o),
(228,221,o),
(246,221,cs),
(264,221,o),
(273,230,o),
(273,247,cs),
(273,351,ls),
(273,367,o),
(264,377,o),
(246,377,cs)
);
},
{
closed = 1;
nodes = (
(313,377,o),
(303,367,o),
(303,351,cs),
(303,247,ls),
(303,231,o),
(313,221,o),
(331,221,cs),
(349,221,o),
(358,230,o),
(358,247,cs),
(358,351,ls),
(358,367,o),
(349,377,o),
(331,377,cs)
);
}
);
width = 529;
},
{
layerId = m002;
shapes = (
{
closed = 1;
nodes = (
(461,115,ls),
(447,122,o),
(432,121,o),
(425,111,cs),
(393,75,o),
(336,53,o),
(280,53,cs),
(184,53,o),
(107,141,o),
(105,254,cs),
(106,367,o),
(179,455,o),
(270,455,cs),
(374,455,o),
(445,379,o),
(454,246,cs),
(455,230,o),
(466,220,o),
(480,220,cs),
(483,220,ls),
(499,220,o),
(510,232,o),
(509,247,cs),
(498,415,o),
(410,505,o),
(270,505,cs),
(149,505,o),
(53,395,o),
(50,254,cs),
(48,113,o),
(149,3,o),
(280,3,cs),
(352,3,o),
(429,35,o),
(467,78,cs),
(479,92,o),
(477,107,o),
(463,114,cs)
);
},
{
closed = 1;
nodes = (
(158,229,o),
(168,220,o),
(184,220,cs),
(483,220,ls),
(499,220,o),
(509,229,o),
(509,245,cs),
(509,261,o),
(499,270,o),
(483,270,cs),
(184,270,ls),
(168,270,o),
(158,261,o),
(158,245,c)
);
},
{
closed = 1;
nodes = (
(228,323,o),
(218,313,o),
(218,297,cs),
(218,193,ls),
(218,177,o),
(228,167,o),
(246,167,cs),
(264,167,o),
(273,176,o),
(273,193,cs),
(273,297,ls),
(273,313,o),
(264,323,o),
(246,323,cs)
);
},
{
closed = 1;
nodes = (
(313,323,o),
(303,313,o),
(303,297,cs),
(303,193,ls),
(303,177,o),
(313,167,o),
(331,167,cs),
(349,167,o),
(358,176,o),
(358,193,cs),
(358,297,ls),
(358,313,o),
(349,323,o),
(331,323,cs)
);
}
);
width = 529;
},
{
layerId = m003;
shapes = (
{
closed = 1;
nodes = (
(461,115,ls),
(447,122,o),
(432,121,o),
(425,111,cs),
(393,75,o),
(336,53,o),
(280,53,cs),
(184,53,o),
(107,141,o),
(105,254,cs),
(106,367,o),
(179,455,o),
(270,455,cs),
(374,455,o),
(445,379,o),
(454,246,cs),
(455,230,o),
(466,220,o),
(480,220,cs),
(483,220,ls),
(499,220,o),
(510,232,o),
(509,247,cs),
(498,415,o),
(410,505,o),
(270,505,cs),
(149,505,o),
(53,395,o),
(50,254,cs),
(48,113,o),
(149,3,o),
(280,3,cs),
(352,3,o),
(429,35,o),
(467,78,cs),
(479,92,o),
(477,107,o),
(463,114,cs)
);
},
{
closed = 1;
nodes = (
(158,229,o),
(168,220,o),
(184,220,cs),
(483,220,ls),
(499,220,o),
(509,229,o),
(509,245,cs),
(509,261,o),
(499,270,o),
(483,270,cs),
(184,270,ls),
(168,270,o),
(158,261,o),
(158,245,c)
);
},
{
closed = 1;
nodes = (
(228,270,o),
(218,260,o),
(218,244,cs),
(218,140,ls),
(218,124,o),
(228,114,o),
(246,114,cs),
(264,114,o),
(273,123,o),
(273,140,cs),
(273,244,ls),
(273,260,o),
(264,270,o),
(246,270,cs)
);
},
{
closed = 1;
nodes = (
(313,270,o),
(303,260,o),
(303,244,cs),
(303,140,ls),
(303,124,o),
(313,114,o),
(331,114,cs),
(349,114,o),
(358,123,o),
(358,140,cs),
(358,244,ls),
(358,260,o),
(349,270,o),
(331,270,cs)
);
}
);
width = 529;
},
{
background = {
shapes = (
{
closed = 1;
nodes = (
(92,206,o),
(93,203,c),
(113,87,o),
(204,3,o),
(319,3,cs),
(391,3,o),
(468,35,o),
(506,78,cs),
(511,84,o),
(513,91,o),
(513,98,cs),
(513,108,o),
(509,117,o),
(502,121,cs),
(497,124,o),
(492,125,o),
(488,125,cs),
(478,125,o),
(470,118,o),
(464,111,cs),
(432,75,o),
(375,53,o),
(319,53,cs),
(241,53,o),
(176,110,o),
(153,192,c),
(522,225,ls),
(538,226,o),
(548,237,o),
(547,252,cs),
(536,420,o),
(449,505,o),
(309,505,cs),
(188,505,o),
(92,395,o),
(89,254,cs),
(89,242,o)
);
},
{
closed = 1;
nodes = (
(144,367,o),
(218,455,o),
(309,455,cs),
(405,455,o),
(472,395,o),
(489,281,cs),
(490,276,o),
(488,273,o),
(482,272,cs),
(145,242,l),
(144,246,o),
(144,250,o),
(144,254,cs)
);
}
);
};
layerId = m004;
shapes = (
{
closed = 1;
nodes = (
(50,234,o),
(60,225,o),
(76,225,cs),
(521,225,ls),
(536,225,o),
(546,234,o),
(547,250,cs),
(546,266,o),
(536,276,o),
(520,276,cs),
(76,275,ls),
(60,275,o),
(50,266,o),
(50,250,cs)
);
},
{
closed = 1;
nodes = (
(497,124,o),
(492,125,o),
(488,125,cs),
(478,125,o),
(470,118,o),
(464,111,cs),
(432,75,o),
(375,53,o),
(319,53,cs),
(223,53,o),
(146,141,o),
(144,254,cs),
(145,367,o),
(218,455,o),
(309,455,cs),
(413,455,o),
(483,384,o),
(492,251,cs),
(493,235,o),
(504,225,o),
(518,225,cs),
(521,225,ls),
(537,225,o),
(548,237,o),
(547,252,cs),
(536,420,o),
(449,505,o),
(309,505,cs),
(188,505,o),
(92,395,o),
(89,254,cs),
(87,113,o),
(188,3,o),
(319,3,cs),
(391,3,o),
(468,35,o),
(506,78,cs),
(511,84,o),
(513,91,o),
(513,98,cs),
(513,108,o),
(509,117,o),
(502,121,cs)
);
}
);
width = 597;
}
);
unicode = 101;
},
{
color = 5;
glyphname = f;
lastChange = "2023-11-23 10:52:27 +0000";
layers = (
{
layerId = m01;
shapes = (
{
closed = 1;
nodes = (
(183,480,l),
(183,481,ls),
(183,654,o),
(215,686,o),
(287,686,cs),
(311,686,o),
(333,682,o),
(351,674,cs),
(366,667,o),
(377,668,o),
(387,680,cs),
(399,693,o),
(397,709,o),
(381,716,cs),
(353,730,o),
(321,736,o),
(287,736,cs),
(190,736,o),
(128,692,o),
(128,481,cs),
(128,480,l)
);
},
{
closed = 1;
nodes = (
(173,0,o),
(183,10,o),
(183,26,cs),
(183,490,ls),
(183,506,o),
(173,516,o),
(155,516,cs),
(137,516,o),
(128,507,o),
(128,490,cs),
(128,26,ls),
(128,10,o),
(137,0,o),
(155,0,cs)
);
},
{
closed = 1;
nodes = (
(254,370,ls),
(270,370,o),
(280,379,o),
(280,395,cs),
(280,411,o),
(270,420,o),
(254,420,cs),
(56,420,ls),
(40,420,o),
(30,411,o),
(30,395,cs),
(30,379,o),
(40,370,o),
(56,370,cs)
);
},
{
closed = 1;
nodes = (
(254,450,ls),
(270,450,o),
(280,459,o),
(280,475,cs),
(280,491,o),
(270,500,o),
(254,500,cs),
(56,500,ls),
(40,500,o),
(30,491,o),
(30,475,cs),
(30,459,o),
(40,450,o),
(56,450,cs)
);
}
);
width = 345;
},
{
layerId = m002;
shapes = (
{
closed = 1;
nodes = (
(183,480,l),
(183,481,ls),
(183,654,o),
(215,686,o),
(287,686,cs),
(311,686,o),
(333,682,o),
(351,674,cs),
(366,667,o),
(377,668,o),
(387,680,cs),
(399,693,o),
(397,709,o),
(381,716,cs),
(353,730,o),
(321,736,o),
(287,736,cs),
(190,736,o),
(128,692,o),
(128,481,cs),
(128,480,l)
);
},
{
closed = 1;
nodes = (
(173,0,o),
(183,10,o),
(183,26,cs),
(183,380,ls),
(183,396,o),
(173,406,o),
(155,406,cs),
(137,406,o),
(128,397,o),
(128,380,cs),
(128,26,ls),
(128,10,o),
(137,0,o),
(155,0,cs)
);
},
{
closed = 1;
nodes = (
(254,370,ls),
(270,370,o),
(280,379,o),
(280,395,cs),
(280,411,o),
(270,420,o),
(254,420,cs),
(56,420,ls),
(40,420,o),
(30,411,o),
(30,395,cs),
(30,379,o),
(40,370,o),
(56,370,cs)
);
},
{
closed = 1;
nodes = (
(254,450,ls),
(270,450,o),
(280,459,o),
(280,475,cs),
(280,491,o),
(270,500,o),
(254,500,cs),
(56,500,ls),
(40,500,o),
(30,491,o),
(30,475,cs),
(30,459,o),
(40,450,o),
(56,450,cs)
);
}
);
width = 345;
},
{
layerId = m003;
shapes = (
{
closed = 1;
nodes = (
(183,440,l),
(183,481,ls),
(183,654,o),
(215,686,o),
(287,686,cs),
(311,686,o),
(333,682,o),
(351,674,cs),
(366,667,o),
(377,668,o),
(387,680,cs),
(399,693,o),
(397,709,o),
(381,716,cs),
(353,730,o),
(321,736,o),
(287,736,cs),
(190,736,o),
(128,692,o),
(128,481,cs),
(128,440,l)
);
},
{
closed = 1;
nodes = (
(173,0,o),
(183,10,o),
(183,26,cs),
(183,420,ls),
(183,436,o),
(173,446,o),
(155,446,cs),
(137,446,o),
(128,437,o),
(128,420,cs),
(128,26,ls),
(128,10,o),
(137,0,o),
(155,0,cs)
);
},
{
closed = 1;
nodes = (
(254,410,ls),
(270,410,o),
(280,419,o),
(280,435,cs),
(280,451,o),
(270,460,o),
(254,460,cs),
(56,460,ls),
(40,460,o),
(30,451,o),
(30,435,cs),
(30,419,o),
(40,410,o),
(56,410,cs)
);
},
{
closed = 1;
nodes = (
(254,410,ls),
(270,410,o),
(280,419,o),
(280,435,cs),
(280,451,o),
(270,460,o),
(254,460,cs),
(56,460,ls),
(40,460,o),
(30,451,o),
(30,435,cs),
(30,419,o),
(40,410,o),
(56,410,cs)
);
}
);
width = 345;
},
{
background = {
shapes = (
{
closed = 1;
nodes = (
(109,26,ls),
(109,10,o),
(118,0,o),
(136,0,cs),
(154,0,o),
(164,10,o),
(164,26,cs),
(164,480,ls),
(164,654,o),
(196,686,o),
(268,686,cs),
(292,686,o),
(314,682,o),
(332,674,cs),
(347,667,o),
(358,668,o),
(368,680,cs),
(380,693,o),
(378,709,o),
(362,716,cs),
(334,730,o),
(302,736,o),
(268,736,cs),
(173,736,o),
(109,694,o),
(109,490,c)
);
}
);
};
guides = (
{
angle = 270;
pos = (240,593);
showMeasurement = 1;
}
);
layerId = m004;
shapes = (
{
closed = 1;
nodes = (
(288,450,ls),
(304,450,o),
(314,459,o),
(314,475,cs),
(314,491,o),
(304,500,o),
(288,500,cs),
(55,500,ls),
(39,500,o),
(29,491,o),
(29,475,cs),
(29,459,o),
(39,450,o),
(55,450,cs)
);
},
{
closed = 1;
nodes = (
(111,472,o),
(110,436,o),
(110,270,cs),
(110,266,o),
(109,63,o),
(109,22,cs),
(109,7,o),
(123,0,o),
(135,-1,cs),
(153,-3,o),
(164,10,o),
(164,31,cs),
(164,78,o),
(165,271,o),
(165,275,cs),
(165,481,ls),
(165,664,o),
(208,682,o),
(241,686,cs),
(287,691,o),
(314,661,o),
(326,612,cs),
(330,594,o),
(338,577,o),
(361,579,cs),
(371,580,o),
(382,592,o),
(380,605,cs),
(360,720,o),
(293,742,o),
(230,736,cs),
(177,731,o),
(111,709,o),
(111,506,cs)
);
}
);
width = 346;
},
{
associatedMasterId = m004;
background = {
shapes = (
{
closed = 1;
nodes = (
(109,26,ls),
(109,10,o),
(118,0,o),
(136,0,cs),
(154,0,o),
(164,10,o),
(164,26,cs),
(164,480,ls),
(164,654,o),
(196,686,o),
(268,686,cs),
(292,686,o),
(314,682,o),
(332,674,cs),
(347,667,o),
(358,668,o),
(368,680,cs),
(380,693,o),
(378,709,o),
(362,716,cs),
(334,730,o),
(302,736,o),
(268,736,cs),
(173,736,o),
(109,694,o),
(109,490,c)
);
}
);
};
guides = (
{
angle = 180;
pos = (329,474);
showMeasurement = 1;
}
);
layerId = "76EC3804-F0F7-4F83-9A66-D2B294E7F38A";
name = "17 Nov 23 at 1:49PM";
shapes = (
{
closed = 1;
nodes = (
(290,460,ls),
(306,461,o),
(315,471,o),
(313,487,cs),
(312,503,o),
(301,511,o),
(285,510,cs),
(53,490,ls),
(37,489,o),
(28,479,o),
(30,463,cs),
(31,447,o),
(42,439,o),
(58,440,cs)
);
},
{
closed = 1;
nodes = (
(107,467,l),
(104,433,o),
(102,398,o),
(100,365,cs),
(94,241,o),
(99,126,o),
(112,20,cs),
(113,8,o),
(124,-1,o),
(136,-1,cs),
(155,-2,o),
(169,12,o),
(166,31,cs),
(152,132,o),
(149,243,o),
(155,362,cs),
(157,396,o),
(159,432,o),
(162,467,c)
);
}
);
width = 346;
}
);
unicode = 102;
},
{
color = 5;
glyphname = g;
lastChange = "2023-11-17 12:46:12 +0000";
layers = (
{
background = {
shapes = (
{
closed = 1;
nodes = (
(410,-308,o),
(532,-234,o),
(532,-53,cs),
(532,-53,ls),
(532,-53,o),
(522,-52,o),
(505,-52,cs),
(502,-52,ls),
(486,-52,o),
(477,-53,o),
(477,-53,cs),
(477,-196,o),
(385,-255,o),
(293,-255,cs),
(206,-255,o),
(120,-203,o),
(109,-79,cs),
(108,-62,o),
(99,-53,o),
(83,-53,cs),
(79,-53,ls),
(62,-53,o),
(53,-63,o),
(54,-80,cs),
(66,-241,o),
(181,-308,o),
(293,-308,cs)
);
}
);
};
layerId = m01;
shapes = (
{
closed = 1;
nodes = (
(248,234,ls),
(264,234,o),
(274,243,o),
(274,259,cs),
(274,275,o),
(265,284,o),
(248,284,cs),
(100,284,ls),
(84,284,o),
(74,275,o),
(74,259,cs),
(74,243,o),
(84,234,o),
(100,234,cs)
);
},
{
closed = 1;
nodes = (
(264,14,o),
(274,24,o),
(274,40,cs),
(274,448,ls),
(274,464,o),
(264,474,o),
(246,474,cs),
(228,474,o),
(219,464,o),
(219,448,cs),
(219,40,ls),
(219,24,o),
(228,14,o),
(246,14,cs)
);
},
{
closed = 1;
nodes = (
(349,14,o),
(359,24,o),
(359,40,cs),
(359,448,ls),
(359,464,o),
(349,474,o),
(331,474,cs),
(313,474,o),
(304,464,o),
(304,448,cs),
(304,40,ls),
(304,24,o),
(313,14,o),
(331,14,cs)
);
},
{
closed = 1;
nodes = (
(478,234,ls),
(494,234,o),
(504,243,o),
(504,259,cs),
(504,275,o),
(495,284,o),
(478,284,cs),
(330,284,ls),
(314,284,o),
(304,275,o),
(304,259,cs),
(304,243,o),
(314,234,o),
(330,234,cs)
);
},
{
closed = 1;
nodes = (
(410,-308,o),
(532,-234,o),
(532,-53,cs),
(532,473,ls),
(532,489,o),
(523,499,o),
(505,499,cs),
(487,499,o),
(477,489,o),
(477,473,cs),
(477,-53,ls),
(477,-196,o),
(385,-255,o),
(293,-255,cs),
(237,-255,o),
(182,-238,o),
(144,-191,cs),
(133,-177,o),
(121,-174,o),
(108,-185,cs),
(105,-187,ls),
(92,-197,o),
(89,-210,o),
(100,-224,cs),
(149,-285,o),
(222,-308,o),
(293,-308,cs)
);
},
{
closed = 1;
nodes = (
(410,-10,o),
(532,65,o),
(532,250,cs),
(532,406,o),
(418,504,o),
(291,504,cs),
(164,504,o),
(50,406,o),
(50,250,cs),
(50,65,o),
(171,-10,o),
(291,-10,cs)
);
},
{
closed = 1;
nodes = (
(198,40,o),
(105,103,o),
(105,249,cs),
(105,373,o),
(194,454,o),
(291,454,cs),
(388,454,o),
(477,373,o),
(477,249,cs),
(477,103,o),
(383,40,o),
(291,40,cs)
);
}
);
width = 612;
},
{
layerId = m002;
shapes = (
{
closed = 1;
nodes = (
(308,234,ls),
(324,234,o),
(334,243,o),
(334,259,cs),
(334,275,o),
(325,284,o),
(308,284,cs),
(100,284,ls),
(84,284,o),
(74,275,o),
(74,259,cs),
(74,243,o),
(84,234,o),
(100,234,cs)
);
},
{
closed = 1;
nodes = (
(265,14,o),
(275,24,o),
(275,40,cs),
(275,458,ls),
(275,474,o),
(265,484,o),
(247,484,cs),
(229,484,o),
(220,474,o),
(220,458,cs),
(220,40,ls),
(220,24,o),
(229,14,o),
(247,14,cs)
);
},
{
closed = 1;
nodes = (
(350,14,o),
(360,24,o),
(360,40,cs),
(360,458,ls),
(360,474,o),
(350,484,o),
(332,484,cs),
(314,484,o),
(305,474,o),
(305,458,cs),
(305,40,ls),
(305,24,o),
(314,14,o),
(332,14,cs)
);
},
{
closed = 1;
nodes = (
(478,234,ls),
(494,234,o),
(504,243,o),
(504,259,cs),
(504,275,o),
(495,284,o),
(478,284,cs),
(270,284,ls),
(254,284,o),
(244,275,o),
(244,259,cs),
(244,243,o),
(254,234,o),
(270,234,cs)
);
},
{
closed = 1;
nodes = (
(410,-308,o),
(532,-234,o),
(532,-53,cs),
(532,473,ls),
(532,489,o),
(523,499,o),
(505,499,cs),
(487,499,o),
(477,489,o),
(477,473,cs),
(477,-53,ls),
(477,-196,o),
(385,-255,o),
(293,-255,cs),
(237,-255,o),
(182,-238,o),
(144,-191,cs),
(133,-177,o),
(122,-176,o),
(108,-185,cs),
(105,-187,ls),
(91,-196,o),
(89,-210,o),
(100,-224,cs),
(149,-285,o),
(222,-308,o),
(293,-308,cs)
);
},
{
closed = 1;
nodes = (
(410,-10,o),
(532,65,o),
(532,250,cs),
(532,406,o),
(418,504,o),
(291,504,cs),
(164,504,o),
(50,406,o),
(50,250,cs),
(50,65,o),
(171,-10,o),
(291,-10,cs)
);
},
{
closed = 1;
nodes = (
(198,40,o),
(105,103,o),
(105,249,cs),
(105,373,o),
(194,454,o),
(291,454,cs),
(388,454,o),
(477,373,o),
(477,249,cs),
(477,103,o),
(383,40,o),
(291,40,cs)
);
}
);
width = 612;
},
{
layerId = m003;
shapes = (
{
closed = 1;
nodes = (
(308,234,ls),
(324,234,o),
(334,243,o),
(334,259,cs),
(334,275,o),
(325,284,o),
(308,284,cs),
(100,284,ls),
(84,284,o),
(74,275,o),
(74,259,cs),
(74,243,o),
(84,234,o),
(100,234,cs)
);
},
{
closed = 1;
nodes = (
(307,14,o),
(317,24,o),
(317,40,cs),
(317,448,ls),
(317,464,o),
(307,474,o),
(289,474,cs),
(271,474,o),
(262,464,o),
(262,448,cs),
(262,40,ls),
(262,24,o),
(271,14,o),
(289,14,cs)
);
},
{
closed = 1;
nodes = (
(307,14,o),
(317,24,o),
(317,40,cs),
(317,448,ls),
(317,464,o),
(307,474,o),
(289,474,cs),
(271,474,o),
(262,464,o),
(262,448,cs),
(262,40,ls),
(262,24,o),
(271,14,o),
(289,14,cs)
);
},
{
closed = 1;
nodes = (
(478,234,ls),
(494,234,o),
(504,243,o),
(504,259,cs),
(504,275,o),
(495,284,o),
(478,284,cs),
(270,284,ls),
(254,284,o),
(244,275,o),
(244,259,cs),
(244,243,o),
(254,234,o),
(270,234,cs)
);
},
{
closed = 1;
nodes = (
(410,-308,o),
(532,-234,o),
(532,-53,cs),
(532,473,ls),
(532,489,o),
(523,499,o),
(505,499,cs),
(487,499,o),
(477,489,o),
(477,473,cs),
(477,-53,ls),
(477,-196,o),
(385,-255,o),
(293,-255,cs),
(237,-255,o),
(182,-238,o),
(144,-191,cs),
(133,-177,o),
(121,-174,o),
(108,-185,cs),
(105,-187,ls),
(92,-197,o),
(89,-210,o),
(100,-224,cs),
(149,-285,o),
(222,-308,o),
(293,-308,cs)
);
},
{
closed = 1;
nodes = (
(410,-10,o),
(532,65,o),
(532,250,cs),
(532,406,o),
(418,504,o),
(291,504,cs),
(164,504,o),
(50,406,o),
(50,250,cs),
(50,65,o),
(171,-10,o),
(291,-10,cs)
);
},
{
closed = 1;
nodes = (
(198,40,o),
(105,103,o),
(105,249,cs),
(105,373,o),
(194,454,o),
(291,454,cs),
(388,454,o),
(477,373,o),
(477,249,cs),
(477,103,o),
(383,40,o),
(291,40,cs)
);
}
);
width = 612;
},
{
layerId = m004;
shapes = (
{
closed = 1;
nodes = (
(410,-268,o),
(532,-194,o),
(532,-13,cs),
(532,469,ls),
(532,485,o),
(523,495,o),
(505,495,cs),
(487,495,o),
(477,485,o),
(477,469,cs),
(477,-13,ls),
(477,-156,o),
(385,-215,o),
(293,-215,cs),
(237,-215,o),
(182,-198,o),
(144,-151,cs),
(133,-137,o),
(115,-128,o),
(99,-141,cs),
(86,-151,o),
(89,-170,o),
(100,-184,cs),
(149,-245,o),
(222,-268,o),
(293,-268,cs)
);
},
{
closed = 1;
nodes = (
(410,-10,o),
(512,65,o),
(512,250,cs),
(512,406,o),
(418,504,o),
(291,504,cs),
(164,504,o),
(50,406,o),
(50,250,cs),
(50,65,o),
(171,-10,o),
(291,-10,cs)
);
},
{
closed = 1;
nodes = (
(198,40,o),
(105,103,o),
(105,249,cs),
(105,373,o),
(194,454,o),
(291,454,cs),
(388,454,o),
(477,373,o),
(477,249,cs),
(477,103,o),
(383,40,o),
(291,40,cs)
);
}
);
width = 612;
}
);
unicode = 103;
},
{
color = 5;
glyphname = h;
lastChange = "2023-11-23 09:59:54 +0000";
layers = (
{
guides = (
{
angle = 270;
pos = (319,240);
showMeasurement = 1;
}
);
layerId = m01;
shapes = (
{
closed = 1;
nodes = (
(135,249,l),
(135,250,ls),
(135,393,o),
(227,452,o),
(319,452,cs),
(412,452,o),
(504,393,o),
(504,250,c),
(559,250,l),
(559,431,o),
(437,505,o),
(319,505,cs),
(202,505,o),
(80,431,o),
(80,250,cs),
(80,249,l)
);
},
{
closed = 1;
nodes = (
(125,-4,o),
(135,6,o),
(135,22,cs),
(135,700,ls),
(135,716,o),
(125,726,o),
(107,726,cs),
(89,726,o),
(80,717,o),
(80,700,cs),
(80,22,ls),
(80,6,o),
(89,-4,o),
(107,-4,cs)
);
},
{
closed = 1;
nodes = (
(549,-4,o),
(559,6,o),
(559,22,cs),
(559,250,ls),
(559,266,o),
(549,276,o),
(531,276,cs),
(513,276,o),
(504,267,o),
(504,250,cs),
(504,22,ls),
(504,6,o),
(513,-4,o),
(531,-4,cs)
);
},
{
closed = 1;
nodes = (
(337,-4,o),
(347,6,o),
(347,22,cs),
(347,156,ls),
(347,172,o),
(337,182,o),
(319,182,cs),
(301,182,o),
(292,173,o),
(292,156,cs),
(292,22,ls),
(292,6,o),
(301,-4,o),
(319,-4,cs)
);
},
{
closed = 1;
nodes = (
(244,231,o),
(254,222,o),
(270,222,cs),
(368,222,ls),
(384,222,o),
(394,231,o),
(394,247,cs),
(394,263,o),
(384,272,o),
(368,272,cs),
(270,272,ls),
(254,272,o),
(244,263,o),
(244,247,cs)
);
},
{
closed = 1;
nodes = (
(244,151,o),
(254,142,o),
(270,142,cs),
(368,142,ls),
(384,142,o),
(394,151,o),
(394,167,cs),
(394,183,o),
(384,192,o),
(368,192,cs),
(270,192,ls),
(254,192,o),
(244,183,o),
(244,167,cs)
);
},
{
closed = 1;
nodes = (
(337,231,o),
(347,241,o),
(347,257,cs),
(347,451,ls),
(347,467,o),
(337,477,o),
(319,477,cs),
(301,477,o),
(292,468,o),
(292,451,cs),
(292,257,ls),
(292,241,o),
(301,231,o),
(319,231,cs)
);
}
);
width = 619;
},
{
layerId = m002;
shapes = (
{
closed = 1;
nodes = (
(135,249,l),
(135,250,ls),
(135,393,o),
(227,452,o),
(319,452,cs),
(412,452,o),
(504,393,o),
(504,250,c),
(559,250,l),
(559,431,o),
(437,505,o),
(319,505,cs),
(202,505,o),
(80,431,o),
(80,250,cs),
(80,249,l)
);
},
{
closed = 1;
nodes = (
(125,-4,o),
(135,6,o),
(135,22,cs),
(135,700,ls),
(135,716,o),
(125,726,o),
(107,726,cs),
(89,726,o),
(80,717,o),
(80,700,cs),
(80,22,ls),
(80,6,o),
(89,-4,o),
(107,-4,cs)
);
},
{
closed = 1;
nodes = (
(549,-4,o),
(559,6,o),
(559,22,cs),
(559,250,ls),
(559,266,o),
(549,276,o),
(531,276,cs),
(513,276,o),
(504,267,o),
(504,250,cs),
(504,22,ls),
(504,6,o),
(513,-4,o),
(531,-4,cs)
);
},
{
closed = 1;
nodes = (
(337,-4,o),
(347,6,o),
(347,22,cs),
(347,246,ls),
(347,262,o),
(337,272,o),
(319,272,cs),
(301,272,o),
(292,263,o),
(292,246,cs),
(292,22,ls),
(292,6,o),
(301,-4,o),
(319,-4,cs)
);
},
{
closed = 1;
nodes = (
(244,231,o),
(254,222,o),
(270,222,cs),
(368,222,ls),
(384,222,o),
(394,231,o),
(394,247,cs),
(394,263,o),
(384,272,o),
(368,272,cs),
(270,272,ls),
(254,272,o),
(244,263,o),
(244,247,cs)
);
},
{
closed = 1;
nodes = (
(244,151,o),
(254,142,o),
(270,142,cs),
(368,142,ls),
(384,142,o),
(394,151,o),
(394,167,cs),
(394,183,o),
(384,192,o),
(368,192,cs),
(270,192,ls),
(254,192,o),
(244,183,o),
(244,167,cs)
);
},
{
closed = 1;
nodes = (
(337,201,o),
(347,211,o),
(347,227,cs),
(347,451,ls),
(347,467,o),
(337,477,o),
(319,477,cs),
(301,477,o),
(292,468,o),
(292,451,cs),
(292,227,ls),
(292,211,o),
(301,201,o),
(319,201,cs)
);
}
);
width = 619;
},
{
layerId = m003;
shapes = (
{
closed = 1;
nodes = (
(135,249,l),
(135,250,ls),
(135,393,o),
(227,452,o),
(319,452,cs),
(412,452,o),
(504,393,o),
(504,250,c),
(559,250,l),
(559,431,o),
(437,505,o),
(319,505,cs),
(202,505,o),
(80,431,o),
(80,250,cs),
(80,249,l)
);
},
{
closed = 1;
nodes = (
(125,-4,o),
(135,6,o),
(135,22,cs),
(135,700,ls),
(135,716,o),
(125,726,o),
(107,726,cs),
(89,726,o),
(80,717,o),
(80,700,cs),
(80,22,ls),
(80,6,o),
(89,-4,o),
(107,-4,cs)
);
},
{
closed = 1;
nodes = (
(549,-4,o),
(559,6,o),
(559,22,cs),
(559,250,ls),
(559,266,o),
(549,276,o),
(531,276,cs),
(513,276,o),
(504,267,o),
(504,250,cs),
(504,22,ls),
(504,6,o),
(513,-4,o),
(531,-4,cs)
);
},
{
closed = 1;
nodes = (
(337,188,o),
(347,198,o),
(347,214,cs),
(347,438,ls),
(347,454,o),
(337,464,o),
(319,464,cs),
(301,464,o),
(292,455,o),
(292,438,cs),
(292,214,ls),
(292,198,o),
(301,188,o),
(319,188,cs)
);
},
{
closed = 1;
nodes = (
(244,191,o),
(254,182,o),
(270,182,cs),
(368,182,ls),
(384,182,o),
(394,191,o),
(394,207,cs),
(394,223,o),
(384,232,o),
(368,232,cs),
(270,232,ls),
(254,232,o),
(244,223,o),
(244,207,cs)
);
},
{
closed = 1;
nodes = (
(244,191,o),
(254,182,o),
(270,182,cs),
(368,182,ls),
(384,182,o),
(394,191,o),
(394,207,cs),
(394,223,o),
(384,232,o),
(368,232,cs),
(270,232,ls),
(254,232,o),
(244,223,o),
(244,207,cs)
);
},
{
closed = 1;
nodes = (
(337,201,o),
(347,211,o),
(347,227,cs),
(347,451,ls),
(347,467,o),
(337,477,o),
(319,477,cs),
(301,477,o),
(292,468,o),
(292,451,cs),
(292,227,ls),
(292,211,o),
(301,201,o),
(319,201,cs)
);
}
);
width = 619;
},
{
background = {
shapes = (
{
closed = 1;
nodes = (
(106,-1,o),
(117,8,o),
(118,20,cs),
(131,126,o),
(136,241,o),
(130,365,cs),
(124,480,o),
(110,612,o),
(92,706,cs),
(89,719,o),
(79,727,o),
(65,726,cs),
(47,725,o),
(35,711,o),
(39,693,cs),
(56,603,o),
(69,475,o),
(75,362,cs),
(81,243,o),
(78,132,o),
(64,31,cs),
(61,12,o),
(75,-2,o),
(94,-1,cs)
);
}
);
};
guides = (
{
angle = 270;
pos = (277,240);
showMeasurement = 1;
}
);
layerId = m004;
shapes = (
{
closed = 1;
nodes = (
(133,249,l),
(133,250,ls),
(133,393,o),
(215,452,o),
(287,452,cs),
(360,452,o),
(442,393,o),
(442,250,c),
(497,250,l),
(497,431,o),
(385,505,o),
(287,505,cs),
(190,505,o),
(98,431,o),
(98,250,cs),
(98,249,l)
);
},
{
closed = 1;
nodes = (
(487,-4,o),
(497,6,o),
(497,22,cs),
(497,250,ls),
(497,266,o),
(487,276,o),
(469,276,cs),
(451,276,o),
(442,267,o),
(442,250,cs),
(442,22,ls),
(442,6,o),
(451,-4,o),
(469,-4,cs)
);
},
{
closed = 1;
nodes = (
(123,-4,o),
(133,6,o),
(133,22,cs),
(133,700,ls),
(133,716,o),
(123,726,o),
(105,726,cs),
(87,726,o),
(78,717,o),
(78,700,cs),
(78,22,ls),
(78,6,o),
(87,-4,o),
(105,-4,cs)
);
}
);
width = 537;
}
);
metricLeft = n;
metricRight = n;
unicode = 104;
},
{
color = 5;
glyphname = i;
lastChange = "2023-11-07 13:59:51 +0000";
layers = (
{
layerId = m01;
shapes = (
{
closed = 1;
nodes = (
(173,-4,o),
(183,6,o),
(183,22,cs),
(183,464,ls),
(183,480,o),
(173,490,o),
(155,490,cs),
(137,490,o),
(128,481,o),
(128,464,cs),
(128,22,ls),
(128,6,o),
(137,-4,o),
(155,-4,cs)
);
},
{
closed = 1;
nodes = (
(80,459,o),
(90,450,o),
(106,450,cs),
(204,450,ls),
(220,450,o),
(230,459,o),
(230,475,cs),
(230,491,o),
(220,500,o),
(204,500,cs),
(106,500,ls),
(90,500,o),
(80,491,o),
(80,475,cs)
);
},
{
closed = 1;
nodes = (
(80,379,o),
(90,370,o),
(106,370,cs),
(204,370,ls),
(220,370,o),
(230,379,o),
(230,395,cs),
(230,411,o),
(220,420,o),
(204,420,cs),
(106,420,ls),
(90,420,o),
(80,411,o),
(80,395,cs)
);
},
{
closed = 1;
nodes = (
(196,550,o),
(230,584,o),
(230,625,cs),
(230,665,o),
(196,699,o),
(155,699,cs),
(114,699,o),
(80,665,o),
(80,625,cs),
(80,584,o),
(114,550,o),
(155,550,cs)
);
}
);
width = 310;
},
{
background = {
shapes = (
{
closed = 1;
nodes = (
(80,459,o),
(90,450,o),
(106,450,cs),
(204,450,ls),
(220,450,o),
(230,459,o),
(230,475,cs),
(230,491,o),
(220,500,o),
(204,500,cs),
(106,500,ls),
(90,500,o),
(80,491,o),
(80,475,cs)
);
},
{
closed = 1;
nodes = (
(80,379,o),
(90,370,o),
(106,370,cs),
(204,370,ls),
(220,370,o),
(230,379,o),
(230,395,cs),
(230,411,o),
(220,420,o),
(204,420,cs),
(106,420,ls),
(90,420,o),
(80,411,o),
(80,395,cs)
);
}
);
};
layerId = m002;
shapes = (
{
closed = 1;
nodes = (
(173,-4,o),
(183,6,o),
(183,22,cs),
(183,391,ls),
(183,407,o),
(174,417,o),
(155,417,cs),
(137,417,o),
(128,408,o),
(128,391,cs),
(128,22,ls),
(128,6,o),
(137,-4,o),
(155,-4,cs)
);
},
{
closed = 1;
nodes = (
(196,550,o),
(230,584,o),
(230,625,cs),
(230,665,o),
(196,699,o),
(155,699,cs),
(114,699,o),
(80,665,o),
(80,625,cs),
(80,584,o),
(114,550,o),
(155,550,cs)
);
}
);
width = 310;
},
{
layerId = m003;
shapes = (
{
closed = 1;
nodes = (
(220,-4,o),
(230,6,o),
(230,22,cs),
(230,473,ls),
(230,489,o),
(220,499,o),
(202,499,cs),
(184,499,o),
(175,490,o),
(175,473,cs),
(175,22,ls),
(175,6,o),
(184,-4,o),
(202,-4,cs)
);
},
{
closed = 1;
nodes = (
(80,459,o),
(90,450,o),
(106,450,cs),
(204,450,ls),
(220,450,o),
(230,459,o),
(230,475,cs),
(230,491,o),
(220,500,o),
(204,500,cs),
(106,500,ls),
(90,500,o),
(80,491,o),
(80,475,cs)
);
},
{
closed = 1;
nodes = (
(80,379,o),
(90,370,o),
(106,370,cs),
(204,370,ls),
(220,370,o),
(230,379,o),
(230,395,cs),
(230,411,o),
(220,420,o),
(204,420,cs),
(106,420,ls),
(90,420,o),
(80,411,o),
(80,395,cs)
);
},
{
closed = 1;
nodes = (
(196,550,o),
(230,584,o),
(230,625,cs),
(230,665,o),
(196,699,o),
(155,699,cs),
(114,699,o),
(80,665,o),
(80,625,cs),
(80,584,o),
(114,550,o),
(155,550,cs)
);
}
);
width = 310;
},
{
layerId = m004;
shapes = (
{
closed = 1;
nodes = (
(173,-4,o),
(183,6,o),
(183,22,cs),
(183,464,ls),
(183,480,o),
(173,490,o),
(155,490,cs),
(137,490,o),
(128,481,o),
(128,464,cs),
(128,22,ls),
(128,6,o),
(137,-4,o),
(155,-4,cs)
);
},
{
closed = 1;
nodes = (
(186,569,o),
(211,594,o),
(211,625,cs),
(211,655,o),
(186,680,o),
(155,680,cs),
(124,680,o),
(99,655,o),
(99,625,cs),
(99,594,o),
(124,569,o),
(155,569,cs)
);
}
);
width = 310;
}
);
unicode = 105;
},
{
color = 5;
glyphname = m;
lastChange = "2023-11-23 10:36:35 +0000";
layers = (
{
guides = (
{
angle = 270;
pos = (405,237);
showMeasurement = 1;
}
);
layerId = m01;
shapes = (
{
closed = 1;
nodes = (
(130,-4,o),
(140,6,o),
(140,22,cs),
(140,479,ls),
(140,495,o),
(130,505,o),
(112,505,cs),
(94,505,o),
(85,496,o),
(85,479,cs),
(85,22,ls),
(85,6,o),
(94,-4,o),
(112,-4,cs)
);
},
{
closed = 1;
nodes = (
(423,-4,o),
(433,9,o),
(433,22,cs),
(433,254,ls),
(433,267,o),
(423,280,o),
(405,280,cs),
(387,280,o),
(378,268,o),
(378,254,cs),
(378,22,ls),
(378,9,o),
(387,-4,o),
(405,-4,cs)
);
},
{
closed = 1;
nodes = (
(326,259,o),
(336,250,o),
(352,250,cs),
(458,250,ls),
(474,250,o),
(484,259,o),
(484,275,cs),
(484,291,o),
(474,300,o),
(458,300,cs),
(352,300,ls),
(336,300,o),
(326,291,o),
(326,275,cs)
);
},
{
closed = 1;
nodes = (
(325,159,o),
(335,150,o),
(351,150,cs),
(458,150,ls),
(474,150,o),
(484,159,o),
(484,175,cs),
(484,191,o),
(474,200,o),
(458,200,cs),
(351,200,ls),
(335,200,o),
(325,191,o),
(325,175,cs)
);
},
{
closed = 1;
nodes = (
(714,-3,o),
(724,7,o),
(724,23,cs),
(724,278,ls),
(724,294,o),
(714,304,o),
(696,304,cs),
(678,304,o),
(669,295,o),
(669,278,cs),
(669,23,ls),
(669,7,o),
(678,-3,o),
(696,-3,cs)
);
},
{
closed = 1;
nodes = (
(131,249,o),
(140,250,o),
(140,250,cs),
(140,370,o),
(184,455,o),
(285,455,c),
(385,455,o),
(419,386,o),
(429,276,cs),
(430,259,o),
(439,250,o),
(455,250,cs),
(458,250,ls),
(475,250,o),
(485,259,o),
(484,277,cs),
(473,411,o),
(422,505,o),
(285,505,c),
(157,505,o),
(85,404,o),
(85,250,c)
);
},
{
closed = 1;
nodes = (
(355,250,ls),
(371,250,o),
(380,259,o),
(381,276,cs),
(390,383,o),
(431,456,o),
(525,456,cs),
(625,456,o),
(659,387,o),
(669,277,cs),
(670,260,o),
(679,251,o),
(695,251,cs),
(698,251,ls),
(715,251,o),
(725,260,o),
(724,278,cs),
(713,412,o),
(662,506,o),
(525,506,cs),
(405,506,o),
(336,417,o),
(326,277,cs),
(325,259,o),
(334,250,o),
(351,250,cs)
);
}
);
width = 784;
},
{
layerId = m002;
shapes = (
{
closed = 1;
nodes = (
(130,-4,o),
(140,6,o),
(140,22,cs),
(140,479,ls),
(140,495,o),
(130,505,o),
(112,505,cs),
(94,505,o),
(85,496,o),
(85,479,cs),
(85,22,ls),
(85,6,o),
(94,-4,o),
(112,-4,cs)
);
},
{
closed = 1;
nodes = (
(423,-4,o),
(433,9,o),
(433,22,cs),
(433,170,ls),
(433,183,o),
(423,196,o),
(405,196,cs),
(387,196,o),
(378,184,o),
(378,170,cs),
(378,22,ls),
(378,9,o),
(387,-4,o),
(405,-4,cs)
);
},
{
closed = 1;
nodes = (
(326,259,o),
(336,250,o),
(352,250,cs),
(458,250,ls),
(474,250,o),
(484,259,o),
(484,275,cs),
(484,291,o),
(474,300,o),
(458,300,cs),
(352,300,ls),
(336,300,o),
(326,291,o),
(326,275,cs)
);
},
{
closed = 1;
nodes = (
(325,159,o),
(335,150,o),
(351,150,cs),
(458,150,ls),
(474,150,o),
(484,159,o),
(484,175,cs),
(484,191,o),
(474,200,o),
(458,200,cs),
(351,200,ls),
(335,200,o),
(325,191,o),
(325,175,cs)
);
},
{
closed = 1;
nodes = (
(714,-3,o),
(724,7,o),
(724,23,cs),
(724,278,ls),
(724,294,o),
(714,304,o),
(696,304,cs),
(678,304,o),
(669,295,o),
(669,278,cs),
(669,23,ls),
(669,7,o),
(678,-3,o),
(696,-3,cs)
);
},
{
closed = 1;
nodes = (
(134,249,o),
(118,250,o),
(140,250,c),
(140,370,o),
(184,455,o),
(285,455,c),
(385,455,o),
(419,386,o),
(429,276,cs),
(430,259,o),
(439,250,o),
(455,250,cs),
(458,250,ls),
(475,250,o),
(485,259,o),
(484,277,cs),
(473,411,o),
(422,505,o),
(285,505,c),
(157,505,o),
(85,404,o),
(85,250,c)
);
},
{
closed = 1;
nodes = (
(355,250,ls),
(371,250,o),
(380,259,o),
(381,276,cs),
(390,383,o),
(431,456,o),
(525,456,cs),
(625,456,o),
(659,387,o),
(669,277,cs),
(670,260,o),
(679,251,o),
(695,251,cs),
(698,251,ls),
(715,251,o),
(725,260,o),
(724,278,cs),
(713,412,o),
(662,506,o),
(525,506,cs),
(405,506,o),
(336,417,o),
(326,277,cs),
(325,259,o),
(334,250,o),
(351,250,cs)
);
}
);
width = 784;
},
{
layerId = m003;
shapes = (
{
closed = 1;
nodes = (
(130,-4,o),
(140,6,o),
(140,22,cs),
(140,479,ls),
(140,495,o),
(130,505,o),
(112,505,cs),
(94,505,o),
(85,496,o),
(85,479,cs),
(85,22,ls),
(85,6,o),
(94,-4,o),
(112,-4,cs)
);
},
{
closed = 1;
nodes = (
(469,188,o),
(457,198,o),
(443,198,cs),
(368,198,ls),
(355,198,o),
(342,188,o),
(342,170,cs),
(342,152,o),
(354,150,o),
(368,150,cs),
(443,150,ls),
(457,150,o),
(469,152,o),
(469,170,cs)
);
},
{
closed = 1;
nodes = (
(326,259,o),
(336,250,o),
(352,250,cs),
(458,250,ls),
(474,250,o),
(484,259,o),
(484,275,cs),
(484,291,o),
(474,300,o),
(458,300,cs),
(352,300,ls),
(336,300,o),
(326,291,o),
(326,275,cs)
);
},
{
closed = 1;
nodes = (
(325,159,o),
(335,150,o),
(351,150,cs),
(458,150,ls),
(474,150,o),
(484,159,o),
(484,175,cs),
(484,191,o),
(474,200,o),
(458,200,cs),
(351,200,ls),
(335,200,o),
(325,191,o),
(325,175,cs)
);
},
{
closed = 1;
nodes = (
(714,-3,o),
(724,7,o),
(724,23,cs),
(724,278,ls),
(724,294,o),
(714,304,o),
(696,304,cs),
(678,304,o),
(669,295,o),
(669,278,cs),
(669,23,ls),
(669,7,o),
(678,-3,o),
(696,-3,cs)
);
},
{
closed = 1;
nodes = (
(134,249,o),
(118,248,o),
(140,250,cs),
(140,370,o),
(184,455,o),
(285,455,c),
(385,455,o),
(419,386,o),
(429,276,cs),
(430,259,o),
(439,250,o),
(455,250,cs),
(458,250,ls),
(475,250,o),
(485,259,o),
(484,277,cs),
(473,411,o),
(422,505,o),
(285,505,c),
(157,505,o),
(85,404,o),
(85,250,c)
);
},
{
closed = 1;
nodes = (
(355,250,ls),
(371,250,o),
(380,259,o),
(381,276,cs),
(390,383,o),
(431,456,o),
(525,456,cs),
(625,456,o),
(659,387,o),
(669,277,cs),
(670,260,o),
(679,251,o),
(695,251,cs),
(698,251,ls),
(715,251,o),
(725,260,o),
(724,278,cs),
(713,412,o),
(662,506,o),
(525,506,cs),
(405,506,o),
(336,417,o),
(326,277,cs),
(325,259,o),
(334,250,o),
(351,250,cs)
);
}
);
width = 784;
},
{
background = {
shapes = (
{
closed = 1;
nodes = (
(714,-3,o),
(724,7,o),
(724,23,cs),
(724,243,ls),
(724,385,o),
(678,506,o),
(525,506,cs),
(481,506,o),
(440,493,o),
(407,468,c),
(375,492,o),
(334,505,o),
(285,505,cs),
(167,505,o),
(85,404,o),
(85,250,c),
(140,250,l),
(140,370,o),
(184,455,o),
(285,455,cs),
(319,455,o),
(344,448,o),
(365,436,c),
(330,397,o),
(306,331,o),
(306,267,cs),
(306,174,o),
(352,112,o),
(404,112,cs),
(445,112,o),
(504,165,o),
(504,267,cs),
(504,331,o),
(479,392,o),
(443,430,c),
(466,447,o),
(494,456,o),
(525,456,cs),
(625,456,o),
(669,357,o),
(669,247,cs),
(669,23,ls),
(669,7,o),
(678,-3,o),
(696,-3,cs)
);
},
{
closed = 1;
nodes = (
(361,309,o),
(377,358,o),
(400,388,cs),
(403,392,o),
(407,392,o),
(411,387,cs),
(433,358,o),
(449,308,o),
(449,266,cs),
(449,197,o),
(429,172,o),
(405,172,cs),
(380,172,o),
(361,202,o),
(361,267,cs)
);
},
{
closed = 1;
nodes = (
(78,31,ls),
(76,12,o),
(89,-2,o),
(108,-1,cs),
(120,-1,o),
(131,8,o),
(132,20,cs),
(141,89,o),
(144,177,o),
(140,253,cs),
(135,341,o),
(130,406,o),
(114,488,cs),
(111,501,o),
(101,509,o),
(87,508,cs),
(69,507,o),
(57,493,o),
(61,475,cs),
(73,404,o),
(79,346,o),
(84,251,cs),
(88,176,o),
(87,106,o),
(81,57,cs)
);
}
);
};
guides = (
{
angle = 120.8838;
pos = (184,357);
showMeasurement = 1;
}
);
layerId = m004;
shapes = (
{
closed = 1;
nodes = (
(130,-4,o),
(140,6,o),
(140,22,cs),
(140,479,ls),
(140,495,o),
(130,505,o),
(112,505,cs),
(94,505,o),
(85,496,o),
(85,479,cs),
(85,22,ls),
(85,6,o),
(94,-4,o),
(112,-4,cs)
);
},
{
closed = 1;
nodes = (
(422,-4,o),
(432,6,o),
(432,22,cs),
(432,274,ls),
(432,290,o),
(422,300,o),
(404,300,cs),
(386,300,o),
(377,291,o),
(377,274,cs),
(377,22,ls),
(377,6,o),
(386,-4,o),
(404,-4,cs)
);
},
{
closed = 1;
nodes = (
(137,250,l),
(137,393,o),
(209,455,o),
(271,455,cs),
(334,455,o),
(377,393,o),
(377,250,c),
(432,250,l),
(432,441,o),
(359,505,o),
(271,505,cs),
(184,505,o),
(102,431,o),
(102,250,c)
);
},
{
closed = 1;
nodes = (
(717,-4,o),
(727,6,o),
(727,22,cs),
(727,256,ls),
(727,272,o),
(717,282,o),
(699,282,cs),
(681,282,o),
(672,273,o),
(672,256,cs),
(672,22,ls),
(672,6,o),
(681,-4,o),
(699,-4,cs)
);
},
{
closed = 1;
nodes = (
(432,252,l),
(432,395,o),
(504,457,o),
(566,457,cs),
(629,457,o),
(672,405,o),
(672,252,c),
(727,252,l),
(727,453,o),
(654,507,o),
(566,507,cs),
(479,507,o),
(397,433,o),
(397,252,c)
);
}
);
width = 784;
}
);
unicode = 109;
},
{
color = 5;
glyphname = n;
lastChange = "2023-11-23 09:59:20 +0000";
layers = (
{
guides = (
{
pos = (303,60);
showMeasurement = 1;
}
);
layerId = m01;
shapes = (
{
closed = 1;
nodes = (
(125,-4,o),
(135,6,o),
(135,22,cs),
(135,479,ls),
(135,495,o),
(125,505,o),
(107,505,cs),
(89,505,o),
(80,496,o),
(80,479,cs),
(80,22,ls),
(80,6,o),
(89,-4,o),
(107,-4,cs)
);
},
{
closed = 1;
nodes = (
(135,249,l),
(135,250,ls),
(135,393,o),
(207,455,o),
(299,455,cs),
(392,455,o),
(454,393,o),
(454,250,c),
(509,250,l),
(509,431,o),
(417,505,o),
(299,505,cs),
(182,505,o),
(80,431,o),
(80,250,cs),
(80,249,l)
);
},
{
closed = 1;
nodes = (
(499,-4,o),
(509,6,o),
(509,22,cs),
(509,250,ls),
(509,266,o),
(499,276,o),
(481,276,cs),
(463,276,o),
(454,267,o),
(454,250,cs),
(454,22,ls),
(454,6,o),
(463,-4,o),
(481,-4,cs)
);
},
{
closed = 1;
nodes = (
(317,-4,o),
(327,6,o),
(327,22,cs),
(327,156,ls),
(327,172,o),
(317,182,o),
(299,182,cs),
(281,182,o),
(272,173,o),
(272,156,cs),
(272,22,ls),
(272,6,o),
(281,-4,o),
(299,-4,cs)
);
},
{
closed = 1;
nodes = (
(224,231,o),
(234,222,o),
(250,222,cs),
(348,222,ls),
(364,222,o),
(374,231,o),
(374,247,cs),
(374,263,o),
(364,272,o),
(348,272,cs),
(250,272,ls),
(234,272,o),
(224,263,o),
(224,247,cs)
);
},
{
closed = 1;
nodes = (
(224,151,o),
(234,142,o),
(250,142,cs),
(348,142,ls),
(364,142,o),
(374,151,o),
(374,167,cs),
(374,183,o),
(364,192,o),
(348,192,cs),
(250,192,ls),
(234,192,o),
(224,183,o),
(224,167,cs)
);
},
{
closed = 1;
nodes = (
(317,231,o),
(327,241,o),
(327,257,cs),
(327,451,ls),
(327,467,o),
(317,477,o),
(299,477,cs),
(281,477,o),
(272,468,o),
(272,451,cs),
(272,257,ls),
(272,241,o),
(281,231,o),
(299,231,cs)
);
}
);
width = 569;
},
{
layerId = m002;
shapes = (
{
closed = 1;
nodes = (
(125,-4,o),
(135,6,o),
(135,22,cs),
(135,479,ls),
(135,495,o),
(125,505,o),
(107,505,cs),
(89,505,o),
(80,496,o),
(80,479,cs),
(80,22,ls),
(80,6,o),
(89,-4,o),
(107,-4,cs)
);
},
{
closed = 1;
nodes = (
(135,249,l),
(135,250,ls),
(135,393,o),
(207,455,o),
(299,455,cs),
(392,455,o),
(454,393,o),
(454,250,c),
(509,250,l),
(509,431,o),
(417,505,o),
(299,505,cs),
(182,505,o),
(80,431,o),
(80,250,cs),
(80,249,l)
);
},
{
closed = 1;
nodes = (
(499,-4,o),
(509,6,o),
(509,22,cs),
(509,250,ls),
(509,266,o),
(499,276,o),
(481,276,cs),
(463,276,o),
(454,267,o),
(454,250,cs),
(454,22,ls),
(454,6,o),
(463,-4,o),
(481,-4,cs)
);
},
{
closed = 1;
nodes = (
(317,-4,o),
(327,6,o),
(327,22,cs),
(327,246,ls),
(327,262,o),
(317,272,o),
(299,272,cs),
(281,272,o),
(272,263,o),
(272,246,cs),
(272,22,ls),
(272,6,o),
(281,-4,o),
(299,-4,cs)
);
},
{
closed = 1;
nodes = (
(224,231,o),
(234,222,o),
(250,222,cs),
(348,222,ls),
(364,222,o),
(374,231,o),
(374,247,cs),
(374,263,o),
(364,272,o),
(348,272,cs),
(250,272,ls),
(234,272,o),
(224,263,o),
(224,247,cs)
);
},
{
closed = 1;
nodes = (
(224,151,o),
(234,142,o),
(250,142,cs),
(348,142,ls),
(364,142,o),
(374,151,o),
(374,167,cs),
(374,183,o),
(364,192,o),
(348,192,cs),
(250,192,ls),
(234,192,o),
(224,183,o),
(224,167,cs)
);
},
{
closed = 1;
nodes = (
(317,201,o),
(327,211,o),
(327,227,cs),
(327,451,ls),
(327,467,o),
(317,477,o),
(299,477,cs),
(281,477,o),
(272,468,o),
(272,451,cs),
(272,227,ls),
(272,211,o),
(281,201,o),
(299,201,cs)
);
}
);
width = 569;
},
{
layerId = m003;
shapes = (
{
closed = 1;
nodes = (
(125,-4,o),
(135,6,o),
(135,22,cs),
(135,479,ls),
(135,495,o),
(125,505,o),
(107,505,cs),
(89,505,o),
(80,496,o),
(80,479,cs),
(80,22,ls),
(80,6,o),
(89,-4,o),
(107,-4,cs)
);
},
{
closed = 1;
nodes = (
(135,249,l),
(135,250,ls),
(135,393,o),
(207,455,o),
(299,455,cs),
(392,455,o),
(454,393,o),
(454,250,c),
(509,250,l),
(509,431,o),
(417,505,o),
(299,505,cs),
(182,505,o),
(80,431,o),
(80,250,cs),
(80,249,l)
);
},
{
closed = 1;
nodes = (
(499,-4,o),
(509,6,o),
(509,22,cs),
(509,250,ls),
(509,266,o),
(499,276,o),
(481,276,cs),
(463,276,o),
(454,267,o),
(454,250,cs),
(454,22,ls),
(454,6,o),
(463,-4,o),
(481,-4,cs)
);
},
{
closed = 1;
nodes = (
(317,213,o),
(327,223,o),
(327,239,cs),
(327,423,ls),
(327,439,o),
(317,449,o),
(299,449,cs),
(281,449,o),
(272,440,o),
(272,423,cs),
(272,239,ls),
(272,223,o),
(281,213,o),
(299,213,cs)
);
},
{
closed = 1;
nodes = (
(224,191,o),
(234,182,o),
(250,182,cs),
(348,182,ls),
(364,182,o),
(374,191,o),
(374,207,cs),
(374,223,o),
(364,232,o),
(348,232,cs),
(250,232,ls),
(234,232,o),
(224,223,o),
(224,207,cs)
);
},
{
closed = 1;
nodes = (
(224,191,o),
(234,182,o),
(250,182,cs),
(348,182,ls),
(364,182,o),
(374,191,o),
(374,207,cs),
(374,223,o),
(364,232,o),
(348,232,cs),
(250,232,ls),
(234,232,o),
(224,223,o),
(224,207,cs)
);
},
{
closed = 1;
nodes = (
(317,181,o),
(327,191,o),
(327,207,cs),
(327,451,ls),
(327,467,o),
(317,477,o),
(299,477,cs),
(281,477,o),
(272,468,o),
(272,451,cs),
(272,207,ls),
(272,191,o),
(281,181,o),
(299,181,cs)
);
}
);
width = 569;
},
{
background = {
shapes = (
{
closed = 1;
nodes = (
(511,-4,o),
(521,6,o),
(521,22,cs),
(521,250,ls),
(521,266,o),
(511,276,o),
(493,276,cs),
(475,276,o),
(466,267,o),
(466,250,cs),
(466,22,ls),
(466,6,o),
(475,-4,o),
(493,-4,cs)
);
},
{
closed = 1;
nodes = (
(271,320,o),
(247,389,o),
(211,429,c),
(234,447,o),
(263,455,o),
(295,455,cs),
(420,455,o),
(466,372,o),
(466,250,c),
(521,250,l),
(521,401,o),
(452,505,o),
(295,505,cs),
(249,505,o),
(206,492,o),
(171,465,c),
(152,478,o),
(131,487,o),
(110,494,cs),
(105,496,o),
(100,497,o),
(95,497,cs),
(86,497,o),
(78,493,o),
(73,483,cs),
(71,479,o),
(70,475,o),
(70,472,cs),
(71,460,o),
(80,451,o),
(93,446,cs),
(108,441,o),
(122,435,o),
(135,426,c),
(107,385,o),
(78,320,o),
(78,210,cs),
(78,81,o),
(112,-5,o),
(174,-5,cs),
(239,-5,o),
(271,81,o),
(271,210,cs)
);
},
{
closed = 1;
nodes = (
(148,50,o),
(133,99,o),
(133,210,cs),
(133,292,o),
(150,345,o),
(168,379,cs),
(171,384,o),
(176,385,o),
(179,379,cs),
(201,346,o),
(214,293,o),
(214,210,cs),
(214,99,o),
(196,50,o),
(172,50,cs)
);
}
);
};
guides = (
{
pos = (295,60);
showMeasurement = 1;
}
);
layerId = m004;
shapes = (
{
closed = 1;
nodes = (
(123,-4,o),
(133,6,o),
(133,22,cs),
(133,479,ls),
(133,495,o),
(123,505,o),
(105,505,cs),
(87,505,o),
(78,496,o),
(78,479,cs),
(78,22,ls),
(78,6,o),
(87,-4,o),
(105,-4,cs)
);
},
{
closed = 1;
nodes = (
(127,250,l),
(127,393,o),
(219,455,o),
(311,455,cs),
(404,455,o),
(466,393,o),
(466,250,c),
(521,250,l),
(521,431,o),
(429,505,o),
(311,505,cs),
(194,505,o),
(92,431,o),
(92,250,c)
);
},
{
closed = 1;
nodes = (
(511,-4,o),
(521,6,o),
(521,22,cs),
(521,250,ls),
(521,266,o),
(511,276,o),
(493,276,cs),
(475,276,o),
(466,267,o),
(466,250,cs),
(466,22,ls),
(466,6,o),
(475,-4,o),
(493,-4,cs)
);
}
);
width = 581;
}
);
unicode = 110;
},
{
color = 5;
glyphname = o;
lastChange = "2023-11-15 19:08:03 +0000";
layers = (
{
guides = (
{
angle = 180;
pos = (310,250);
showMeasurement = 1;
}
);
layerId = m01;
shapes = (
{
closed = 1;
nodes = (
(446,-10,o),
(570,95,o),
(570,250,cs),
(570,434,o),
(438,510,o),
(310,510,cs),
(183,510,o),
(50,434,o),
(50,250,cs),
(50,95,o),
(174,-10,o),
(310,-10,cs)
);
},
{
closed = 1;
nodes = (
(206,40,o),
(105,126,o),
(105,250,cs),
(105,396,o),
(211,460,o),
(310,460,cs),
(408,460,o),
(515,398,o),
(515,252,cs),
(515,128,o),
(414,40,o),
(310,40,cs)
);
},
{
closed = 1;
nodes = (
(286,175,o),
(295,185,o),
(295,201,cs),
(295,299,ls),
(295,315,o),
(286,325,o),
(270,325,cs),
(254,325,o),
(245,315,o),
(245,299,cs),
(245,201,ls),
(245,185,o),
(254,175,o),
(270,175,cs)
);
},
{
closed = 1;
nodes = (
(366,175,o),
(375,185,o),
(375,201,cs),
(375,299,ls),
(375,315,o),
(366,325,o),
(350,325,cs),
(334,325,o),
(325,315,o),
(325,299,cs),
(325,201,ls),
(325,185,o),
(334,175,o),
(350,175,cs)
);
},
{
closed = 1;
nodes = (
(399,225,ls),
(415,225,o),
(425,234,o),
(425,250,cs),
(425,266,o),
(415,275,o),
(399,275,cs),
(351,275,ls),
(335,275,o),
(325,266,o),
(325,250,cs),
(325,234,o),
(334,225,o),
(351,225,cs)
);
},
{
closed = 1;
nodes = (
(269,225,ls),
(285,225,o),
(295,234,o),
(295,250,cs),
(295,266,o),
(285,275,o),
(269,275,cs),
(221,275,ls),
(205,275,o),
(195,266,o),
(195,250,cs),
(195,234,o),
(204,225,o),
(221,225,cs)
);
}
);
width = 620;
},
{
guides = (
{
angle = 180;
pos = (310,250);
showMeasurement = 1;
}
);
layerId = m002;
shapes = (
{
closed = 1;
nodes = (
(446,-10,o),
(570,95,o),
(570,250,cs),
(570,434,o),
(438,510,o),
(310,510,cs),
(183,510,o),
(50,434,o),
(50,250,cs),
(50,95,o),
(174,-10,o),
(310,-10,cs)
);
},
{
closed = 1;
nodes = (
(206,40,o),
(105,126,o),
(105,250,cs),
(105,396,o),
(211,460,o),
(310,460,cs),
(408,460,o),
(515,398,o),
(515,252,cs),
(515,128,o),
(414,40,o),
(310,40,cs)
);
},
{
closed = 1;
nodes = (
(326,175,o),
(335,185,o),
(335,201,cs),
(335,299,ls),
(335,315,o),
(326,325,o),
(310,325,cs),
(294,325,o),
(285,315,o),
(285,299,cs),
(285,201,ls),
(285,185,o),
(294,175,o),
(310,175,cs)
);
},
{
closed = 1;
nodes = (
(326,175,o),
(335,185,o),
(335,201,cs),
(335,299,ls),
(335,315,o),
(326,325,o),
(310,325,cs),
(294,325,o),
(285,315,o),
(285,299,cs),
(285,201,ls),
(285,185,o),
(294,175,o),
(310,175,cs)
);
},
{
closed = 1;
nodes = (
(359,225,ls),
(375,225,o),
(385,234,o),
(385,250,cs),
(385,266,o),
(375,275,o),
(359,275,cs),
(311,275,ls),
(295,275,o),
(285,266,o),
(285,250,cs),
(285,234,o),
(294,225,o),
(311,225,cs)
);
},
{
closed = 1;
nodes = (
(309,225,ls),
(325,225,o),
(335,234,o),
(335,250,cs),
(335,266,o),
(325,275,o),
(309,275,cs),
(261,275,ls),
(245,275,o),
(235,266,o),
(235,250,cs),
(235,234,o),
(244,225,o),
(261,225,cs)
);
}
);
width = 620;
},
{
guides = (
{
angle = 180;
pos = (310,250);
showMeasurement = 1;
}
);
layerId = m003;
shapes = (
{
closed = 1;
nodes = (
(446,-10,o),
(570,95,o),
(570,250,cs),
(570,434,o),
(438,510,o),
(310,510,cs),
(183,510,o),
(50,434,o),
(50,250,cs),
(50,95,o),
(174,-10,o),
(310,-10,cs)
);
},
{
closed = 1;
nodes = (
(206,40,o),
(105,126,o),
(105,250,cs),
(105,396,o),
(211,460,o),
(310,460,cs),
(408,460,o),
(515,398,o),
(515,252,cs),
(515,128,o),
(414,40,o),
(310,40,cs)
);
},
{
closed = 1;
nodes = (
(268,186,o),
(282,186,o),
(293,198,cs),
(362,267,ls),
(374,278,o),
(374,292,o),
(363,303,cs),
(352,314,o),
(338,314,o),
(327,302,cs),
(258,233,ls),
(246,222,o),
(246,208,o),
(257,197,cs)
);
},
{
closed = 1;
nodes = (
(268,186,o),
(282,186,o),
(293,198,cs),
(362,267,ls),
(374,278,o),
(374,292,o),
(363,303,cs),
(352,314,o),
(338,314,o),
(327,302,cs),
(258,233,ls),
(246,222,o),
(246,208,o),
(257,197,cs)
);
},
{
closed = 1;
nodes = (
(327,198,ls),
(338,186,o),
(352,186,o),
(363,197,cs),
(374,208,o),
(374,222,o),
(362,233,cs),
(328,267,ls),
(317,278,o),
(304,279,o),
(292,268,cs),
(281,256,o),
(281,244,o),
(293,232,cs)
);
},
{
closed = 1;
nodes = (
(292,233,ls),
(303,222,o),
(316,221,o),
(328,232,cs),
(339,244,o),
(338,257,o),
(327,268,cs),
(293,302,ls),
(282,314,o),
(268,314,o),
(257,303,cs),
(246,292,o),
(246,279,o),
(258,267,cs)
);
}
);
width = 620;
},
{
guides = (
{
angle = 180;
pos = (310,250);
showMeasurement = 1;
},
{
angle = 270;
pos = (310,250);
showMeasurement = 1;
}
);
layerId = m004;
shapes = (
{
closed = 1;
nodes = (
(446,-10,o),
(570,95,o),
(570,250,cs),
(570,434,o),
(438,510,o),
(310,510,cs),
(183,510,o),
(50,434,o),
(50,250,cs),
(50,95,o),
(174,-10,o),
(310,-10,cs)
);
},
{
closed = 1;
nodes = (
(206,40,o),
(105,126,o),
(105,250,cs),
(105,396,o),
(211,460,o),
(310,460,cs),
(408,460,o),
(515,398,o),
(515,252,cs),
(515,128,o),
(414,40,o),
(310,40,cs)
);
}
);
width = 620;
}
);
unicode = 111;
},
{
color = 5;
glyphname = r;
lastChange = "2023-11-23 10:18:17 +0000";
layers = (
{
guides = (
{
angle = 270;
pos = (173,224);
showMeasurement = 1;
},
{
angle = 180;
pos = (193,250);
showMeasurement = 1;
}
);
layerId = m01;
shapes = (
{
closed = 1;
nodes = (
(50,234,o),
(60,225,o),
(76,225,cs),
(113,225,ls),
(129,225,o),
(139,234,o),
(139,250,cs),
(139,266,o),
(129,275,o),
(113,275,cs),
(76,275,ls),
(60,275,o),
(50,266,o),
(50,250,cs)
);
},
{
closed = 1;
nodes = (
(236,234,o),
(246,225,o),
(262,225,cs),
(302,225,ls),
(318,225,o),
(328,234,o),
(328,250,cs),
(328,266,o),
(318,275,o),
(302,275,cs),
(262,275,ls),
(246,275,o),
(236,266,o),
(236,250,cs)
);
},
{
closed = 1;
nodes = (
(50,154,o),
(60,145,o),
(76,145,cs),
(113,145,ls),
(129,145,o),
(139,154,o),
(139,170,cs),
(139,186,o),
(129,195,o),
(113,195,cs),
(76,195,ls),
(60,195,o),
(50,186,o),
(50,170,cs)
);
},
{
closed = 1;
nodes = (
(236,154,o),
(246,145,o),
(262,145,cs),
(302,145,ls),
(318,145,o),
(328,154,o),
(328,170,cs),
(328,186,o),
(318,195,o),
(302,195,cs),
(262,195,ls),
(246,195,o),
(236,186,o),
(236,170,cs)
);
},
{
closed = 1;
nodes = (
(278,330,o),
(254,389,o),
(218,429,c),
(241,447,o),
(270,455,o),
(302,455,cs),
(334,455,o),
(363,447,o),
(387,430,cs),
(400,420,o),
(411,417,o),
(423,429,cs),
(424,430,ls),
(436,442,o),
(438,455,o),
(424,466,cs),
(390,493,o),
(347,505,o),
(302,505,cs),
(256,505,o),
(213,492,o),
(178,465,c),
(159,478,o),
(138,487,o),
(117,494,cs),
(102,499,o),
(91,494,o),
(84,479,cs),
(76,463,o),
(83,452,o),
(100,446,cs),
(115,441,o),
(129,435,o),
(142,426,c),
(114,385,o),
(87,330,o),
(87,220,cs),
(87,91,o),
(119,-5,o),
(181,-5,cs),
(246,-5,o),
(278,91,o),
(278,220,cs)
);
},
{
closed = 1;
nodes = (
(142,310,o),
(163,355,o),
(182,388,c),
(207,355,o),
(223,310,o),
(223,220,cs),
(223,99,o),
(205,50,o),
(181,50,cs),
(165,50,o),
(142,99,o),
(142,220,cs)
);
}
);
width = 454;
},
{
layerId = m002;
shapes = (
{
closed = 1;
nodes = (
(50,234,o),
(60,225,o),
(76,225,cs),
(223,225,ls),
(239,225,o),
(249,234,o),
(249,250,cs),
(249,266,o),
(239,275,o),
(223,275,cs),
(76,275,ls),
(60,275,o),
(50,266,o),
(50,250,cs)
);
},
{
closed = 1;
nodes = (
(196,234,o),
(206,225,o),
(222,225,cs),
(302,225,ls),
(318,225,o),
(328,234,o),
(328,250,cs),
(328,266,o),
(318,275,o),
(302,275,cs),
(222,275,ls),
(206,275,o),
(196,266,o),
(196,250,cs)
);
},
{
closed = 1;
nodes = (
(50,154,o),
(60,145,o),
(76,145,cs),
(223,145,ls),
(239,145,o),
(249,154,o),
(249,170,cs),
(249,186,o),
(239,195,o),
(223,195,cs),
(76,195,ls),
(60,195,o),
(50,186,o),
(50,170,cs)
);
},
{
closed = 1;
nodes = (
(196,154,o),
(206,145,o),
(222,145,cs),
(302,145,ls),
(318,145,o),
(328,154,o),
(328,170,cs),
(328,186,o),
(318,195,o),
(302,195,cs),
(222,195,ls),
(206,195,o),
(196,186,o),
(196,170,cs)
);
},
{
closed = 1;
nodes = (
(278,330,o),
(254,389,o),
(218,429,c),
(241,447,o),
(270,455,o),
(302,455,cs),
(334,455,o),
(363,447,o),
(387,430,cs),
(400,420,o),
(411,417,o),
(423,429,cs),
(424,430,ls),
(436,442,o),
(438,455,o),
(424,466,cs),
(390,493,o),
(347,505,o),
(302,505,cs),
(256,505,o),
(213,492,o),
(178,465,c),
(159,478,o),
(138,487,o),
(117,494,cs),
(102,499,o),
(91,494,o),
(84,479,cs),
(76,463,o),
(83,452,o),
(100,446,cs),
(115,441,o),
(129,435,o),
(142,426,c),
(114,385,o),
(87,330,o),
(87,220,cs),
(87,91,o),
(119,-5,o),
(181,-5,cs),
(246,-5,o),
(278,91,o),
(278,220,cs)
);
},
{
closed = 1;
nodes = (
(142,310,o),
(163,355,o),
(182,388,c),
(207,355,o),
(223,310,o),
(223,220,cs),
(223,99,o),
(205,50,o),
(181,50,cs),
(165,50,o),
(142,99,o),
(142,220,cs)
);
}
);
width = 454;
},
{
layerId = m003;
shapes = (
{
closed = 1;
nodes = (
(50,234,o),
(60,225,o),
(76,225,cs),
(223,225,ls),
(239,225,o),
(249,234,o),
(249,250,cs),
(249,266,o),
(239,275,o),
(223,275,cs),
(76,275,ls),
(60,275,o),
(50,266,o),
(50,250,cs)
);
},
{
closed = 1;
nodes = (
(196,234,o),
(206,225,o),
(222,225,cs),
(302,225,ls),
(318,225,o),
(328,234,o),
(328,250,cs),
(328,266,o),
(318,275,o),
(302,275,cs),
(222,275,ls),
(206,275,o),
(196,266,o),
(196,250,cs)
);
},
{
closed = 1;
nodes = (
(50,234,o),
(60,225,o),
(76,225,cs),
(223,225,ls),
(239,225,o),
(249,234,o),
(249,250,cs),
(249,266,o),
(239,275,o),
(223,275,cs),
(76,275,ls),
(60,275,o),
(50,266,o),
(50,250,cs)
);
},
{
closed = 1;
nodes = (
(196,234,o),
(206,225,o),
(222,225,cs),
(302,225,ls),
(318,225,o),
(328,234,o),
(328,250,cs),
(328,266,o),
(318,275,o),
(302,275,cs),
(222,275,ls),
(206,275,o),
(196,266,o),
(196,250,cs)
);
},
{
closed = 1;
nodes = (
(278,330,o),
(254,389,o),
(218,429,c),
(241,447,o),
(270,455,o),
(302,455,cs),
(334,455,o),
(363,447,o),
(387,430,cs),
(400,420,o),
(411,417,o),
(423,429,cs),
(424,430,ls),
(436,442,o),
(438,455,o),
(424,466,cs),
(390,493,o),
(347,505,o),
(302,505,cs),
(256,505,o),
(213,492,o),
(178,465,c),
(159,478,o),
(138,487,o),
(117,494,cs),
(102,499,o),
(91,494,o),
(84,479,cs),
(76,463,o),
(83,452,o),
(100,446,cs),
(115,441,o),
(129,435,o),
(142,426,c),
(114,385,o),
(87,330,o),
(87,220,cs),
(87,91,o),
(119,-5,o),
(181,-5,cs),
(246,-5,o),
(278,91,o),
(278,220,cs)
);
},
{
closed = 1;
nodes = (
(142,310,o),
(163,355,o),
(182,388,c),
(207,355,o),
(223,310,o),
(223,220,cs),
(223,99,o),
(205,50,o),
(181,50,cs),
(165,50,o),
(142,99,o),
(142,220,cs)
);
}
);
width = 454;
},
{
background = {
shapes = (
{
closed = 1;
nodes = (
(156,50,o),
(141,99,o),
(141,210,cs),
(141,292,o),
(158,345,o),
(176,379,cs),
(179,384,o),
(184,385,o),
(187,379,cs),
(209,346,o),
(222,293,o),
(222,210,cs),
(222,99,o),
(204,50,o),
(180,50,cs)
);
},
{
closed = 1;
nodes = (
(376,435,cs),
(401,416,o),
(418,414,o),
(431,430,cs),
(440,441,o),
(435,456,o),
(424,466,cs),
(418,471,ls),
(395,490,o),
(345,505,o),
(301,505,cs),
(261,505,o),
(207,487,o),
(172,460,c),
(157,470,o),
(141,478,o),
(125,484,cs),
(86,497,o),
(76,485,o),
(74,469,cs),
(73,458,o),
(80,447,o),
(92,442,cs),
(97,440,o),
(125,428,o),
(136,421,c),
(108,380,o),
(86,320,o),
(86,210,cs),
(86,91,o),
(118,-5,o),
(180,-5,cs),
(245,-5,o),
(277,91,o),
(277,210,cs),
(277,320,o),
(253,389,o),
(217,429,c),
(239,446,o),
(267,455,o),
(301,455,cs),
(339,455,o),
(358,449,o)
);
}
);
};
guides = (
{
angle = 270;
pos = (214,224);
showMeasurement = 1;
}
);
layerId = m004;
shapes = (
{
closed = 1;
nodes = (
(123,-4,o),
(133,6,o),
(133,22,cs),
(133,479,ls),
(133,495,o),
(123,505,o),
(105,505,cs),
(87,505,o),
(78,496,o),
(78,479,cs),
(78,22,ls),
(78,6,o),
(87,-4,o),
(105,-4,cs)
);
},
{
closed = 1;
nodes = (
(440,423,o),
(441,436,cs),
(442,445,o),
(437,457,o),
(421,468,cs),
(391,489,o),
(353,505,o),
(312,505,cs),
(195,505,o),
(90,421,o),
(90,240,c),
(127,250,l),
(127,393,o),
(219,455,o),
(311,455,cs),
(340,455,o),
(364,444,o),
(383,431,cs),
(396,421,o),
(406,416,o),
(415,415,cs),
(427,413,o)
);
}
);
width = 453;
}
);
unicode = 114;
},
{
color = 5;
glyphname = s;
lastChange = "2023-11-07 13:28:36 +0000";
layers = (
{
guides = (
{
angle = -23.554;
pos = (202,330);
showMeasurement = 1;
}
);
layerId = m01;
shapes = (
{
closed = 1;
nodes = (
(295,-10,o),
(366,43,o),
(366,137,cs),
(366,226,o),
(297,266,o),
(229,296,c),
(207,245,l),
(263,221,o),
(311,194,o),
(311,138,cs),
(311,88,o),
(276,46,o),
(205,46,cs),
(153,46,o),
(88,81,o),
(73,125,c),
(45,92,l),
(67,28,o),
(126,-10,o),
(201,-10,cs)
);
},
{
closed = 1;
nodes = (
(74,1,o),
(83,11,o),
(82,28,cs),
(79,126,ls),
(79,142,o),
(69,151,o),
(55,151,cs),
(38,151,o),
(29,141,o),
(30,124,cs),
(33,27,ls),
(34,10,o),
(43,0,o),
(60,1,cs)
);
},
{
closed = 1;
nodes = (
(143,220,o),
(156,224,o),
(163,239,cs),
(204,329,ls),
(210,342,o),
(207,355,o),
(194,362,cs),
(180,369,o),
(166,365,o),
(159,349,cs),
(119,260,ls),
(113,246,o),
(116,233,o),
(131,225,cs)
);
},
{
closed = 1;
nodes = (
(219,188,o),
(232,193,o),
(238,208,cs),
(276,299,ls),
(282,313,o),
(279,326,o),
(266,333,c),
(250,339,o),
(239,333,o),
(232,317,cs),
(193,228,ls),
(187,213,o),
(192,200,o),
(207,194,cs)
);
},
{
closed = 1;
nodes = (
(229,296,l),
(164,324,o),
(101,344,o),
(101,388,cs),
(101,438,o),
(139,454,o),
(197,455,cs),
(252,456,o),
(291,445,o),
(317,395,c),
(364,408,l),
(332,478,o),
(262,509,o),
(197,510,cs),
(121,511,o),
(44,460,o),
(44,386,cs),
(44,303,o),
(132,277,o),
(207,245,c)
);
},
{
closed = 1;
nodes = (
(356,350,o),
(365,360,o),
(365,376,cs),
(366,474,ls),
(366,490,o),
(356,501,o),
(341,500,c),
(325,501,o),
(316,491,o),
(316,474,cs),
(316,377,ls),
(316,360,o),
(325,350,o),
(342,350,cs)
);
}
);
width = 396;
},
{
guides = (
{
angle = -23.554;
pos = (205,332);
showMeasurement = 1;
}
);
layerId = m002;
shapes = (
{
closed = 1;
nodes = (
(295,-10,o),
(366,43,o),
(366,137,cs),
(366,226,o),
(299,265,o),
(231,295,c),
(209,244,l),
(265,220,o),
(311,194,o),
(311,138,cs),
(311,88,o),
(276,46,o),
(205,46,cs),
(153,46,o),
(88,81,o),
(73,125,c),
(45,92,l),
(67,28,o),
(126,-10,o),
(201,-10,cs)
);
},
{
closed = 1;
nodes = (
(74,1,o),
(83,11,o),
(82,28,cs),
(79,126,ls),
(79,142,o),
(69,151,o),
(55,151,cs),
(38,151,o),
(29,141,o),
(30,124,cs),
(33,27,ls),
(34,10,o),
(43,0,o),
(60,1,cs)
);
},
{
closed = 1;
nodes = (
(144,223,o),
(157,227,o),
(164,242,cs),
(205,332,ls),
(211,345,o),
(208,358,o),
(195,365,cs),
(181,372,o),
(167,368,o),
(160,352,cs),
(120,263,ls),
(114,249,o),
(117,236,o),
(132,228,cs)
);
},
{
closed = 1;
nodes = (
(220,191,o),
(233,196,o),
(239,211,cs),
(277,302,ls),
(283,316,o),
(280,329,o),
(267,336,c),
(251,342,o),
(240,336,o),
(233,320,cs),
(194,231,ls),
(188,216,o),
(193,203,o),
(208,197,cs)
);
},
{
closed = 1;
nodes = (
(193,311,l),
(128,339,o),
(101,344,o),
(101,388,cs),
(101,438,o),
(139,459,o),
(197,460,c),
(252,461,o),
(291,445,o),
(317,395,c),
(364,408,l),
(332,478,o),
(262,509,o),
(197,510,cs),
(121,511,o),
(44,460,o),
(44,386,cs),
(44,303,o),
(96,292,o),
(171,260,c)
);
},
{
closed = 1;
nodes = (
(356,350,o),
(365,360,o),
(365,376,cs),
(366,474,ls),
(366,490,o),
(356,501,o),
(341,500,c),
(325,501,o),
(316,491,o),
(316,474,cs),
(316,377,ls),
(316,360,o),
(325,350,o),
(342,350,cs)
);
}
);
width = 396;
},
{
guides = (
{
angle = -23.554;
pos = (205,332);
showMeasurement = 1;
}
);
layerId = m003;
shapes = (
{
closed = 1;
nodes = (
(295,-10,o),
(366,43,o),
(366,137,cs),
(366,226,o),
(297,266,o),
(229,296,c),
(207,245,l),
(263,221,o),
(311,194,o),
(311,138,cs),
(311,88,o),
(276,46,o),
(205,46,cs),
(153,46,o),
(88,81,o),
(73,125,c),
(45,92,l),
(67,28,o),
(126,-10,o),
(201,-10,cs)
);
},
{
closed = 1;
nodes = (
(74,1,o),
(83,11,o),
(82,28,cs),
(79,126,ls),
(79,142,o),
(69,151,o),
(55,151,cs),
(38,151,o),
(29,141,o),
(30,124,cs),
(33,27,ls),
(34,10,o),
(43,0,o),
(60,1,cs)
);
},
{
closed = 1;
nodes = (
(184,206,o),
(196,211,o),
(203,226,cs),
(243,316,ls),
(249,330,o),
(246,343,o),
(233,351,c),
(218,357,o),
(206,351,o),
(199,335,cs),
(159,247,ls),
(152,232,o),
(157,219,o),
(172,213,c)
);
},
{
closed = 1;
nodes = (
(183,208,o),
(196,212,o),
(203,227,cs),
(244,317,ls),
(250,330,o),
(247,343,o),
(234,350,cs),
(220,357,o),
(206,353,o),
(199,337,cs),
(159,248,ls),
(153,234,o),
(156,221,o),
(171,213,cs)
);
},
{
closed = 1;
nodes = (
(229,296,l),
(164,324,o),
(101,344,o),
(101,388,cs),
(101,438,o),
(139,454,o),
(197,455,cs),
(252,456,o),
(291,445,o),
(317,395,c),
(364,408,l),
(332,478,o),
(262,509,o),
(197,510,cs),
(121,511,o),
(44,460,o),
(44,386,cs),
(44,303,o),
(132,277,o),
(207,245,c)
);
},
{
closed = 1;
nodes = (
(356,350,o),
(365,360,o),
(365,376,cs),
(366,474,ls),
(366,490,o),
(356,501,o),
(341,500,c),
(325,501,o),
(316,491,o),
(316,474,cs),
(316,377,ls),
(316,360,o),
(325,350,o),
(342,350,cs)
);
}
);
width = 396;
},
{
guides = (
{
angle = 90;
pos = (200,406);
showMeasurement = 1;
},
{
pos = (153,389);
showMeasurement = 1;
},
{
pos = (153,111);
showMeasurement = 1;
}
);
layerId = m004;
shapes = (
{
closed = 1;
nodes = (
(288,-10,o),
(369,43,o),
(369,137,cs),
(369,298,o),
(102,267,o),
(102,378,cs),
(102,428,o),
(142,454,o),
(200,455,cs),
(236,456,o),
(274,438,o),
(287,410,cs),
(294,396,o),
(300,388,o),
(315,388,cs),
(320,388,ls),
(337,388,o),
(348,398,o),
(344,415,cs),
(330,471,o),
(274,509,o),
(200,510,cs),
(104,511,o),
(47,450,o),
(47,376,cs),
(47,206,o),
(314,256,o),
(314,138,cs),
(314,88,o),
(269,46,o),
(198,46,cs),
(161,46,o),
(99,60,o),
(86,117,cs),
(82,133,o),
(74,142,o),
(58,142,cs),
(55,142,ls),
(38,142,o),
(27,132,o),
(30,114,cs),
(47,14,o),
(153,-10,o),
(194,-10,cs)
);
}
);
width = 399;
}
);
unicode = 115;
},
{
color = 5;
glyphname = t;
lastChange = "2023-11-23 10:41:23 +0000";
layers = (
{
layerId = m01;
shapes = (
{
closed = 1;
nodes = (
(243,0,o),
(253,10,o),
(253,26,cs),
(253,600,ls),
(253,616,o),
(243,626,o),
(225,626,cs),
(207,626,o),
(198,617,o),
(198,600,cs),
(198,26,ls),
(198,10,o),
(207,0,o),
(225,0,cs)
);
},
{
closed = 1;
nodes = (
(374,370,ls),
(390,370,o),
(400,379,o),
(400,395,cs),
(400,411,o),
(390,420,o),
(374,420,cs),
(76,420,ls),
(60,420,o),
(50,411,o),
(50,395,cs),
(50,379,o),
(60,370,o),
(76,370,cs)
);
},
{
closed = 1;
nodes = (
(324,450,ls),
(340,450,o),
(350,459,o),
(350,475,cs),
(350,491,o),
(340,500,o),
(324,500,cs),
(126,500,ls),
(110,500,o),
(100,491,o),
(100,475,cs),
(100,459,o),
(110,450,o),
(126,450,cs)
);
},
{
closed = 1;
nodes = (
(324,290,ls),
(340,290,o),
(350,299,o),
(350,315,cs),
(350,331,o),
(340,340,o),
(324,340,cs),
(126,340,ls),
(110,340,o),
(100,331,o),
(100,315,cs),
(100,299,o),
(110,290,o),
(126,290,cs)
);
}
);
width = 450;
},
{
layerId = m002;
shapes = (
{
closed = 1;
nodes = (
(243,0,o),
(253,10,o),
(253,26,cs),
(253,600,ls),
(253,616,o),
(243,626,o),
(225,626,cs),
(207,626,o),
(198,617,o),
(198,600,cs),
(198,26,ls),
(198,10,o),
(207,0,o),
(225,0,cs)
);
},
{
closed = 1;
nodes = (
(374,450,ls),
(390,450,o),
(400,459,o),
(400,475,cs),
(400,491,o),
(390,500,o),
(374,500,cs),
(76,500,ls),
(60,500,o),
(50,491,o),
(50,475,cs),
(50,459,o),
(60,450,o),
(76,450,cs)
);
},
{
closed = 1;
nodes = (
(324,370,ls),
(340,370,o),
(350,379,o),
(350,395,cs),
(350,411,o),
(340,420,o),
(324,420,cs),
(126,420,ls),
(110,420,o),
(100,411,o),
(100,395,cs),
(100,379,o),
(110,370,o),
(126,370,cs)
);
},
{
closed = 1;
nodes = (
(294,290,ls),
(310,290,o),
(320,299,o),
(320,315,cs),
(320,331,o),
(310,340,o),
(294,340,cs),
(156,340,ls),
(140,340,o),
(130,331,o),
(130,315,cs),
(130,299,o),
(140,290,o),
(156,290,cs)
);
}
);
width = 450;
},
{
layerId = m003;
shapes = (
{
closed = 1;
nodes = (
(243,0,o),
(253,10,o),
(253,26,cs),
(253,600,ls),
(253,616,o),
(243,626,o),
(225,626,cs),
(207,626,o),
(198,617,o),
(198,600,cs),
(198,26,ls),
(198,10,o),
(207,0,o),
(225,0,cs)
);
},
{
closed = 1;
nodes = (
(374,290,ls),
(390,290,o),
(400,299,o),
(400,315,cs),
(400,331,o),
(390,340,o),
(374,340,cs),
(76,340,ls),
(60,340,o),
(50,331,o),
(50,315,cs),
(50,299,o),
(60,290,o),
(76,290,cs)
);
},
{
closed = 1;
nodes = (
(294,450,ls),
(310,450,o),
(320,459,o),
(320,475,cs),
(320,491,o),
(310,500,o),
(294,500,cs),
(156,500,ls),
(140,500,o),
(130,491,o),
(130,475,cs),
(130,459,o),
(140,450,o),
(156,450,cs)
);
},
{
closed = 1;
nodes = (
(324,370,ls),
(340,370,o),
(350,379,o),
(350,395,cs),
(350,411,o),
(340,420,o),
(324,420,cs),
(126,420,ls),
(110,420,o),
(100,411,o),
(100,395,cs),
(100,379,o),
(110,370,o),
(126,370,cs)
);
}
);
width = 450;
},
{
background = {
shapes = (
{
closed = 1;
nodes = (
(242,0,o),
(252,10,o),
(252,26,cs),
(252,600,ls),
(252,616,o),
(242,626,o),
(224,626,cs),
(206,626,o),
(197,617,o),
(197,600,cs),
(197,26,ls),
(197,10,o),
(206,0,o),
(224,0,cs)
);
}
);
};
guides = (
{
pos = (254,244);
showMeasurement = 1;
},
{
angle = 90;
pos = (123,318);
showMeasurement = 1;
}
);
layerId = m004;
shapes = (
{
closed = 1;
nodes = (
(373,450,ls),
(389,450,o),
(399,459,o),
(399,475,cs),
(399,491,o),
(389,500,o),
(373,500,cs),
(75,500,ls),
(59,500,o),
(49,491,o),
(49,475,cs),
(49,459,o),
(59,450,o),
(75,450,cs)
);
},
{
closed = 1;
nodes = (
(131,37,o),
(197,0,o),
(260,0,cs),
(331,0,o),
(401,46,o),
(410,211,cs),
(411,240,o),
(401,255,o),
(384,255,cs),
(366,255,o),
(356,240,o),
(355,213,cs),
(349,92,o),
(306,50,o),
(260,50,cs),
(218,50,o),
(185,82,o),
(185,255,cs),
(185,331,ls),
(185,457,o),
(183,587,o),
(184,634,cs),
(185,655,o),
(173,668,o),
(155,666,cs),
(143,665,o),
(129,656,o),
(129,643,cs),
(129,602,o),
(130,470,o),
(130,336,cs),
(130,300,o),
(131,264,o),
(131,230,cs)
);
}
);
width = 450;
}
);
unicode = 116;
},
{
color = 5;
glyphname = u;
lastChange = "2023-11-23 10:27:12 +0000";
layers = (
{
layerId = m01;
shapes = (
{
closed = 1;
nodes = (
(436,504,o),
(426,494,o),
(426,478,cs),
(426,21,ls),
(426,5,o),
(436,-5,o),
(454,-5,cs),
(472,-5,o),
(481,4,o),
(481,21,cs),
(481,478,ls),
(481,494,o),
(472,504,o),
(454,504,cs)
);
},
{
closed = 1;
nodes = (
(426,251,l),
(426,250,ls),
(426,107,o),
(356,45,o),
(266,45,cs),
(175,45,o),
(115,107,o),
(115,250,c),
(60,250,l),
(60,69,o),
(150,-5,o),
(266,-5,cs),
(380,-5,o),
(481,69,o),
(481,250,cs),
(481,251,l)
);
},
{
closed = 1;
nodes = (
(70,504,o),
(60,494,o),
(60,478,cs),
(60,250,ls),
(60,234,o),
(70,224,o),
(88,224,cs),
(106,224,o),
(115,233,o),
(115,250,cs),
(115,478,ls),
(115,494,o),
(106,504,o),
(88,504,cs)
);
},
{
closed = 1;
nodes = (
(252,504,o),
(242,494,o),
(242,478,cs),
(242,344,ls),
(242,328,o),
(252,318,o),
(270,318,cs),
(288,318,o),
(297,327,o),
(297,344,cs),
(297,478,ls),
(297,494,o),
(288,504,o),
(270,504,cs)
);
},
{
closed = 1;
nodes = (
(345,269,o),
(335,278,o),
(319,278,cs),
(221,278,ls),
(205,278,o),
(195,269,o),
(195,253,cs),
(195,237,o),
(205,228,o),
(221,228,cs),
(319,228,ls),
(335,228,o),
(345,237,o),
(345,253,cs)
);
},
{
closed = 1;
nodes = (
(345,349,o),
(335,358,o),
(319,358,cs),
(221,358,ls),
(205,358,o),
(195,349,o),
(195,333,cs),
(195,317,o),
(205,308,o),
(221,308,cs),
(319,308,ls),
(335,308,o),
(345,317,o),
(345,333,cs)
);
},
{
closed = 1;
nodes = (
(252,269,o),
(242,259,o),
(242,243,cs),
(242,49,ls),
(242,33,o),
(252,23,o),
(270,23,cs),
(288,23,o),
(297,32,o),
(297,49,cs),
(297,243,ls),
(297,259,o),
(288,269,o),
(270,269,cs)
);
}
);
width = 561;
},
{
layerId = m002;
shapes = (
{
closed = 1;
nodes = (
(436,504,o),
(426,494,o),
(426,478,cs),
(426,21,ls),
(426,5,o),
(436,-5,o),
(454,-5,cs),
(472,-5,o),
(481,4,o),
(481,21,cs),
(481,478,ls),
(481,494,o),
(472,504,o),
(454,504,cs)
);
},
{
closed = 1;
nodes = (
(426,251,l),
(426,250,ls),
(426,107,o),
(356,45,o),
(266,45,cs),
(175,45,o),
(115,107,o),
(115,250,c),
(60,250,l),
(60,69,o),
(150,-5,o),
(266,-5,cs),
(380,-5,o),
(481,69,o),
(481,250,cs),
(481,251,l)
);
},
{
closed = 1;
nodes = (
(70,504,o),
(60,494,o),
(60,478,cs),
(60,250,ls),
(60,234,o),
(70,224,o),
(88,224,cs),
(106,224,o),
(115,233,o),
(115,250,cs),
(115,478,ls),
(115,494,o),
(106,504,o),
(88,504,cs)
);
},
{
closed = 1;
nodes = (
(252,504,o),
(242,494,o),
(242,478,cs),
(242,274,ls),
(242,258,o),
(252,248,o),
(270,248,cs),
(288,248,o),
(297,257,o),
(297,274,cs),
(297,478,ls),
(297,494,o),
(288,504,o),
(270,504,cs)
);
},
{
closed = 1;
nodes = (
(345,269,o),
(335,278,o),
(319,278,cs),
(221,278,ls),
(205,278,o),
(195,269,o),
(195,253,cs),
(195,237,o),
(205,228,o),
(221,228,cs),
(319,228,ls),
(335,228,o),
(345,237,o),
(345,253,cs)
);
},
{
closed = 1;
nodes = (
(345,349,o),
(335,358,o),
(319,358,cs),
(221,358,ls),
(205,358,o),
(195,349,o),
(195,333,cs),
(195,317,o),
(205,308,o),
(221,308,cs),
(319,308,ls),
(335,308,o),
(345,317,o),
(345,333,cs)
);
},
{
closed = 1;
nodes = (
(252,339,o),
(242,329,o),
(242,313,cs),
(242,49,ls),
(242,33,o),
(252,23,o),
(270,23,cs),
(288,23,o),
(297,32,o),
(297,49,cs),
(297,313,ls),
(297,329,o),
(288,339,o),
(270,339,cs)
);
}
);
width = 561;
},
{
layerId = m003;
shapes = (
{
closed = 1;
nodes = (
(436,504,o),
(426,494,o),
(426,478,cs),
(426,21,ls),
(426,5,o),
(436,-5,o),
(454,-5,cs),
(472,-5,o),
(481,4,o),
(481,21,cs),
(481,478,ls),
(481,494,o),
(472,504,o),
(454,504,cs)
);
},
{
closed = 1;
nodes = (
(426,251,l),
(426,250,ls),
(426,107,o),
(356,45,o),
(266,45,cs),
(175,45,o),
(115,107,o),
(115,250,c),
(60,250,l),
(60,69,o),
(150,-5,o),
(266,-5,cs),
(380,-5,o),
(481,69,o),
(481,250,cs),
(481,251,l)
);
},
{
closed = 1;
nodes = (
(70,504,o),
(60,494,o),
(60,478,cs),
(60,250,ls),
(60,234,o),
(70,224,o),
(88,224,cs),
(106,224,o),
(115,233,o),
(115,250,cs),
(115,478,ls),
(115,494,o),
(106,504,o),
(88,504,cs)
);
},
{
closed = 1;
nodes = (
(252,294,o),
(242,284,o),
(242,268,cs),
(242,64,ls),
(242,48,o),
(252,38,o),
(270,38,cs),
(288,38,o),
(297,47,o),
(297,64,cs),
(297,268,ls),
(297,284,o),
(288,294,o),
(270,294,cs)
);
},
{
closed = 1;
nodes = (
(345,309,o),
(335,318,o),
(319,318,cs),
(221,318,ls),
(205,318,o),
(195,309,o),
(195,293,cs),
(195,277,o),
(205,268,o),
(221,268,cs),
(319,268,ls),
(335,268,o),
(345,277,o),
(345,293,cs)
);
},
{
closed = 1;
nodes = (
(345,309,o),
(335,318,o),
(319,318,cs),
(221,318,ls),
(205,318,o),
(195,309,o),
(195,293,cs),
(195,277,o),
(205,268,o),
(221,268,cs),
(319,268,ls),
(335,268,o),
(345,277,o),
(345,293,cs)
);
},
{
closed = 1;
nodes = (
(252,309,o),
(242,299,o),
(242,283,cs),
(242,49,ls),
(242,33,o),
(252,23,o),
(270,23,cs),
(288,23,o),
(297,32,o),
(297,49,cs),
(297,283,ls),
(297,299,o),
(288,309,o),
(270,309,cs)
);
}
);
width = 561;
},
{
background = {
shapes = (
{
closed = 1;
nodes = (
(50,500,o),
(40,490,o),
(40,474,cs),
(40,239,ls),
(40,223,o),
(50,213,o),
(68,213,cs),
(86,213,o),
(95,222,o),
(95,239,cs),
(95,474,ls),
(95,490,o),
(86,500,o),
(68,500,cs)
);
},
{
closed = 1;
nodes = (
(458,106,o),
(457,176,o),
(461,251,cs),
(466,346,o),
(472,396,o),
(484,467,cs),
(488,485,o),
(476,499,o),
(458,500,cs),
(444,501,o),
(434,493,o),
(431,480,cs),
(415,398,o),
(410,341,o),
(405,253,cs),
(401,177,o),
(404,89,o),
(413,20,cs),
(414,8,o),
(425,-1,o),
(437,-1,cs),
(456,-2,o),
(469,12,o),
(467,31,cs),
(464,57,ls)
);
},
{
closed = 1;
nodes = (
(406,251,l),
(406,250,ls),
(406,107,o),
(336,45,o),
(246,45,cs),
(155,45,o),
(95,107,o),
(95,250,c),
(40,250,l),
(40,69,o),
(130,-5,o),
(246,-5,cs),
(360,-5,o),
(441,69,o),
(441,250,cs),
(441,251,l)
);
}
);
};
layerId = m004;
shapes = (
{
closed = 1;
nodes = (
(416,499,o),
(406,489,o),
(406,473,cs),
(406,16,ls),
(406,0,o),
(416,-10,o),
(434,-10,cs),
(452,-10,o),
(461,-1,o),
(461,16,cs),
(461,473,ls),
(461,489,o),
(452,499,o),
(434,499,cs)
);
},
{
closed = 1;
nodes = (
(70,499,o),
(60,489,o),
(60,473,cs),
(60,245,ls),
(60,229,o),
(70,219,o),
(88,219,cs),
(106,219,o),
(115,228,o),
(115,245,cs),
(115,473,ls),
(115,489,o),
(106,499,o),
(88,499,cs)
);
},
{
closed = 1;
nodes = (
(406,251,l),
(406,107,o),
(336,45,o),
(256,45,cs),
(175,45,o),
(115,107,o),
(115,250,c),
(60,250,l),
(60,69,o),
(150,-5,o),
(256,-5,cs),
(360,-5,o),
(441,69,o),
(441,251,c)
);
}
);
width = 539;
}
);
unicode = 117;
},
{
color = 5;
glyphname = v;
lastChange = "2023-11-16 23:43:09 +0000";
layers = (
{
guides = (
{
pos = (278,550);
showMeasurement = 1;
}
);
layerId = m01;
shapes = (
{
closed = 1;
nodes = (
(360,390,o),
(350,399,o),
(334,399,cs),
(236,399,ls),
(220,399,o),
(210,390,o),
(210,374,cs),
(210,358,o),
(220,349,o),
(236,349,cs),
(334,349,ls),
(350,349,o),
(360,358,o),
(360,374,cs)
);
},
{
closed = 1;
nodes = (
(400,64,o),
(390,73,o),
(374,73,cs),
(196,73,ls),
(180,73,o),
(170,64,o),
(170,48,cs),
(170,32,o),
(180,23,o),
(196,23,cs),
(374,23,ls),
(390,23,o),
(400,32,o),
(400,48,cs)
);
},
{
closed = 1;
nodes = (
(268,390,o),
(258,380,o),
(258,364,cs),
(258,102,ls),
(258,86,o),
(268,76,o),
(286,76,cs),
(304,76,o),
(313,85,o),
(313,102,cs),
(313,364,ls),
(313,380,o),
(304,390,o),
(286,390,cs)
);
},
{
closed = 1;
nodes = (
(248,46,ls),
(254,33,o),
(264,27,o),
(278,27,cs),
(285,27,ls),
(301,27,o),
(305,41,o),
(297,58,cs),
(95,481,ls),
(89,494,o),
(79,500,o),
(65,500,cs),
(56,500,ls),
(40,500,o),
(35,486,o),
(43,469,cs)
);
},
{
closed = 1;
nodes = (
(504,500,ls),
(490,500,o),
(480,494,o),
(474,481,cs),
(269,58,ls),
(261,41,o),
(271,27,o),
(291,27,cs),
(305,27,o),
(315,33,o),
(321,46,cs),
(526,469,ls),
(534,486,o),
(530,500,o),
(514,500,cs)
);
},
{
closed = 1;
nodes = (
(150,491,o),
(140,500,o),
(124,500,cs),
(26,500,ls),
(10,500,o),
(0,491,o),
(0,475,cs),
(0,459,o),
(10,450,o),
(26,450,cs),
(124,450,ls),
(140,450,o),
(150,459,o),
(150,475,cs)
);
},
{
closed = 1;
nodes = (
(569,491,o),
(559,500,o),
(543,500,cs),
(445,500,ls),
(429,500,o),
(419,491,o),
(419,475,cs),
(419,459,o),
(429,450,o),
(445,450,cs),
(543,450,ls),
(559,450,o),
(569,459,o),
(569,475,cs)
);
}
);
width = 569;
},
{
layerId = m002;
shapes = (
{
closed = 1;
nodes = (
(360,491,o),
(350,500,o),
(334,500,cs),
(236,500,ls),
(220,500,o),
(210,491,o),
(210,475,cs),
(210,459,o),
(220,450,o),
(236,450,cs),
(334,450,ls),
(350,450,o),
(360,459,o),
(360,475,cs)
);
},
{
closed = 1;
nodes = (
(400,64,o),
(390,73,o),
(374,73,cs),
(196,73,ls),
(180,73,o),
(170,64,o),
(170,48,cs),
(170,32,o),
(180,23,o),
(196,23,cs),
(374,23,ls),
(390,23,o),
(400,32,o),
(400,48,cs)
);
},
{
closed = 1;
nodes = (
(268,491,o),
(258,481,o),
(258,465,cs),
(258,102,ls),
(258,86,o),
(268,76,o),
(286,76,cs),
(304,76,o),
(313,85,o),
(313,102,cs),
(313,465,ls),
(313,481,o),
(304,491,o),
(286,491,cs)
);
},
{
closed = 1;
nodes = (
(248,46,ls),
(254,33,o),
(264,27,o),
(278,27,cs),
(285,27,ls),
(301,27,o),
(305,41,o),
(297,58,cs),
(95,481,ls),
(89,494,o),
(79,500,o),
(65,500,cs),
(56,500,ls),
(40,500,o),
(35,486,o),
(43,469,cs)
);
},
{
closed = 1;
nodes = (
(504,500,ls),
(490,500,o),
(480,494,o),
(474,481,cs),
(269,58,ls),
(261,41,o),
(271,27,o),
(291,27,cs),
(305,27,o),
(315,33,o),
(321,46,cs),
(526,469,ls),
(534,486,o),
(530,500,o),
(514,500,cs)
);
},
{
closed = 1;
nodes = (
(150,491,o),
(140,500,o),
(124,500,cs),
(26,500,ls),
(10,500,o),
(0,491,o),
(0,475,cs),
(0,459,o),
(10,450,o),
(26,450,cs),
(124,450,ls),
(140,450,o),
(150,459,o),
(150,475,cs)
);
},
{
closed = 1;
nodes = (
(569,491,o),
(559,500,o),
(543,500,cs),
(445,500,ls),
(429,500,o),
(419,491,o),
(419,475,cs),
(419,459,o),
(429,450,o),
(445,450,cs),
(543,450,ls),
(559,450,o),
(569,459,o),
(569,475,cs)
);
}
);
width = 569;
},
{
layerId = m003;
shapes = (
{
closed = 1;
nodes = (
(360,390,o),
(350,399,o),
(334,399,cs),
(236,399,ls),
(220,399,o),
(210,390,o),
(210,374,cs),
(210,358,o),
(220,349,o),
(236,349,cs),
(334,349,ls),
(350,349,o),
(360,358,o),
(360,374,cs)
);
},
{
closed = 1;
nodes = (
(400,64,o),
(390,73,o),
(374,73,cs),
(196,73,ls),
(180,73,o),
(170,64,o),
(170,48,cs),
(170,32,o),
(180,23,o),
(196,23,cs),
(374,23,ls),
(390,23,o),
(400,32,o),
(400,48,cs)
);
},
{
closed = 1;
nodes = (
(268,390,o),
(258,380,o),
(258,364,cs),
(258,179,ls),
(258,163,o),
(268,153,o),
(286,153,cs),
(304,153,o),
(313,162,o),
(313,179,cs),
(313,364,ls),
(313,380,o),
(304,390,o),
(286,390,cs)
);
},
{
closed = 1;
nodes = (
(338,46,ls),
(347,33,o),
(354,27,o),
(368,27,cs),
(375,27,ls),
(391,27,o),
(399,41,o),
(387,58,cs),
(95,481,ls),
(86,494,o),
(79,500,o),
(65,500,cs),
(56,500,ls),
(40,500,o),
(31,486,o),
(43,469,cs)
);
},
{
closed = 1;
nodes = (
(504,500,ls),
(490,500,o),
(483,494,o),
(474,481,cs),
(179,58,ls),
(167,41,o),
(181,27,o),
(201,27,cs),
(215,27,o),
(222,33,o),
(231,46,cs),
(526,469,ls),
(538,486,o),
(530,500,o),
(514,500,cs)
);
},
{
closed = 1;
nodes = (
(150,491,o),
(140,500,o),
(124,500,cs),
(26,500,ls),
(10,500,o),
(0,491,o),
(0,475,cs),
(0,459,o),
(10,450,o),
(26,450,cs),
(124,450,ls),
(140,450,o),
(150,459,o),
(150,475,cs)
);
},
{
closed = 1;
nodes = (
(569,491,o),
(559,500,o),
(543,500,cs),
(445,500,ls),
(429,500,o),
(419,491,o),
(419,475,cs),
(419,459,o),
(429,450,o),
(445,450,cs),
(543,450,ls),
(559,450,o),
(569,459,o),
(569,475,cs)
);
}
);
width = 569;
},
{
guides = (
{
pos = (251,271);
showMeasurement = 1;
},
{
angle = 191.3742;
pos = (103,481);
showMeasurement = 1;
}
);
layerId = m004;
shapes = (
{
closed = 1;
nodes = (
(206,26,ls),
(213,6,o),
(230,0,o),
(252,0,cs),
(276,0,o),
(287,6,o),
(294,26,cs),
(453,465,ls),
(459,481,o),
(454,493,o),
(439,499,cs),
(424,504,o),
(412,498,o),
(406,482,cs),
(257,63,ls),
(256,59,o),
(254,58,o),
(252,58,cs),
(250,58,o),
(248,60,o),
(247,63,cs),
(97,483,ls),
(92,498,o),
(79,504,o),
(62,498,cs),
(45,492,o),
(40,480,o),
(46,464,cs)
);
}
);
width = 510;
}
);
unicode = 118;
},
{
color = 1;
glyphname = x;
lastChange = "2023-11-09 18:07:02 +0000";
layers = (
{
layerId = m01;
shapes = (
{
closed = 1;
nodes = (
(180,337,o),
(171,327,o),
(171,311,cs),
(171,213,ls),
(171,197,o),
(180,187,o),
(196,187,cs),
(212,187,o),
(221,197,o),
(221,213,cs),
(221,311,ls),
(221,327,o),
(212,337,o),
(196,337,cs)
);
},
{
closed = 1;
nodes = (
(506,377,o),
(497,367,o),
(497,351,cs),
(497,173,ls),
(497,157,o),
(506,147,o),
(522,147,cs),
(538,147,o),
(547,157,o),
(547,173,cs),
(547,351,ls),
(547,367,o),
(538,377,o),
(522,377,cs)
);
},
{
closed = 1;
nodes = (
(180,245,o),
(190,235,o),
(206,235,cs),
(398,235,ls),
(414,235,o),
(424,245,o),
(424,263,cs),
(424,281,o),
(415,290,o),
(398,290,cs),
(206,290,ls),
(190,290,o),
(180,281,o),
(180,263,cs)
);
},
{
closed = 1;
nodes = (
(524,325,ls),
(537,334,o),
(543,341,o),
(543,355,cs),
(543,362,ls),
(543,378,o),
(529,386,o),
(512,374,cs),
(89,69,ls),
(76,60,o),
(70,53,o),
(70,39,cs),
(70,33,ls),
(70,17,o),
(84,8,o),
(101,20,cs)
);
},
{
closed = 1;
nodes = (
(70,484,ls),
(70,470,o),
(76,463,o),
(89,454,cs),
(512,149,ls),
(529,137,o),
(543,148,o),
(543,168,cs),
(543,182,o),
(537,189,o),
(524,198,cs),
(101,503,ls),
(84,515,o),
(70,507,o),
(70,491,cs)
);
}
);
width = 600;
},
{
layerId = m002;
width = 600;
},
{
layerId = m003;
width = 600;
},
{
layerId = m004;
shapes = (
{
closed = 1;
nodes = (
(345,390,o),
(335,399,o),
(319,399,cs),
(221,399,ls),
(205,399,o),
(195,390,o),
(195,374,cs),
(195,358,o),
(205,349,o),
(221,349,cs),
(319,349,ls),
(335,349,o),
(345,358,o),
(345,374,cs)
);
},
{
closed = 1;
nodes = (
(385,64,o),
(375,73,o),
(359,73,cs),
(181,73,ls),
(165,73,o),
(155,64,o),
(155,48,cs),
(155,32,o),
(165,23,o),
(181,23,cs),
(359,23,ls),
(375,23,o),
(385,32,o),
(385,48,cs)
);
},
{
closed = 1;
nodes = (
(253,390,o),
(243,380,o),
(243,364,cs),
(243,172,ls),
(243,156,o),
(253,146,o),
(271,146,cs),
(289,146,o),
(298,155,o),
(298,172,cs),
(298,364,ls),
(298,380,o),
(289,390,o),
(271,390,cs)
);
},
{
closed = 1;
nodes = (
(333,46,ls),
(342,33,o),
(349,27,o),
(363,27,cs),
(370,27,ls),
(386,27,o),
(394,41,o),
(382,58,cs),
(77,481,ls),
(68,494,o),
(61,500,o),
(47,500,cs),
(41,500,ls),
(25,500,o),
(16,486,o),
(28,469,cs)
);
},
{
closed = 1;
nodes = (
(492,500,ls),
(478,500,o),
(471,494,o),
(462,481,cs),
(157,58,ls),
(145,41,o),
(156,27,o),
(176,27,cs),
(190,27,o),
(197,33,o),
(206,46,cs),
(511,469,ls),
(523,486,o),
(515,500,o),
(499,500,cs)
);
}
);
width = 600;
}
);
unicode = 120;
},
